<?xml version="1.0" encoding="utf-8"?>
<!-- Generator: Adobe Illustrator 19.1.0, SVG Export Plug-In . SVG Version: 6.00 Build 0)  -->
<svg version="1.1" id="Layer_1" xmlns="http://www.w3.org/2000/svg" xmlns:xlink="http://www.w3.org/1999/xlink" x="0px" y="0px"
	 viewBox="0 0 420.022 208.321" style="enable-background:new 0 0 420.022 208.321;" xml:space="preserve">
<style type="text/css">
	.st0{fill:#43AF49;}
</style>
<g>
	<g>
		<g>
			<g>
				<path class="st0" d="M0.146,205.69l22.731-49.189c0.219-0.439,0.585-0.805,1.243-0.805h0.731c0.731,0,1.023,0.366,1.243,0.805
					l22.511,49.189c0.439,0.95-0.146,1.9-1.242,1.9h-6.359c-1.097,0-1.608-0.439-2.12-1.461l-3.581-7.894H13.449l-3.582,7.894
					c-0.292,0.731-0.95,1.461-2.119,1.461H1.389C0.293,207.591-0.292,206.641,0.146,205.69z M31.721,190.123l-7.309-16.08h-0.219
					l-7.163,16.08H31.721z"/>
				<path class="st0" d="M55.253,157.013c0-0.731,0.658-1.316,1.389-1.316h1.827l30.405,32.306h0.073v-30.186
					c0-0.731,0.584-1.388,1.389-1.388h6.724c0.731,0,1.389,0.658,1.389,1.388v49.19c0,0.731-0.658,1.315-1.389,1.315h-1.754
					l-30.551-33.548h-0.073v31.428c0,0.732-0.585,1.389-1.389,1.389h-6.651c-0.731,0-1.389-0.658-1.389-1.389V157.013z"/>
				<path class="st0" d="M105.096,205.69l22.731-49.189c0.219-0.439,0.585-0.805,1.243-0.805h0.731c0.731,0,1.023,0.366,1.243,0.805
					l22.511,49.189c0.439,0.95-0.146,1.9-1.242,1.9h-6.359c-1.097,0-1.608-0.439-2.12-1.461l-3.581-7.894h-21.854l-3.582,7.894
					c-0.292,0.731-0.95,1.461-2.119,1.461h-6.359C105.242,207.591,104.657,206.641,105.096,205.69z M136.67,190.123l-7.309-16.08
					h-0.219l-7.163,16.08H136.67z"/>
				<path class="st0" d="M182.495,155.697c7.382,0,12.719,2.339,17.688,6.798c0.658,0.585,0.658,1.462,0.073,2.047l-4.458,4.605
					c-0.512,0.584-1.243,0.584-1.827,0c-3.07-2.704-7.163-4.312-11.256-4.312c-9.355,0-16.299,7.82-16.299,17.03
					c0,9.136,7.017,16.883,16.372,16.883c4.385,0,8.113-1.681,11.183-4.166c0.584-0.512,1.388-0.439,1.827,0l4.531,4.678
					c0.584,0.511,0.439,1.461-0.073,1.974c-4.97,4.824-11.256,7.089-17.761,7.089c-14.617,0-26.385-11.621-26.385-26.239
					C156.11,167.465,167.878,155.697,182.495,155.697z"/>
				<path class="st0" d="M232.194,155.697c14.617,0,26.312,11.768,26.312,26.385c0,14.618-11.695,26.239-26.312,26.239
					c-14.618,0-26.239-11.621-26.239-26.239C205.955,167.465,217.576,155.697,232.194,155.697z M232.194,198.82
					c9.209,0,16.81-7.528,16.81-16.737c0-9.209-7.601-16.884-16.81-16.884s-16.737,7.675-16.737,16.884
					C215.457,191.291,222.985,198.82,232.194,198.82z"/>
				<path class="st0" d="M268.077,157.013c0-0.731,0.658-1.316,1.388-1.316h1.827l30.406,32.306h0.073v-30.186
					c0-0.731,0.584-1.388,1.388-1.388h6.724c0.731,0,1.389,0.658,1.389,1.388v49.19c0,0.731-0.659,1.315-1.389,1.315h-1.754
					l-30.551-33.548h-0.073v31.428c0,0.732-0.585,1.389-1.389,1.389h-6.651c-0.731,0-1.388-0.658-1.388-1.389V157.013z"/>
				<path class="st0" d="M324.571,157.817c0-0.731,0.584-1.388,1.315-1.388h17.323c14.106,0,25.655,11.474,25.655,25.507
					c0,14.179-11.548,25.655-25.655,25.655h-17.323c-0.731,0-1.315-0.658-1.315-1.389V157.817z M342.332,198.674
					c9.502,0,16.445-7.163,16.445-16.738c0-9.501-6.943-16.664-16.445-16.664H334v33.402H342.332z"/>
				<path class="st0" d="M371.417,205.69l22.731-49.189c0.219-0.439,0.584-0.805,1.242-0.805h0.732c0.731,0,1.022,0.366,1.242,0.805
					l22.512,49.189c0.439,0.95-0.146,1.9-1.242,1.9h-6.36c-1.096,0-1.608-0.439-2.119-1.461l-3.582-7.894H384.72l-3.581,7.894
					c-0.293,0.731-0.95,1.461-2.12,1.461h-6.359C371.564,207.591,370.978,206.641,371.417,205.69z M402.992,190.123l-7.309-16.08
					h-0.22l-7.162,16.08H402.992z"/>
			</g>
		</g>
	</g>
	<g>
		<path class="st0" d="M160.609,81.169c-2.083,4.194-3.82,8.578-5.196,13.11c4.678,1.286,9.429,2.164,14.204,2.635
			c0.079-3.758,0.376-7.413,0.888-10.97C167.115,84.558,163.809,82.966,160.609,81.169z"/>
		<path class="st0" d="M179.902,32.757c-2.763,0.048-5.524,0.238-8.274,0.559c0.356,2.783,0.844,5.545,1.474,8.274
			c1.888-3.192,4.168-6.124,6.783-8.721C179.89,32.832,179.896,32.794,179.902,32.757z"/>
		<path class="st0" d="M157.337,98.658c3.632,5.491,8.091,10.382,13.202,14.502c-0.549-4.267-0.863-8.419-0.932-12.454
			C165.49,100.318,161.393,99.626,157.337,98.658z"/>
		<path class="st0" d="M189.828,3.429c-4.958,1.697-9.639,3.986-13.96,6.788c3.27,0.578,6.494,1.337,9.659,2.266
			C186.788,9.398,188.22,6.374,189.828,3.429z"/>
		<path class="st0" d="M210.426,0c-2.453,0-4.869,0.153-7.25,0.423c3.377,2.353,6.606,4.925,9.651,7.733l2.53,2.334l-2.481,2.387
			c-2.053,1.976-4.061,4.126-5.969,6.39l-0.096,0.11c-0.022,0.024-0.378,0.418-0.971,1.141c1.507-0.159,3.036-0.243,4.585-0.243
			c23.937,0,43.342,19.405,43.342,43.342c0,23.937-19.405,43.342-43.342,43.342c-8.306,0-16.064-2.34-22.657-6.392
			c-3.252,0.361-6.523,0.55-9.797,0.55c-1.521,0-3.043-0.04-4.564-0.118c0.099,4.93,0.568,10.041,1.408,15.34
			c10.162,6.877,22.416,10.894,35.61,10.894c35.134,0,63.616-28.482,63.616-63.616C274.043,28.482,245.561,0,210.426,0z"/>
		<path class="st0" d="M201.992,15.037c1.267-1.501,2.576-2.956,3.912-4.351c-2.981-2.537-6.129-4.853-9.42-6.943
			c-2.023,3.42-3.785,6.965-5.292,10.601c2.863,1.05,5.664,2.252,8.4,3.585C200.856,16.306,201.739,15.315,201.992,15.037z"/>
		<path class="st0" d="M166.281,34.116c-4.655,0.848-9.259,2.086-13.759,3.726c1.839,4.635,4.071,9.069,6.66,13.26
			c2.968-2.132,6.059-4.079,9.258-5.828C167.484,41.608,166.767,37.881,166.281,34.116z"/>
		<path class="st0" d="M157.995,58.13c-3.417,2.779-6.625,5.837-9.597,9.151c3.316,2.9,6.836,5.521,10.522,7.851
			c1.709-3.031,3.593-5.954,5.64-8.759C162.214,63.759,160.021,61.008,157.995,58.13z"/>
		<path class="st0" d="M174.163,87.345c-0.005-0.002-0.011-0.004-0.016-0.006c-0.428,3.203-0.673,6.49-0.739,9.865
			c3.199,0.172,6.402,0.16,9.593-0.029C179.578,94.373,176.596,91.056,174.163,87.345z"/>
		<path class="st0" d="M183.454,18.06c-3.979-1.145-8.057-2-12.205-2.547c-0.352,4.153-0.392,8.304-0.133,12.422
			c3.255-0.375,6.523-0.567,9.792-0.584C181.593,24.213,182.436,21.111,183.454,18.06z"/>
		<path class="st0" d="M189.108,19.899c-0.795,2.38-1.482,4.793-2.06,7.23c2.77-1.779,5.752-3.253,8.906-4.37
			C193.717,21.706,191.434,20.751,189.108,19.899z"/>
		<path class="st0" d="M147.389,72.091c0.822,6.171,2.526,12.059,4.986,17.538c1.275-3.667,2.785-7.23,4.511-10.674
			C153.586,76.886,150.413,74.595,147.389,72.091z"/>
		<path class="st0" d="M165.634,18.451c-3.797,3.765-7.116,8.008-9.872,12.627c3.293-0.982,6.628-1.765,9.988-2.36
			C165.518,25.313,165.473,21.885,165.634,18.451z"/>
		<path class="st0" d="M161.862,55.169c1.641,2.343,3.399,4.599,5.265,6.76c0.153-3.979,0.837-7.82,1.992-11.454
			C166.624,51.913,164.202,53.48,161.862,55.169z"/>
		<path class="st0" d="M162.637,77.345c2.686,1.511,5.449,2.872,8.277,4.08c-1.659-3.676-2.822-7.621-3.4-11.756
			C165.754,72.136,164.126,74.697,162.637,77.345z"/>
		<path class="st0" d="M155.291,54.057c-2.004-3.206-3.808-6.548-5.401-10.009c-1.813,5.613-2.859,11.567-3.034,17.742
			C149.512,59.025,152.328,56.441,155.291,54.057z"/>
	</g>
	<g>
		<path class="st0" d="M415.359,155.763c2.375,0,4.317,1.943,4.317,4.317s-1.942,4.306-4.317,4.306s-4.306-1.931-4.306-4.306
			S412.984,155.763,415.359,155.763z M415.359,163.558c1.931,0,3.479-1.559,3.479-3.478c0-1.931-1.548-3.478-3.479-3.478
			c-1.919,0-3.478,1.547-3.478,3.478C411.881,161.999,413.44,163.558,415.359,163.558z M413.812,158.101
			c0-0.12,0.096-0.228,0.228-0.228h1.775c0.743,0,1.475,0.503,1.475,1.415c0,0.852-0.551,1.188-0.911,1.319
			c0.216,0.444,0.432,0.899,0.636,1.331c0.084,0.156-0.036,0.324-0.204,0.324h-0.539c-0.097,0-0.181-0.084-0.217-0.168l-0.6-1.416
			h-0.743v1.355c0,0.12-0.096,0.228-0.228,0.228h-0.444c-0.132,0-0.228-0.108-0.228-0.228V158.101z M415.754,159.888
			c0.36,0,0.601-0.264,0.601-0.587c0-0.348-0.24-0.588-0.601-0.588h-1.067v1.175H415.754z"/>
	</g>
</g>
</svg>
