<?xml version="1.0" encoding="UTF-8"?>
<!DOCTYPE svg PUBLIC "-//W3C//DTD SVG 1.1//EN" "http://www.w3.org/Graphics/SVG/1.1/DTD/svg11.dtd">
<!-- Creator: CorelDRAW -->
<svg xmlns="http://www.w3.org/2000/svg" xml:space="preserve" width="2.5in" height="2in" style="shape-rendering:geometricPrecision; text-rendering:geometricPrecision; image-rendering:optimizeQuality; fill-rule:evenodd; clip-rule:evenodd"
viewBox="0 0 8.5 11">
 <defs>
  <style type="text/css">
   <![CDATA[
    .str1 {stroke:#1F1A17;stroke-width:0.003}
    .str0 {stroke:#1F1A17;stroke-width:0.0138898}
    .fil1 {fill:#1F1A17}
    .fil0 {fill:#E2C4A7}
    .fil2 {fill:#83522E}
    .fil4 {fill:#C59572}
    .fil3 {fill:url(#id0)}
   ]]>
  </style>
  <linearGradient id="id0" gradientUnits="userSpaceOnUse" x1="2.77379" y1="1.75239" x2="5.50953" y2="1.99378">
   <stop offset="0" style="stop-color:#83522E"/>
   <stop offset="1" style="stop-color:#E2C4A7"/>
  </linearGradient>
 </defs>
 <g id="Layer_x0020_1">
  <metadata id="CorelCorpID_0Corel-Layer"/>
  <g id="_206118568">
   <path id="_206116264" class="fil0 str0" d="M2.36289 3.43838c-1.01431,0.305457 -1.8142,-1.44579 0.442681,-1.87124 0.0863898,-0.294307 -0.0737244,-0.185768 0.172972,-0.435114 0.318461,-0.321858 2.55629,-0.269681 2.53259,0.322783 -0.118016,0.700819 0.15989,0.641287 0.337311,0.750543 0.850362,-0.0306535 1.2149,0.174567 1.1635,0.158303 -1.99693,-0.632067 -4.08662,0.859827 -4.64906,1.07473z"/>
   <path id="_206116192" class="fil1" d="M4.19132 2.57775c-0.415228,0.153661 -0.788453,0.333591 -1.09568,0.491067 -0.250051,0.100807 -0.468232,0.163181 -0.585614,0.122677 -0.164157,-0.11874 -0.0964213,-0.502858 0.160181,-0.886961 -0.00525197,0.389453 0.661496,0.360677 1.53281,0.26876l-0.0117047 0.00445669z"/>
   <path id="_206116120" class="fil1" d="M5.50626 1.94339c-0.357421,0.207866 -2.42384,0.528587 -2.72516,0.227323 -0.0315512,0.0626732 -0.0710709,0.0834606 -0.0557165,0.125614 0.236713,0.649929 2.9565,-0.17998 2.93135,-0.194732 -0.0766417,-0.0205079 -0.149189,-0.0945669 -0.150476,-0.158205z"/>
   <path id="_206116048" class="fil2" d="M3.59157 1.36682c0.197358,0.0184488 0.328346,0.190378 0.750961,0.33763 0.661579,0.0431299 0.893138,-0.19124 1.02286,-0.355941 0.0212362,-0.283504 -1.43185,-0.339689 -1.77382,0.018311z"/>
   <path id="_206115976" class="fil3" d="M2.83223 1.35074c0.951803,0.0389055 0.333579,0.29748 0.967465,0.569606 0.537425,0.0537126 1.17361,-0.0135945 1.6664,-0.20126 0.00167323,0.0791299 0.0127165,0.171724 0.0361417,0.226614 -0.313882,0.182543 -1.94165,0.449748 -2.53862,0.308665 -0.0654291,-0.0234252 -0.126689,-0.0510433 -0.18252,-0.0836457 0.0706063,-0.258425 0.0340906,-0.546654 0.0511378,-0.81998z"/>
   <path id="_206115928" class="fil1 str1" d="M2.25216 3.46388l0.0042126 -0.000956693 -0.00370866 0.000559055 -0.000503937 0.000397638zm0.103917 -0.0236614l4.67754 -1.06499c-1.99695,-0.632134 -4.1083,0.848248 -4.67073,1.06315 -0.00227165,0.000685039 -0.00453543,0.00117717 -0.00680709,0.00184252z"/>
   <path id="_206115784" class="fil4" d="M3.81888 1.21771c0.471606,-0.120417 1.39565,-0.0205827 1.2212,0.19661 -0.237862,0.256374 -0.512055,0.306335 -0.734642,0.276843 -0.393402,-0.144122 -0.522402,-0.306445 -0.713866,-0.324346 0.060185,-0.0630079 0.137976,-0.111787 0.227303,-0.149106z"/>
  </g>
 </g>
</svg>
