<svg xmlns="http://www.w3.org/2000/svg" version="1" width="500" height="220"><defs><filter id="a"><feGaussianBlur stdDeviation="4.201"/></filter></defs><path d="M146.438 17.918L133 35.2l-12.906 16.625-9.125-20.594-32.906 14.562L92.657 78.7l8.156-3.625 6.312 7.593-5.812 8.907L85.344 75.45l-1.906.406c-8.372-3.915-18.65-2.04-25.031 5.25l-39.125 8.187 15.593 8.938L9 101.575l24.125 45.312 11.157-8.375 4.687 20.219 23 33.062 62.938-16.093 5.03-24.813.126-.062 2.594-13.063 16.156-8.281-9.875-22.969 21.25-18.312-7.938-1.188 16.188-21.344 1.156.938c8.988 6.348 21.162 4.871 28.375-3.438 7.704-8.874 6.75-22.327-2.125-30.03-8.874-7.705-22.327-6.75-30.031 2.124-5.22 6.013-6.469 14.12-3.969 21.125L157.72 45.668l-3.031-7.468-8.25-20.282zm-26.031 34.657l20.625 2.843-5.094 6.688-10.5 1.812-5.031-11.343zm14.156 20.687l15.75 11.938-19.063-2.875.063-.188 3.25-8.875zm43.656 2.563v114.75h16.813v-55.313h4.406c14.966 0 22.469-9.157 22.469-27.5v-4.437c0-18.343-7.526-27.5-22.594-27.5h-21.094zm86.469 0v15.187h12.219v99.563h16.812V91.012h12.219V75.825h-41.25zm78.625 0v114.75h7.344l2.437-4.688c2.545 3.134 6.052 4.688 10.531 4.688 10.69 0 16.063-7.184 16.063-21.563v-43.156c0-14.38-4.937-21.563-14.813-21.563-2.443 0-4.605.324-6.437.97V75.824h-15.125zm44.875 0v114.75h15.125V75.825h-15.125zM195.032 91.012h4.28c3.87 0 5.782 1.812 5.782 5.406v18.25c0 3.595-1.89 5.407-5.656 5.407h-4.406V91.012zm30.812 13.281l12.688 84.22c-.917 4.7-4.477 7.224-10.688 7.593v13.969c7.33 0 13.185-1.748 17.563-5.25 4.48-3.41 7.286-8.781 8.406-16.063l12.375-84.469h-15.594l-3.219 22.688-1.5 20.594-1.53-20.875-3.063-22.407h-15.438zm92.781 0c-11.606 0-17.406 7.184-17.406 21.563v13.437h15.125v-17.437c0-2.304.754-3.469 2.281-3.469 1.731 0 2.594 1.165 2.594 3.469v16.875a679.218 679.218 0 0 1-6.562 4 42.764 42.764 0 0 0-6.875 4.844 27.53 27.53 0 0 0-5.5 6.5c-1.426 2.488-2.125 5.4-2.125 8.718v6.22c0 14.378 4.423 21.562 13.28 21.562 3.157 0 5.746-1.198 7.782-3.594v3.594h15.125v-64.72c0-14.378-5.908-21.562-17.719-21.562zm111.344 0c-12.014 0-18.031 7.184-18.031 21.563v43.156c0 14.38 6.017 21.563 18.031 21.563 12.218 0 18.313-7.184 18.313-21.563v-13.844h-15.125v17.844c0 2.397-1.05 3.594-3.188 3.594-1.934 0-2.906-1.197-2.906-3.594v-21.719h21.219v-25.437c0-14.38-6.095-21.563-18.313-21.563zm41.313 0c-11.302 0-16.938 7.668-16.938 22.97 0 9.217 3.452 17.08 10.375 23.624 6.109 5.807 9.156 10.79 9.156 14.938v7.593c0 2.397-.917 3.594-2.75 3.594-1.832 0-2.75-1.197-2.75-3.594v-11.593h-14.03v5.656c0 15.393 5.744 23.094 17.25 23.094 11.606 0 17.405-7.571 17.405-22.688 0-7.282-3.451-14.885-10.375-22.812-6.21-6.73-9.312-12.068-9.312-16.032v-7.593c0-2.397.754-3.594 2.281-3.594 1.73 0 2.594 1.197 2.594 3.594v12.156h14.219v-6.344c0-15.3-5.722-22.969-17.125-22.969zM361.5 118.387c2.037 0 3.063 1.165 3.063 3.469v51.156c0 2.397-1.026 3.594-3.063 3.594-2.036 0-3.062-1.197-3.062-3.594v-51.156c0-2.304 1.026-3.469 3.062-3.469zm68.47 0c2.137 0 3.187 1.165 3.187 3.469v15.625h-6.094v-15.625c0-2.304.972-3.469 2.906-3.469zm-108.75 36.781v17.844c-.001 2.397-1.105 3.594-3.345 3.594-1.73 0-2.593-1.197-2.593-3.594v-9.125c0-3.02.706-5.082 2.125-6.219.509-.46 1.076-.881 1.687-1.25a25.52 25.52 0 0 1 2.125-1.25z" fill="#666" fill-rule="evenodd" stroke-width=".25pt" filter="url(#a)"/><g fill-rule="evenodd"><path d="M73.96 183.794l62.952-16.096 14.015-69.177-47.62-14.95-66.446 6.644" fill="#ffc500" stroke-width=".25pt"/><path d="M36.898 90.008l27.682 26.79 9.38 66.996-22.998-33.063" fill="#ff8000" stroke-width=".25pt"/><path d="M36.86 90.215l66.447-6.644 47.62 14.95-86.38 18.273" stroke-width=".312"/><path d="M89.137 164.35l52.93-21.531 8.686-43.881-86.206 17.856" fill="#ff8000" stroke-width=".25pt"/><path d="M92.04 156.759l68.76-35.273-9.873-22.965-86.38 18.273" fill="#ff0" stroke-width=".25pt"/><path d="M64.547 116.794L35.112 138.9 11 93.58l25.86-3.365" fill="#ffb000" stroke-width=".25pt"/><path d="M103.307 83.57L87.351 67.46l-66.08 13.841 15.59 8.914M150.927 98.521l21.258-18.336-60.723-9.153-8.155 12.539" fill="#fedc00" stroke-width=".25pt"/><g color="#000" stroke-width=".312"><path style="marker:none" fill="#5ac4fe" overflow="visible" d="M80.051 37.799l32.905-14.584L127.54 56.12 94.634 70.704z"/><path style="marker:none" d="M62.463 103.214C53.741 95.642 52.648 82.496 60 73.588c7.351-8.91 20.466-10.33 29.555-3.204 9.09 7.127 10.839 20.201 3.942 29.466s-19.924 11.34-29.359 4.677" fill="#fe0000" overflow="visible"/><path style="marker:none" d="M125.736 94.645L111.753 77.83 97.77 61.012l21.555-3.701 21.555-3.701-7.572 20.517-7.572 20.518z" fill="#5afe00" overflow="visible"/><path style="marker:none" fill="#5ac4fe" overflow="visible" d="M132.062 61.854l21.756-28.672 28.672 21.756-21.756 28.672z"/><path style="marker:none" d="M179.916 57.283c-8.722-7.572-9.815-20.718-2.463-29.627 7.352-8.908 20.466-10.33 29.556-3.203 9.09 7.126 10.838 20.201 3.941 29.466-6.897 9.265-19.924 11.34-29.358 4.677" fill="#5afe00" overflow="visible"/><path style="marker:none" d="M164.908 50.445l-21.664-2.996-21.664-2.997 13.427-17.263 13.427-17.264 8.237 20.26 8.237 20.26z" fill="#fe0000" overflow="visible"/></g></g><path style="text-align:start;line-height:125%" d="M197.015 83.023v29.035h4.429c3.767 0 5.65-1.797 5.65-5.392v-18.25c0-3.595-1.934-5.393-5.803-5.393h-4.276m0 44.244v55.305h-16.8V67.814h21.076c15.069 0 22.603 9.172 22.603 27.515v4.424c0 18.343-7.484 27.514-22.45 27.514h-4.429m32.818 60.836c6.21-.369 9.774-2.904 10.69-7.605l-12.675-84.201h15.425l3.054 22.398 1.527 20.878 1.527-20.601 3.207-22.675h15.578l-12.37 84.478c-1.12 7.282-3.92 12.628-8.4 16.038-4.378 3.503-10.232 5.254-17.563 5.254v-13.964M266.69 67.814h41.235v15.21h-12.218v99.548h-16.8V83.023H266.69V67.814m56.53 79.363a25.63 25.63 0 0 0-2.138 1.245c-.611.368-1.171.783-1.68 1.244l.153-.138c-1.527 1.106-2.291 3.226-2.291 6.36v9.125c0 2.397.865 3.595 2.596 3.595 2.24 0 3.36-1.198 3.36-3.595v-17.836m-21.075 7.605c0-3.319.712-6.222 2.138-8.71 1.527-2.49 3.36-4.656 5.498-6.5a42.718 42.718 0 0 1 6.872-4.838 670.486 670.486 0 0 0 6.567-4.01v-16.868c0-2.304-.865-3.457-2.596-3.457-1.527 0-2.291 1.153-2.291 3.457v17.421h-15.12v-13.412c0-14.379 5.804-21.568 17.41-21.568 11.811 0 17.716 7.19 17.716 21.568v64.707H323.22v-3.594c-2.036 2.396-4.633 3.594-7.789 3.594-8.857 0-13.286-7.19-13.286-21.569v-6.221m64.405-40.926c0-2.304-1.018-3.457-3.054-3.457-2.037 0-3.055 1.153-3.055 3.457v51.157c0 2.397 1.018 3.595 3.055 3.595 2.036 0 3.054-1.198 3.054-3.595v-51.157m-21.228-46.042h15.12v29.45c1.832-.645 3.97-.967 6.413-.967 9.876 0 14.814 7.19 14.814 21.568v43.138c0 14.38-5.345 21.57-16.035 21.57-4.48 0-7.993-1.568-10.538-4.702l-2.444 4.701h-7.33V67.814m44.86 0h15.118v114.758H390.18V67.814m38.865 61.666h6.109v-15.624c0-2.304-1.07-3.457-3.207-3.457-1.935 0-2.902 1.153-2.902 3.457v15.624m0 13.826v21.707c0 2.397.967 3.595 2.902 3.595 2.138 0 3.207-1.198 3.207-3.595v-17.836h15.12v13.826c-.001 14.38-6.11 21.57-18.327 21.57-12.014 0-18.021-7.19-18.021-21.57v-43.138c0-14.379 6.007-21.568 18.02-21.568 12.218 0 18.327 7.19 18.327 21.568v25.44h-21.228m47.14-29.864c0-2.396-.865-3.595-2.595-3.595-1.528 0-2.291 1.199-2.291 3.595v7.605c0 3.963 3.105 9.31 9.316 16.038 6.923 7.927 10.385 15.532 10.385 22.813 0 15.117-5.804 22.675-17.41 22.675-11.505 0-17.258-7.696-17.258-23.09v-5.668h14.05v11.614c0 2.396.917 3.595 2.75 3.595 1.832 0 2.748-1.199 2.748-3.595v-7.605c0-4.147-3.054-9.125-9.163-14.932-6.923-6.544-10.385-14.425-10.385-23.643 0-15.3 5.65-22.951 16.952-22.951 11.403 0 17.105 7.65 17.105 22.951v6.36h-14.203v-12.167" font-size="145.312" font-weight="700" fill="#ff8000" stroke-width="1pt" font-family="Steelfish"/></svg>