<svg xmlns="http://www.w3.org/2000/svg" xmlns:xlink="http://www.w3.org/1999/xlink" version="1" width="518.453" height="153.36"><defs><linearGradient id="c"><stop offset="0" stop-color="#b8b8b8" stop-opacity=".498"/><stop offset="1" stop-color="#7f7f7f" stop-opacity="0"/></linearGradient><linearGradient id="a"><stop offset="0" stop-color="#ffd43b"/><stop offset="1" stop-color="#ffe873"/></linearGradient><linearGradient id="b"><stop offset="0" stop-color="#5a9fd4"/><stop offset="1" stop-color="#306998"/></linearGradient><linearGradient x1="150.961" y1="192.352" x2="112.031" y2="137.273" id="e" xlink:href="#a" gradientUnits="userSpaceOnUse" gradientTransform="matrix(.56254 0 0 .56797 -9.4 -5.305)"/><linearGradient x1="26.649" y1="20.604" x2="135.665" y2="114.398" id="d" xlink:href="#b" gradientUnits="userSpaceOnUse" gradientTransform="matrix(.56254 0 0 .56797 -9.4 -5.305)"/><radialGradient cx="61.519" cy="132.286" r="29.037" fx="61.519" fy="132.286" id="f" xlink:href="#c" gradientUnits="userSpaceOnUse" gradientTransform="matrix(0 -.2964 1.43676 0 -128.544 150.52)"/></defs><path d="M184.613 61.93c0-14.563-4.152-22.039-12.456-22.448a23.4 23.4 0 0 0-9.67 1.589c-2.504.896-4.19 1.783-5.078 2.68v34.758c5.312 3.334 10.03 4.883 14.143 4.64 8.704-.575 13.061-7.642 13.061-21.22zm10.245.604c0 7.398-1.735 13.538-5.225 18.422-3.889 5.526-9.279 8.372-16.17 8.528-5.195.166-10.547-1.462-16.054-4.873v31.59l-8.909-3.177V42.903c1.463-1.793 3.344-3.333 5.625-4.64 5.302-3.09 11.745-4.678 19.328-4.756l.127.127c6.93-.088 12.271 2.758 16.024 8.528 3.5 5.293 5.254 12.077 5.254 20.372zM249.305 83.266c0 9.922-.994 16.794-2.983 20.615-1.998 3.82-5.8 6.872-11.414 9.143-4.551 1.793-9.474 2.768-14.757 2.933l-1.471-5.614c5.37-.73 9.152-1.462 11.345-2.193 4.318-1.462 7.281-3.704 8.909-6.706 1.306-2.446 1.95-7.115 1.95-14.026v-2.32c-6.093 2.768-12.477 4.143-19.154 4.143-4.386 0-8.255-1.375-11.589-4.143-3.743-3.012-5.614-6.833-5.614-11.462V36.558l8.909-3.051v37.321c0 3.987 1.286 7.057 3.86 9.211 2.573 2.155 5.906 3.188 9.99 3.11 4.084-.088 8.46-1.667 13.11-4.757v-43.54h8.909v48.414zM284.082 88.997a35.662 35.662 0 0 1-2.933.127c-5.04 0-8.968-1.2-11.775-3.607-2.797-2.407-4.2-5.731-4.2-9.97v-35.09h-6.103v-5.605h6.102V19.968l8.9-3.168v18.052h10.01v5.605h-10.01v34.845c0 3.344.896 5.712 2.69 7.096 1.54 1.14 3.986 1.794 7.32 1.96v4.639zM338.023 88.266h-8.909V53.878c0-3.499-.819-6.51-2.446-9.026-1.882-2.846-4.494-4.269-7.847-4.269-4.084 0-9.191 2.154-15.322 6.463v41.22h-8.91V6.069l8.91-2.807V40.7c5.692-4.142 11.91-6.218 18.665-6.218 4.718 0 8.539 1.588 11.463 4.756 2.934 3.168 4.396 7.116 4.396 11.833v37.195zM385.374 60.526c0-5.595-1.062-10.215-3.177-13.87-2.515-4.455-6.424-6.804-11.707-7.047-9.766.565-14.64 7.563-14.64 20.975 0 6.15 1.014 11.287 3.06 15.41 2.613 5.254 6.531 7.847 11.756 7.76 9.805-.079 14.708-7.818 14.708-23.228zm9.757.058c0 7.964-2.037 14.592-6.102 19.884-4.474 5.927-10.653 8.9-18.539 8.9-7.817 0-13.909-2.973-18.305-8.9-3.986-5.292-5.975-11.92-5.975-19.884 0-7.485 2.155-13.782 6.463-18.91 4.552-5.438 10.536-8.167 17.934-8.167 7.398 0 13.422 2.729 18.062 8.168 4.308 5.127 6.462 11.424 6.462 18.91zM446.206 88.266h-8.909V51.929c0-3.987-1.199-7.096-3.597-9.338-2.397-2.232-5.595-3.314-9.581-3.226-4.23.078-8.256 1.462-12.077 4.142v44.759h-8.909v-45.86c5.127-3.733 9.845-6.17 14.153-7.31 4.065-1.063 7.652-1.59 10.742-1.59 2.115 0 4.103.206 5.974.615 3.5.809 6.346 2.31 8.539 4.513 2.446 2.437 3.665 5.36 3.665 8.782v40.85z" fill="#646464"/><path d="M60.51 6.398c-4.583.021-8.96.412-12.812 1.094-11.347 2.004-13.407 6.2-13.407 13.937v10.219h26.813v3.406H24.229c-7.793 0-14.616 4.684-16.75 13.594-2.462 10.213-2.571 16.586 0 27.25 1.906 7.938 6.457 13.594 14.25 13.594h9.219v-12.25c0-8.85 7.657-16.657 16.75-16.657h26.78c7.456 0 13.407-6.138 13.407-13.625V21.43c0-7.267-6.13-12.726-13.406-13.938-4.606-.767-9.385-1.115-13.969-1.094zm-14.5 8.219c2.77 0 5.031 2.298 5.031 5.125 0 2.816-2.261 5.093-5.03 5.093-2.78 0-5.032-2.277-5.032-5.093 0-2.827 2.252-5.125 5.031-5.125z" fill="url(#d)"/><path d="M91.229 35.054V46.96c0 9.231-7.826 17-16.75 17H47.698c-7.336 0-13.407 6.279-13.407 13.625v25.532c0 7.266 6.319 11.54 13.407 13.625 8.487 2.495 16.626 2.946 26.78 0 6.751-1.955 13.407-5.888 13.407-13.625V92.898H61.104v-3.406h40.187c7.793 0 10.697-5.436 13.407-13.594 2.799-8.399 2.68-16.476 0-27.25-1.926-7.757-5.604-13.594-13.407-13.594H91.23zM76.166 99.71c2.78 0 5.032 2.278 5.032 5.094 0 2.827-2.252 5.125-5.032 5.125-2.77 0-5.03-2.298-5.03-5.125 0-2.816 2.26-5.094 5.03-5.094z" fill="url(#e)"/><path style="line-height:125%" d="M463.554 26.91h1.562v-9.797h3.7v-1.168h-8.962v1.168h3.7v9.796m6.647 0h1.335v-8.947l2.896 8.946h1.486l3.018-8.915v8.916h1.456V15.945h-1.926l-3.298 9.393-2.813-9.393H470.2V26.91" font-size="15.164" font-weight="400" fill="#646464" font-family="Bitstream Vera Sans"/><path transform="matrix(.73406 0 0 .80952 16.25 27.01)" d="M110.467 132.286a48.948 8.607 0 1 1-97.896 0 48.948 8.607 0 1 1 97.896 0z" opacity=".444" fill="url(#f)" stroke-width="20"/></svg>