<svg height="120" viewBox="0 0 432 90" width="576" xmlns="http://www.w3.org/2000/svg" xmlns:xlink="http://www.w3.org/1999/xlink"><defs><style>*{stroke-linecap:butt;stroke-linejoin:round}</style></defs><g id="figure_1"><path d="M0 90h432V0H0z" fill="#fff" id="patch_1"/><g id="axes_1"><path d="M194.4 81h69.12V9H194.4z" fill="#fff" id="patch_2"/><path clip-path="url(#p65e1c8b035)" d="M197.542 45h6.445V19.8h-6.445z" fill="#1f77b4" id="patch_3"/><path clip-path="url(#p65e1c8b035)" d="M205.598 54.6h6.445V45h-6.445z" fill="#1f77b4" id="patch_4"/><path clip-path="url(#p65e1c8b035)" d="M213.654 45h6.444V31.8h-6.444z" fill="#1f77b4" id="patch_5"/><path clip-path="url(#p65e1c8b035)" d="M221.71 45h6.444V15h-6.444z" fill="#1f77b4" id="patch_6"/><path clip-path="url(#p65e1c8b035)" d="M229.766 70.2h6.444V45h-6.444z" fill="#1f77b4" id="patch_7"/><path clip-path="url(#p65e1c8b035)" d="M237.822 51h6.444v-6h-6.444z" fill="#1f77b4" id="patch_8"/><path clip-path="url(#p65e1c8b035)" d="M245.877 69h6.445V45h-6.445z" fill="#1f77b4" id="patch_9"/><path clip-path="url(#p65e1c8b035)" d="M253.933 45h6.445V27h-6.445z" fill="#1f77b4" id="patch_10"/><path d="M194.4 81V9" fill="none" stroke="#000" stroke-linecap="square" id="patch_11"/><path d="M263.52 81V9" fill="none" stroke="#000" stroke-linecap="square" id="patch_12"/><path d="M194.4 81h69.12" fill="none" stroke="#000" stroke-linecap="square" id="patch_13"/><path d="M194.4 9h69.12" fill="none" stroke="#000" stroke-linecap="square" id="patch_14"/></g><g id="axes_2"><path d="M272.16 81h69.12V9h-69.12z" fill="#fff" id="patch_15"/><path clip-path="url(#p4dc94feb3b)" d="M275.302 28.259l8.976-15.986 8.977 65.454 8.977-3.725 8.976 1.461 8.977-53.33 8.977 33.825 8.976 5.34" fill="none" stroke="#1f77b4" stroke-linecap="square" stroke-width="1.5" id="line2d_1"/><path clip-path="url(#p4dc94feb3b)" d="M275.302 61.598l8.976 3.283 8.977 7.923 8.977-27.712 8.976 7.468 8.977 16.268 8.977-48.126 8.976 12.675" fill="none" stroke="#ff7f0e" stroke-linecap="square" stroke-width="1.5" id="line2d_2"/><path clip-path="url(#p4dc94feb3b)" d="M275.302 61.03l8.976-7.693 8.977 17.238 8.977-45.263 8.976 34.324 8.977-44.12 8.977 2.762 8.976-2.573" fill="none" stroke="#2ca02c" stroke-linecap="square" stroke-width="1.5" id="line2d_3"/><path clip-path="url(#p4dc94feb3b)" d="M275.302 24.672l8.976.08 8.977 29.613 8.977-31.618 8.976 20.383 8.977 13.663 8.977-20.445 8.976-13.914" fill="none" stroke="#d62728" stroke-linecap="square" stroke-width="1.5" id="line2d_4"/><path d="M272.16 81V9" fill="none" stroke="#000" stroke-linecap="square" id="patch_16"/><path d="M341.28 81V9" fill="none" stroke="#000" stroke-linecap="square" id="patch_17"/><path d="M272.16 81h69.12" fill="none" stroke="#000" stroke-linecap="square" id="patch_18"/><path d="M272.16 9h69.12" fill="none" stroke="#000" stroke-linecap="square" id="patch_19"/></g><g id="axes_3"><path d="M349.92 81h69.12V9h-69.12z" fill="#fff" id="patch_20"/><g id="PolyCollection_1"><defs><path d="M353.062-31.491V-9h62.836v-13.166l-6.982-7.131-6.981 14.263-6.982-10.423-6.982 6.034-6.982-9.874-6.982 4.388-6.982-10.971-6.981 18.103-6.982-13.714z" id="m81de97919c"/></defs><g clip-path="url(#pfceed726e3)"><use xlink:href="#m81de97919c" y="90" fill="#1f77b4"/></g></g><g id="PolyCollection_2"><defs><path d="M353.062-56.726v25.235l6.982 13.714 6.981-18.103 6.982 10.971 6.982-4.388 6.982 9.874 6.982-6.034 6.982 10.423 6.981-14.263 6.982 7.131v-19.2l-6.982-3.291-6.981 7.68-6.982 4.937-6.982-.549-6.982-14.811-6.982 9.874-6.982-3.84-6.981 6.583-6.982-21.943z" id="maaf380e772"/></defs><g clip-path="url(#pfceed726e3)"><use xlink:href="#maaf380e772" y="90" fill="#ff7f0e"/></g></g><g id="PolyCollection_3"><defs><path d="M353.062-77.571v20.845l6.982 21.943 6.981-6.583 6.982 3.84 6.982-9.874 6.982 14.811 6.982.549 6.982-4.937 6.981-7.68 6.982 3.291V-58.92l-6.982-5.486-6.981 14.812-6.982 8.777-6.982 1.646-6.982-11.52-6.982 1.097-6.982-8.229-6.981 1.646-6.982-21.394z" id="m31c02dcfcb"/></defs><g clip-path="url(#pfceed726e3)"><use xlink:href="#m31c02dcfcb" y="90" fill="#2ca02c"/></g></g><path d="M349.92 81V9" fill="none" stroke="#000" stroke-linecap="square" id="patch_21"/><path d="M419.04 81V9" fill="none" stroke="#000" stroke-linecap="square" id="patch_22"/><path d="M349.92 81h69.12" fill="none" stroke="#000" stroke-linecap="square" id="patch_23"/><path d="M349.92 9h69.12" fill="none" stroke="#000" stroke-linecap="square" id="patch_24"/></g><g id="text_1"><defs><path d="M18.11 8.203v-29H9.077v75.484h9.031v-8.296q2.844 4.875 7.157 7.234Q29.594 56 35.594 56q9.968 0 16.187-7.906 6.235-7.907 6.235-20.797T51.78 6.484q-6.218-7.906-16.187-7.906-6 0-10.328 2.375-4.313 2.375-7.157 7.25m30.578 19.094q0 9.906-4.078 15.547-4.078 5.64-11.203 5.64-7.14 0-11.218-5.64-4.079-5.64-4.079-15.547 0-9.906 4.078-15.547 4.079-5.64 11.22-5.64 7.124 0 11.202 5.64t4.078 15.547" id="DejaVuSans-70"/><path d="M34.281 27.484q-10.89 0-15.093-2.484-4.204-2.484-4.204-8.5 0-4.781 3.157-7.594 3.156-2.797 8.562-2.797 7.485 0 12 5.297 4.516 5.297 4.516 14.078v2zm17.922 3.72V0H43.22v8.297Q40.14 3.328 35.547.953q-4.594-2.375-11.234-2.375-8.391 0-13.36 4.719Q6 8.016 6 15.922q0 9.219 6.172 13.906 6.187 4.688 18.437 4.688h12.61v.89q0 6.203-4.078 9.594-4.078 3.39-11.453 3.39-4.688 0-9.141-1.124-4.438-1.125-8.531-3.375v8.312q4.921 1.906 9.562 2.844 4.64.953 9.031.953 11.875 0 17.735-6.156 5.86-6.14 5.86-18.64" id="DejaVuSans-61"/><path d="M54.89 33.016V0h-8.984v32.719q0 7.765-3.031 11.61-3.031 3.858-9.078 3.858-7.281 0-11.484-4.64-4.204-4.625-4.204-12.64V0H9.08v54.688h9.03v-8.5q3.235 4.937 7.594 7.374Q30.078 56 35.797 56q9.422 0 14.25-5.828 4.844-5.828 4.844-17.156" id="DejaVuSans-6e"/><path d="M45.406 46.39v29.594h8.985V0h-8.985v8.203Q42.578 3.328 38.25.953q-4.313-2.375-10.375-2.375-9.906 0-16.14 7.906-6.22 7.922-6.22 20.813 0 12.89 6.22 20.797Q17.968 56 27.874 56q6.063 0 10.375-2.375 4.328-2.36 7.156-7.234m-30.61-19.094q0-9.906 4.079-15.547 4.078-5.64 11.203-5.64 7.125 0 11.219 5.64 4.11 5.64 4.11 15.547 0 9.906-4.11 15.547-4.094 5.64-11.219 5.64-7.125 0-11.203-5.64-4.078-5.64-4.078-15.547" id="DejaVuSans-64"/><path d="M44.281 53.078v-8.5q-3.797 1.953-7.906 2.922-4.094.984-8.5.984-6.688 0-10.031-2.047-3.344-2.046-3.344-6.156 0-3.125 2.39-4.906 2.391-1.781 9.626-3.39l3.078-.688q9.562-2.047 13.593-5.781 4.032-3.735 4.032-10.422 0-7.625-6.032-12.078-6.03-4.438-16.578-4.438-4.39 0-9.156.86Q10.688.296 5.422 2v9.281q4.984-2.594 9.812-3.89 4.829-1.282 9.579-1.282 6.343 0 9.75 2.172 3.421 2.172 3.421 6.125 0 3.656-2.468 5.61-2.453 1.953-10.813 3.765l-3.125.735q-8.344 1.75-12.062 5.39-3.704 3.64-3.704 9.985 0 7.718 5.47 11.906Q16.75 56 26.811 56q4.97 0 9.36-.734 4.406-.72 8.11-2.188" id="DejaVuSans-73"/></defs><g transform="matrix(.4 0 0 -.4 21.6 45)"><use xlink:href="#DejaVuSans-70"/><use x="63.477" xlink:href="#DejaVuSans-61"/><use x="124.756" xlink:href="#DejaVuSans-6e"/><use x="188.135" xlink:href="#DejaVuSans-64"/><use x="251.611" xlink:href="#DejaVuSans-61"/><use x="312.891" xlink:href="#DejaVuSans-73"/></g></g><g id="text_2"><defs><path d="M8.406-14.313q2.094-3.609 7.313-3.609 4.734 0 8.203 3.328 3.469 3.313 5.594 8.031 2.125 4.704 3.297 9.641-4.438-4.203-9.626-4.203-3.953 0-6.734 1.36-2.781 1.374-4.328 4.077-1.531 2.72-1.531 6.579 0 3.265.875 6.703.89 3.453 2.469 7.672 1.593 4.234 2.765 7.359 1.313 3.656 1.313 6 0 2.984-2.188 2.984-3.969 0-6.531-4.078-2.563-4.078-3.781-9.11-.188-.64-.829-.64H3.516q-.829 0-.829.938V29q1.61 5.969 4.922 10.578 3.329 4.61 8.407 4.61 3.562 0 6.03-2.344 2.47-2.344 2.47-5.953 0-1.86-.828-3.907-.438-1.218-2-5.328-1.563-4.093-2.407-6.781-.828-2.688-1.36-5.281-.53-2.578-.53-5.172 0-3.313 1.406-5.61 1.422-2.296 4.5-2.296 6.203 0 11.125 7.562L42 39.891q.328 1.328 1.547 2.265 1.234.953 2.64.953 1.22 0 2.126-.78.906-.782.906-2.048 0-.578-.094-.781L39.203-.297q-1.312-5.125-4.828-9.812-3.516-4.688-8.469-7.547-4.953-2.86-10.328-2.86-2.594 0-5.14 1.016-2.532 1-4.094 3-1.563 2-1.563 4.688 0 2.734 1.61 4.734 1.625 2 4.296 2 1.626 0 2.72-1 1.093-1 1.093-2.61 0-2.296-1.719-4-1.703-1.718-3.984-1.718-.11.047-.203.078-.094.015-.188.015" id="Cmmi10-79"/><path d="M7.813 7.172q0 1.86.78 3.906l8.11 21.547q1.313 3.656 1.313 6 0 2.984-2.188 2.984-3.969 0-6.531-4.078-2.563-4.078-3.781-9.11-.188-.64-.829-.64H3.516q-.829 0-.829.938V29q1.61 5.969 4.922 10.578 3.329 4.61 8.407 4.61 3.562 0 6.03-2.344 2.47-2.344 2.47-5.953 0-1.86-.828-3.907L15.578 10.5q-1.375-3.328-1.375-6 0-2.984 2.297-2.984 3.906 0 6.516 4.171 2.625 4.172 3.687 9.016.203.578.781.578h1.235q.39 0 .625-.265.25-.266.25-.61 0-.094-.094-.297-1.375-5.656-4.766-10.453-3.39-4.781-8.422-4.781-3.515 0-6.015 2.422-2.485 2.422-2.485 5.875m11.282 53.422q0 2.11 1.75 3.812 1.765 1.703 3.86 1.703 1.718 0 2.812-1.046 1.093-1.047 1.093-2.657 0-2.25-1.78-3.937-1.782-1.688-3.923-1.688-1.61 0-2.718 1.094-1.094 1.11-1.094 2.719" id="Cmmi10-69"/><path d="M6.203 8.11q0 1.468.297 2.78l7.219 28.704h-10.5q-1.016 0-1.016 1.328.39 2.187 1.313 2.187h11.078l4.015 16.313q.391 1.328 1.563 2.25 1.172.922 2.625.922 1.281 0 2.125-.766.86-.75.86-2.016 0-.296-.032-.468-.016-.157-.063-.36l-4-15.875h10.297q1.032 0 1.032-1.312-.063-.25-.203-.844-.141-.578-.391-.969-.25-.39-.734-.39H20.797l-7.172-28.907q-.734-2.828-.734-4.874 0-4.297 2.937-4.297 4.39 0 7.781 4.125t5.203 9.062q.391.578.782.578h1.218q.391 0 .625-.265.25-.266.25-.61 0-.203-.093-.297-2.203-6.046-6.407-10.64Q21-1.125 15.579-1.125q-3.953 0-6.672 2.578Q6.203 4.047 6.203 8.11" id="Cmmi10-74"/><path d="M7.516 13.281q-.829 0-1.375.625-.532.64-.532 1.375 0 .828.532 1.406.546.594 1.375.594h62.797q.734 0 1.265-.593.547-.579.547-1.407 0-.734-.547-1.375-.531-.625-1.266-.625zm0 19.438q-.829 0-1.375.578-.532.594-.532 1.422 0 .734.532 1.36.546.64 1.375.64h62.797q.734 0 1.265-.64.547-.626.547-1.36 0-.828-.547-1.422-.531-.578-1.266-.578z" id="Cmr10-3d"/><path d="M2.688-19.39q-.297 0-.547.343-.235.344-.235.64l15.375 61.813q1.328 4.985 3.86 9.672 2.547 4.688 6.375 8.719t8.422 6.375q4.593 2.344 9.765 2.344 3.719 0 6.719-1.641 3-1.64 4.734-4.594 1.735-2.953 1.735-6.656 0-3.578-1.375-6.828-1.36-3.234-3.813-6.047-2.437-2.813-5.219-4.563 1.61-1.03 2.875-2.624 1.282-1.579 2.063-3.313.781-1.734 1.219-3.86.437-2.124.437-3.968 0-5.125-2.203-10.11-2.188-4.984-5.984-9.046-3.782-4.047-8.672-6.422-4.875-2.36-10-2.36-5.61 0-10.11 3.079-4.484 3.078-6.187 8.343L4.687-18.797q0-.594-.78-.594zM28.422 1.218q4.484 0 8.125 2.953 3.64 2.953 6 7.422 2.375 4.469 3.61 9.469 1.25 5.015 1.25 9.109 0 5.078-2.923 8.015-3.422-1.265-6.687-1.265-7.906 0-7.906 2.672 0 3.515 9.03 3.515 3.22 0 5.907-1.015 2.14 1.656 3.89 4.875 1.766 3.234 2.673 6.75.906 3.515.906 6.578 0 3.281-1.734 5.453-1.735 2.172-5.047 2.172-6.11 0-11.36-3.766-5.25-3.75-8.86-9.5-3.608-5.734-5.171-11.828l-5.531-22.125q-.531-2.297-.672-5.125 0-6.25 4.094-10.312 4.109-4.047 10.406-4.047m4.484 38.672q1.516-.391 4.985-.391 1.703 0 3.422.594-.094.093-.391.093-1.078.297-2.297.297-4.547 0-5.719-.593" id="Cmmi10-af"/><path d="M3.516 5.422q-.641.187-.641.969l12.219 45.422q.578 1.843 1.984 2.968 1.422 1.125 3.235 1.125 2.343 0 4.125-1.547 1.78-1.53 1.78-3.875 0-1.015-.53-2.297L7.625 4.984q-.344-.687-.938-.687-.53 0-1.687.484-1.14.5-1.484.64" id="Cmsy10-30"/><path d="M7.813 2.875q1.765-1.36 4.984-1.36 3.125 0 5.515 3 2.391 3 3.266 6.563l4.547 17.735q1.078 4.828 1.078 6.593 0 2.485-1.39 4.344-1.391 1.86-3.891 1.86-3.172 0-5.953-1.985-2.781-1.984-4.688-5.031-1.906-3.047-2.687-6.172-.188-.64-.781-.64h-1.22q-.78 0-.78.937V29q.968 3.719 3.312 7.25 2.344 3.547 5.734 5.734 3.407 2.203 7.266 2.203 3.656 0 6.61-1.953 2.953-1.953 4.171-5.312 1.719 3.062 4.375 5.156 2.657 2.11 5.828 2.11 2.157 0 4.391-.766 2.25-.75 3.672-2.313 1.422-1.562 1.422-3.906 0-2.531-1.64-4.375Q49.311 31 46.78 31q-1.61 0-2.687 1.031-1.078 1.032-1.078 2.594 0 2.094 1.437 3.672 1.453 1.594 3.453 1.89-1.812 1.422-4.984 1.422-3.219 0-5.594-2.984-2.36-2.984-3.344-6.64l-4.39-17.672q-1.078-4.016-1.078-6.594 0-2.547 1.437-4.375 1.438-1.828 3.844-1.828 4.687 0 8.36 4.125 3.687 4.125 4.859 9.062.203.578.78.578h1.235q.39 0 .625-.265.25-.266.25-.61 0-.094-.093-.297-1.422-5.953-5.97-10.593-4.53-4.641-10.25-4.641-3.656 0-6.609 1.969-2.953 1.984-4.187 5.36-1.563-2.938-4.328-5.141-2.75-2.188-5.875-2.188-2.14 0-4.422.766-2.266.75-3.688 2.312-1.406 1.563-1.406 3.953 0 2.344 1.625 4.266 1.64 1.937 4.094 1.937 1.656 0 2.781-1 1.125-1 1.125-2.609 0-2.11-1.406-3.672-1.39-1.562-3.485-1.953" id="Cmmi10-78"/><path d="M7.516 23q-.829 0-1.375.625-.532.64-.532 1.375 0 .734.532 1.36.546.64 1.375.64h29.406v29.5q0 .781.578 1.281.594.516 1.422.516.734 0 1.36-.516.64-.5.64-1.281V27h29.39q.735 0 1.266-.64.547-.626.547-1.36 0-.734-.547-1.375Q71.047 23 70.312 23h-29.39V-6.5q0-.781-.64-1.281-.626-.516-1.36-.516-.828 0-1.422.516-.578.5-.578 1.281V23z" id="Cmr10-2b"/><path d="M2.781-18.797q0 .578.094.781l14.703 59.032q.438 1.422 1.578 2.297 1.157.874 2.625.874 1.266 0 2.14-.765.892-.75.892-2.016 0-.297-.032-.468-.031-.172-.078-.36l-5.906-23.39q-.969-4.157-.969-7.172 0-3.72 1.75-6.11 1.766-2.39 5.328-2.39 7.266 0 12.797 9.078.047.094.063.14.03.063.03.157l7.22 29q.343 1.328 1.562 2.265 1.219.953 2.64.953 1.173 0 2.079-.78.906-.782.906-2.048 0-.578-.11-.781l-7.171-28.813q-.734-2.828-.734-4.874 0-4.297 2.937-4.297 3.125 0 4.703 3.859 1.594 3.86 2.766 9.328.187.578.828.578h1.172q.39 0 .656-.312.266-.313.266-.656-1.75-6.985-3.828-11.22-2.079-4.218-6.766-4.218-3.313 0-5.875 1.906-2.563 1.906-3.344 5.125-2.5-3.125-5.844-5.078-3.343-1.953-7.047-1.953-6.25 0-9.828 2.938l-5.078-20.22q-.281-1.421-1.453-2.296-1.172-.875-2.64-.875-1.22 0-2.125.765-.907.75-.907 2.016" id="Cmmi10-b9"/><path d="M12.313 14.11q0-3.36 1.218-6.25 1.219-2.876 3.672-4.61Q19.672 1.516 23 1.516q2.25 0 4.781.968 2.547.985 4.719 2.157 2.172 1.171 2.219 1.171.531 0 .843-.609.329-.61.329-1.203 0-.531-.297-.672-6.25-4.453-12.688-4.453-5.281 0-9.531 2.469-4.25 2.468-6.563 6.86Q4.5 12.593 4.5 17.827q0 5.172 2.094 9.828 2.093 4.672 5.797 8.14 3.718 3.47 8.406 5.392 4.687 1.921 9.812 1.921h5.672q1.516 0 1.516-1.5 0-.843-.563-1.437-.562-.578-1.343-.578h-5.47q-4 0-7.25-1.766-3.25-1.75-5.452-4.875-2.188-3.125-3.407-7.078h17.672q.688 0 1.094-.422.422-.406.422-1.031 0-.844-.547-1.438-.531-.578-1.36-.578H13.376q-1.063-5.172-1.063-8.297" id="Cmmi10-b2"/></defs><g transform="matrix(.16 0 0 -.16 21.6 72)" fill="#5a89a4"><use transform="translate(0 .602)" xlink:href="#Cmmi10-79"/><use transform="matrix(.7 0 0 .7 49.023 -16.405)" xlink:href="#Cmmi10-69"/><use transform="matrix(.7 0 0 .7 73.12 -16.405)" xlink:href="#Cmmi10-74"/><use transform="translate(122.315 .602)" xlink:href="#Cmr10-3d"/><use transform="translate(217.559 .602)" xlink:href="#Cmmi10-af"/><use transform="matrix(.7 0 0 .7 285.885 38.866)" xlink:href="#Cmsy10-30"/><use transform="translate(311.506 .602)" xlink:href="#Cmmi10-78"/><use transform="matrix(.7 0 0 .7 368.586 -16.405)" xlink:href="#Cmmi10-69"/><use transform="matrix(.7 0 0 .7 392.683 -16.405)" xlink:href="#Cmmi10-74"/><use transform="translate(441.877 .602)" xlink:href="#Cmr10-2b"/><use transform="translate(537.121 .602)" xlink:href="#Cmmi10-b9"/><use transform="matrix(.7 0 0 .7 597.327 -16.405)" xlink:href="#Cmmi10-69"/><use transform="translate(645.36 .602)" xlink:href="#Cmr10-2b"/><use transform="translate(740.603 .602)" xlink:href="#Cmmi10-b2"/><use transform="matrix(.7 0 0 .7 781.082 -16.405)" xlink:href="#Cmmi10-69"/><use transform="matrix(.7 0 0 .7 805.178 -16.405)" xlink:href="#Cmmi10-74"/></g></g></g><defs><clipPath id="p65e1c8b035"><path d="M194.4 9h69.12v72H194.4z"/></clipPath><clipPath id="p4dc94feb3b"><path d="M272.16 9h69.12v72h-69.12z"/></clipPath><clipPath id="pfceed726e3"><path d="M349.92 9h69.12v72h-69.12z"/></clipPath></defs></svg>