<svg id="Layer_1" xmlns="http://www.w3.org/2000/svg" viewBox="0 0 420.022 208.321"><style>.st0{fill:#43af49}</style><path class="st0" d="M.146 205.69l22.731-49.189c.219-.439.585-.805 1.243-.805h.731c.731 0 1.023.366 1.243.805l22.511 49.189c.439.95-.146 1.9-1.242 1.9h-6.359c-1.097 0-1.608-.439-2.12-1.461l-3.581-7.894H13.449l-3.582 7.894c-.292.731-.95 1.461-2.119 1.461H1.389c-1.096.001-1.681-.949-1.243-1.9zm31.575-15.567l-7.309-16.08h-.219l-7.163 16.08h14.691zM55.253 157.013c0-.731.658-1.316 1.389-1.316h1.827l30.405 32.306h.073v-30.186c0-.731.584-1.388 1.389-1.388h6.724c.731 0 1.389.658 1.389 1.388v49.19c0 .731-.658 1.315-1.389 1.315h-1.754l-30.551-33.548h-.073v31.428c0 .732-.585 1.389-1.389 1.389h-6.651c-.731 0-1.389-.658-1.389-1.389v-49.189zM105.096 205.69l22.731-49.189c.219-.439.585-.805 1.243-.805h.731c.731 0 1.023.366 1.243.805l22.511 49.189c.439.95-.146 1.9-1.242 1.9h-6.359c-1.097 0-1.608-.439-2.12-1.461l-3.581-7.894h-21.854l-3.582 7.894c-.292.731-.95 1.461-2.119 1.461h-6.359c-1.097.001-1.682-.949-1.243-1.9zm31.574-15.567l-7.309-16.08h-.219l-7.163 16.08h14.691zM182.495 155.697c7.382 0 12.719 2.339 17.688 6.798.658.585.658 1.462.073 2.047l-4.458 4.605c-.512.584-1.243.584-1.827 0-3.07-2.704-7.163-4.312-11.256-4.312-9.355 0-16.299 7.82-16.299 17.03 0 9.136 7.017 16.883 16.372 16.883 4.385 0 8.113-1.681 11.183-4.166.584-.512 1.388-.439 1.827 0l4.531 4.678c.584.511.439 1.461-.073 1.974-4.97 4.824-11.256 7.089-17.761 7.089-14.617 0-26.385-11.621-26.385-26.239a26.328 26.328 0 0 1 26.385-26.387zM232.194 155.697c14.617 0 26.312 11.768 26.312 26.385 0 14.618-11.695 26.239-26.312 26.239-14.618 0-26.239-11.621-26.239-26.239 0-14.617 11.621-26.385 26.239-26.385zm0 43.123c9.209 0 16.81-7.528 16.81-16.737s-7.601-16.884-16.81-16.884-16.737 7.675-16.737 16.884c0 9.208 7.528 16.737 16.737 16.737zM268.077 157.013c0-.731.658-1.316 1.388-1.316h1.827l30.406 32.306h.073v-30.186c0-.731.584-1.388 1.388-1.388h6.724c.731 0 1.389.658 1.389 1.388v49.19c0 .731-.659 1.315-1.389 1.315h-1.754l-30.551-33.548h-.073v31.428c0 .732-.585 1.389-1.389 1.389h-6.651c-.731 0-1.388-.658-1.388-1.389v-49.189zM324.571 157.817c0-.731.584-1.388 1.315-1.388h17.323c14.106 0 25.655 11.474 25.655 25.507 0 14.179-11.548 25.655-25.655 25.655h-17.323c-.731 0-1.315-.658-1.315-1.389v-48.385zm17.761 40.857c9.502 0 16.445-7.163 16.445-16.738 0-9.501-6.943-16.664-16.445-16.664H334v33.402h8.332zM371.417 205.69l22.731-49.189c.219-.439.584-.805 1.242-.805h.732c.731 0 1.022.366 1.242.805l22.512 49.189c.439.95-.146 1.9-1.242 1.9h-6.36c-1.096 0-1.608-.439-2.119-1.461l-3.582-7.894H384.72l-3.581 7.894c-.293.731-.95 1.461-2.12 1.461h-6.359c-1.096.001-1.682-.949-1.243-1.9zm31.575-15.567l-7.309-16.08h-.22l-7.162 16.08h14.691z"/><g><path class="st0" d="M160.609 81.169a84.938 84.938 0 0 0-5.196 13.11 85.09 85.09 0 0 0 14.204 2.635c.079-3.758.376-7.413.888-10.97a88.976 88.976 0 0 1-9.896-4.775zM179.902 32.757a83.943 83.943 0 0 0-8.274.559 84.372 84.372 0 0 0 1.474 8.274 43.5 43.5 0 0 1 6.783-8.721l.017-.112zM157.337 98.658a63.95 63.95 0 0 0 13.202 14.502c-.549-4.267-.863-8.419-.932-12.454a88.719 88.719 0 0 1-12.27-2.048zM189.828 3.429a63.367 63.367 0 0 0-13.96 6.788 89.787 89.787 0 0 1 9.659 2.266 89.737 89.737 0 0 1 4.301-9.054zM210.426 0c-2.453 0-4.869.153-7.25.423a90.709 90.709 0 0 1 9.651 7.733l2.53 2.334-2.481 2.387a84.288 84.288 0 0 0-5.969 6.39l-.096.11c-.022.024-.378.418-.971 1.141a43.675 43.675 0 0 1 4.585-.243c23.937 0 43.342 19.405 43.342 43.342 0 23.937-19.405 43.342-43.342 43.342a43.128 43.128 0 0 1-22.657-6.392c-3.252.361-6.523.55-9.797.55-1.521 0-3.043-.04-4.564-.118.099 4.93.568 10.041 1.408 15.34 10.162 6.877 22.416 10.894 35.61 10.894 35.134 0 63.616-28.482 63.616-63.616C274.043 28.482 245.561 0 210.426 0z"/><path class="st0" d="M201.992 15.037a93.42 93.42 0 0 1 3.912-4.351 84.05 84.05 0 0 0-9.42-6.943 83.945 83.945 0 0 0-5.292 10.601 89.709 89.709 0 0 1 8.4 3.585c1.264-1.623 2.147-2.614 2.4-2.892zM166.281 34.116a84.29 84.29 0 0 0-13.759 3.726 84.573 84.573 0 0 0 6.66 13.26 89.29 89.29 0 0 1 9.258-5.828 89.74 89.74 0 0 1-2.159-11.158zM157.995 58.13a84.554 84.554 0 0 0-9.597 9.151 84.848 84.848 0 0 0 10.522 7.851 89.064 89.064 0 0 1 5.64-8.759 89.318 89.318 0 0 1-6.565-8.243zM174.163 87.345l-.016-.006a87.32 87.32 0 0 0-.739 9.865c3.199.172 6.402.16 9.593-.029a43.592 43.592 0 0 1-8.838-9.83zM183.454 18.06a83.702 83.702 0 0 0-12.205-2.547 84.362 84.362 0 0 0-.133 12.422 89.612 89.612 0 0 1 9.792-.584 89.952 89.952 0 0 1 2.546-9.291zM189.108 19.899a84.027 84.027 0 0 0-2.06 7.23 43.11 43.11 0 0 1 8.906-4.37 83.532 83.532 0 0 0-6.846-2.86zM147.389 72.091a63.117 63.117 0 0 0 4.986 17.538 89.218 89.218 0 0 1 4.511-10.674 89.101 89.101 0 0 1-9.497-6.864zM165.634 18.451a63.867 63.867 0 0 0-9.872 12.627 89.631 89.631 0 0 1 9.988-2.36 89.423 89.423 0 0 1-.116-10.267zM161.862 55.169a84.634 84.634 0 0 0 5.265 6.76c.153-3.979.837-7.82 1.992-11.454a84.477 84.477 0 0 0-7.257 4.694zM162.637 77.345a84.906 84.906 0 0 0 8.277 4.08 43.03 43.03 0 0 1-3.4-11.756 84.68 84.68 0 0 0-4.877 7.676zM155.291 54.057a89.397 89.397 0 0 1-5.401-10.009 63.493 63.493 0 0 0-3.034 17.742 89.482 89.482 0 0 1 8.435-7.733z"/></g><g><path class="st0" d="M415.359 155.763c2.375 0 4.317 1.943 4.317 4.317s-1.942 4.306-4.317 4.306-4.306-1.931-4.306-4.306 1.931-4.317 4.306-4.317zm0 7.795a3.474 3.474 0 0 0 3.479-3.478 3.466 3.466 0 0 0-3.479-3.478 3.473 3.473 0 0 0-3.478 3.478 3.48 3.48 0 0 0 3.478 3.478zm-1.547-5.457c0-.12.096-.228.228-.228h1.775c.743 0 1.475.503 1.475 1.415 0 .852-.551 1.188-.911 1.319.216.444.432.899.636 1.331.084.156-.036.324-.204.324h-.539c-.097 0-.181-.084-.217-.168l-.6-1.416h-.743v1.355c0 .12-.096.228-.228.228h-.444a.228.228 0 0 1-.228-.228v-3.932zm1.942 1.787c.36 0 .601-.264.601-.587 0-.348-.24-.588-.601-.588h-1.067v1.175h1.067z"/></g></svg>