<svg xmlns="http://www.w3.org/2000/svg" height="3in" viewBox="0 0 900 216" width="1200" id="svg2"><defs id="defs4" stroke-linejoin="round" stroke-miterlimit="100000"><style id="style6">*{stroke-linecap:butt;stroke-linejoin:round;stroke-miterlimit:100000}</style><clipPath id="p1a558b8dcd-1"><path d="M54 73.26a33.662 33.662 0 0 0 23.801-57.461A33.662 33.662 0 0 0 20.34 39.6 33.662 33.662 0 0 0 54 73.26z" id="path408-5"/></clipPath><clipPath id="clipPath5283"><path d="M54 73.26a33.662 33.662 0 0 0 23.801-57.461A33.662 33.662 0 0 0 20.34 39.6 33.662 33.662 0 0 0 54 73.26z" id="path5285"/></clipPath><clipPath id="clipPath5287"><path d="M54 73.26a33.662 33.662 0 0 0 23.801-57.461A33.662 33.662 0 0 0 20.34 39.6 33.662 33.662 0 0 0 54 73.26z" id="path5289"/></clipPath><clipPath id="clipPath5291"><path d="M54 73.26a33.662 33.662 0 0 0 23.801-57.461A33.662 33.662 0 0 0 20.34 39.6 33.662 33.662 0 0 0 54 73.26z" id="path5293"/></clipPath><clipPath id="clipPath5295"><path d="M54 73.26a33.662 33.662 0 0 0 23.801-57.461A33.662 33.662 0 0 0 20.34 39.6 33.662 33.662 0 0 0 54 73.26z" id="path5297"/></clipPath><clipPath id="clipPath5299"><path d="M54 73.26a33.662 33.662 0 0 0 23.801-57.461A33.662 33.662 0 0 0 20.34 39.6 33.662 33.662 0 0 0 54 73.26z" id="path5301"/></clipPath><clipPath id="clipPath5303"><path d="M54 73.26a33.662 33.662 0 0 0 23.801-57.461A33.662 33.662 0 0 0 20.34 39.6 33.662 33.662 0 0 0 54 73.26z" id="path5305"/></clipPath></defs><defs id="defs405"><clipPath id="p1a558b8dcd" stroke-linejoin="round" stroke-miterlimit="100000"><path d="M54 73.26a33.662 33.662 0 0 0 23.801-57.461A33.662 33.662 0 0 0 20.34 39.6 33.662 33.662 0 0 0 54 73.26z" id="path408"/></clipPath></defs><g transform="skewX(-4.253)" style="line-height:125%;text-align:center" id="text5400" font-weight="700" font-size="191.666" font-family="Calibri" letter-spacing="0" word-spacing="0" text-anchor="middle" stroke-miterlimit="100000" fill="#11557c" stroke-linejoin="round"><path d="M180.56 157.53q0 .936-.56 1.685-.562.655-1.872 1.123-1.31.468-3.557.655-2.246.281-5.709.281-3.556 0-5.802-.28-2.246-.188-3.65-.656-1.31-.468-1.872-1.123-.468-.749-.468-1.685v-49.507q0-4.211-.842-7.674-.749-3.463-2.433-5.896-1.591-2.527-4.118-3.837-2.433-1.404-5.896-1.404-4.211 0-8.516 3.276-4.305 3.275-9.359 9.545v55.497q0 .936-.561 1.685-.562.655-1.966 1.123-1.31.468-3.556.655-2.246.281-5.615.281-3.463 0-5.71-.28-2.245-.188-3.649-.656-1.31-.468-1.872-1.123-.561-.749-.561-1.685v-49.507q0-4.211-.843-7.674-.748-3.463-2.34-5.896-1.59-2.527-4.117-3.837-2.527-1.404-5.896-1.404-4.305 0-8.61 3.276-4.305 3.275-9.265 9.545v55.497q0 .936-.562 1.685-.561.655-1.965 1.123-1.31.468-3.556.655-2.246.281-5.709.281-3.463 0-5.709-.28-2.246-.188-3.65-.656-1.31-.468-1.871-1.123-.562-.749-.562-1.685V74.051q0-.936.468-1.591.468-.749 1.685-1.217 1.216-.468 3.088-.655 1.965-.28 4.866-.28 2.995 0 4.96.28 1.966.187 2.995.655 1.123.468 1.591 1.217.468.655.468 1.591v9.64q6.926-7.487 13.757-11.231 6.926-3.743 14.413-3.743 5.147 0 9.265 1.123 4.118 1.03 7.3 3.088 3.275 1.965 5.615 4.773 2.34 2.808 3.93 6.27 3.744-4.024 7.3-6.925 3.65-2.901 7.113-4.68 3.556-1.871 7.019-2.714 3.556-.935 7.206-.935 8.33 0 14.038 2.807 5.709 2.808 9.172 7.674 3.556 4.773 5.053 11.23 1.498 6.458 1.498 13.664v53.438z" style="-inkscape-font-specification:'Calibri Bold'" id="path4226"/><path d="M274.99 157.811q0 1.31-.936 2.06-.936.748-2.995 1.029-1.965.374-5.896.374-4.211 0-6.176-.374-1.872-.281-2.714-1.03-.75-.749-.75-2.059v-6.644q-5.146 5.521-11.791 8.61-6.551 3.088-14.6 3.088-6.644 0-12.26-1.778-5.521-1.685-9.639-5.054-4.024-3.463-6.27-8.516-2.246-5.054-2.246-11.792 0-7.3 2.807-12.634 2.901-5.429 8.517-8.891 5.708-3.557 14.131-5.241 8.423-1.685 19.56-1.685h8.142v-5.053q0-3.931-.842-6.832-.749-2.995-2.62-4.96-1.779-1.966-4.867-2.901-2.995-.936-7.487-.936-5.896 0-10.576 1.31-4.585 1.31-8.142 2.901-3.556 1.591-5.99 2.901-2.339 1.31-3.836 1.31-1.03 0-1.872-.655-.749-.655-1.31-1.871-.468-1.217-.749-2.995-.28-1.778-.28-3.93 0-2.902.467-4.587.468-1.684 1.778-2.994 1.31-1.404 4.586-2.995 3.276-1.685 7.674-3.088 4.399-1.404 9.546-2.247 5.241-.935 10.763-.935 9.826 0 16.752 1.965 7.019 1.872 11.51 5.896 4.493 3.93 6.552 10.2 2.059 6.271 2.059 14.881v56.152zm-23.116-35.75h-8.984q-5.71 0-9.733.842-4.025.843-6.551 2.527-2.527 1.685-3.744 4.118-1.123 2.34-1.123 5.428 0 5.24 3.276 8.236 3.369 2.994 9.265 2.994 4.96 0 9.078-2.526 4.211-2.527 8.516-7.394v-14.225z" style="-inkscape-font-specification:'Calibri Bold'" id="path4228"/><path d="M346.116 149.295q0 4.118-.562 6.364-.468 2.152-1.31 3.088-.842.842-2.527 1.591-1.59.655-3.837 1.123-2.152.562-4.773.842-2.526.281-5.147.281-7.019 0-12.166-1.778t-8.517-5.428q-3.369-3.743-4.96-9.359-1.59-5.615-1.59-13.289V89.96h-10.014q-1.779 0-2.715-2.152-.935-2.246-.935-7.393 0-2.714.187-4.586.28-1.872.748-2.901.468-1.123 1.124-1.591.748-.468 1.684-.468h9.92V52.245q0-.936.468-1.684.562-.749 1.872-1.217 1.404-.561 3.65-.749 2.34-.28 5.709-.28 3.462 0 5.708.28 2.34.188 3.65.75 1.31.467 1.872 1.216.562.748.562 1.684V70.87h18.155q.936 0 1.591.468.75.468 1.217 1.591.468 1.03.655 2.901.28 1.872.28 4.586 0 5.147-.935 7.393-.936 2.153-2.714 2.153h-18.25v39.213q0 6.832 2.153 10.294 2.153 3.37 7.674 3.37 1.872 0 3.37-.281 1.497-.375 2.62-.75 1.216-.467 1.965-.748.842-.374 1.497-.374.562 0 1.03.374.561.281.842 1.31.281.936.468 2.62.28 1.685.28 4.306z" style="-inkscape-font-specification:'Calibri Bold'" id="path4230"/><path d="M447.377 114.574q0 11.137-2.433 20.121-2.34 8.891-6.926 15.161t-11.417 9.64q-6.832 3.369-15.63 3.369-3.65 0-6.738-.749-2.994-.655-5.896-2.059-2.807-1.497-5.615-3.65-2.807-2.152-5.802-5.053v39.306q0 .936-.562 1.685-.561.749-1.965 1.216-1.31.562-3.556.843-2.246.28-5.71.28-3.462 0-5.708-.28-2.246-.281-3.65-.843-1.31-.467-1.872-1.216-.561-.749-.561-1.685V74.051q0-.936.468-1.591.468-.749 1.59-1.217 1.217-.468 3.09-.655 1.965-.28 4.866-.28 2.807 0 4.679.28 1.965.187 3.088.655 1.217.468 1.685 1.217.468.655.468 1.591v9.827q3.65-3.744 7.113-6.551 3.556-2.902 7.206-4.773 3.65-1.966 7.487-2.902 3.93-.935 8.329-.935 9.171 0 15.629 3.65 6.457 3.556 10.482 9.826 4.117 6.27 5.99 14.6 1.87 8.329 1.87 17.781zm-24.52 1.685q0-5.335-.842-10.201-.749-4.96-2.714-8.797-1.872-3.837-5.054-6.084-3.088-2.34-7.768-2.34-2.34 0-4.679.75-2.246.655-4.68 2.246-2.339 1.59-4.866 4.117-2.527 2.527-5.334 6.27v27.515q4.96 6.27 9.452 9.733 4.492 3.37 9.359 3.37 4.586 0 7.767-2.34 3.276-2.34 5.335-6.083 2.059-3.838 2.995-8.61 1.03-4.773 1.03-9.546z" style="-inkscape-font-specification:'Calibri Bold'" id="path4232"/><path d="M489.865 157.53q0 .936-.561 1.685-.562.655-1.966 1.123-1.31.468-3.556.655-2.246.281-5.709.281-3.462 0-5.708-.28-2.247-.188-3.65-.656-1.31-.468-1.872-1.123-.562-.749-.562-1.685V34.464q0-.936.562-1.685.561-.748 1.872-1.216 1.403-.562 3.65-.843 2.246-.28 5.708-.28 3.463 0 5.71.28 2.245.281 3.555.843 1.404.468 1.966 1.216.561.749.561 1.685V157.53z" style="-inkscape-font-specification:'Calibri Bold'" id="path4234"/><path d="M597.865 114.948q0 10.67-2.808 19.467-2.808 8.797-8.516 15.16-5.71 6.365-14.32 9.827-8.61 3.463-20.12 3.463-11.137 0-19.373-3.088-8.236-3.089-13.664-8.985-5.428-5.896-8.048-14.506t-2.62-19.653q0-10.669 2.807-19.466 2.901-8.89 8.61-15.161 5.709-6.364 14.225-9.827 8.61-3.462 20.122-3.462 11.23 0 19.466 3.088 8.235 2.995 13.57 8.89 5.428 5.897 8.048 14.507t2.62 19.746zm-24.24.936q0-6.176-1.029-11.324-.936-5.24-3.275-9.078-2.34-3.837-6.27-5.99-3.838-2.152-9.734-2.152-5.24 0-9.171 1.966-3.93 1.871-6.458 5.615-2.527 3.65-3.837 8.89-1.216 5.148-1.216 11.793 0 6.176 1.029 11.417 1.03 5.147 3.276 8.985 2.34 3.837 6.27 5.99 3.93 2.058 9.733 2.058 5.334 0 9.265-1.872 3.93-1.965 6.457-5.615 2.527-3.65 3.744-8.797 1.217-5.241 1.217-11.886z" style="-inkscape-font-specification:'Calibri Bold'" id="path4236"/><path d="M665.809 149.295q0 4.118-.562 6.364-.468 2.152-1.31 3.088-.842.842-2.527 1.591-1.59.655-3.837 1.123-2.153.562-4.773.842-2.527.281-5.147.281-7.02 0-12.167-1.778t-8.516-5.428q-3.37-3.743-4.96-9.359-1.591-5.615-1.591-13.289V89.96h-10.014q-1.778 0-2.714-2.152-.936-2.246-.936-7.393 0-2.714.187-4.586.281-1.872.75-2.901.467-1.123 1.122-1.591.749-.468 1.685-.468h9.92V52.245q0-.936.468-1.684.561-.749 1.872-1.217 1.403-.561 3.65-.749 2.34-.28 5.708-.28 3.463 0 5.71.28 2.339.188 3.649.75 1.31.467 1.872 1.216.561.748.561 1.684V70.87h18.156q.936 0 1.591.468.749.468 1.217 1.591.468 1.03.655 2.901.28 1.872.28 4.586 0 5.147-.935 7.393-.936 2.153-2.714 2.153h-18.25v39.213q0 6.832 2.153 10.294 2.152 3.37 7.674 3.37 1.872 0 3.369-.281 1.497-.375 2.62-.75 1.217-.467 1.966-.748.842-.374 1.497-.374.562 0 1.03.374.561.281.842 1.31.28.936.468 2.62.28 1.685.28 4.306z" style="-inkscape-font-specification:'Calibri Bold'" id="path4238"/><path d="M706.612 157.53q0 .936-.561 1.685-.562.655-1.965 1.123-1.31.468-3.557.655-2.246.281-5.708.281-3.463 0-5.71-.28-2.245-.188-3.65-.656-1.31-.468-1.87-1.123-.562-.749-.562-1.685V34.464q0-.936.561-1.685.562-.748 1.872-1.216 1.404-.562 3.65-.843 2.246-.28 5.709-.28 3.462 0 5.708.28 2.246.281 3.557.843 1.403.468 1.965 1.216.561.749.561 1.685V157.53z" style="-inkscape-font-specification:'Calibri Bold'" id="path4240"/><path d="M753.78 157.53q0 .936-.561 1.685-.562.655-1.966 1.123-1.31.468-3.556.655-2.246.281-5.709.281-3.462 0-5.708-.28-2.247-.188-3.65-.656-1.31-.468-1.872-1.123-.562-.749-.562-1.685V74.238q0-.936.562-1.59.561-.75 1.872-1.217 1.403-.562 3.65-.843 2.246-.28 5.708-.28 3.463 0 5.71.28 2.245.281 3.555.843 1.404.468 1.966 1.216.561.655.561 1.591v83.292zm1.778-111.742q0 7.112-2.9 9.826-2.902 2.714-10.763 2.714-7.955 0-10.763-2.62-2.714-2.62-2.714-9.452 0-7.113 2.808-9.827 2.901-2.808 10.856-2.808 7.861 0 10.669 2.715 2.807 2.62 2.807 9.452z" style="-inkscape-font-specification:'Calibri Bold'" id="path4242"/><path d="M861.405 114.668q0 11.137-2.433 20.027-2.433 8.891-7.02 15.161-4.585 6.27-11.323 9.64-6.645 3.369-15.161 3.369-4.212 0-7.861-.842-3.65-.749-7.02-2.527-3.275-1.778-6.55-4.492-3.183-2.714-6.552-6.551v9.078q0 1.029-.561 1.778-.468.655-1.685 1.123-1.123.468-3.088.655t-4.773.187q-2.901 0-4.867-.187-1.871-.187-3.088-.655-1.123-.468-1.59-1.123-.469-.749-.469-1.778V34.464q0-.936.562-1.685.561-.748 1.871-1.216 1.404-.562 3.65-.843 2.246-.28 5.71-.28 3.462 0 5.708.28 2.246.281 3.556.843 1.404.468 1.966 1.216.561.749.561 1.685v46.138q3.182-3.182 6.364-5.428t6.364-3.65q3.182-1.497 6.55-2.152 3.37-.655 7.114-.655 9.265 0 15.722 3.743 6.458 3.65 10.482 9.92 4.118 6.27 5.99 14.693 1.871 8.33 1.871 17.595zm-24.426 1.684q0-5.334-.842-10.294-.749-4.96-2.714-8.797-1.966-3.837-5.148-6.084-3.088-2.34-7.86-2.34-2.34 0-4.587.656-2.246.655-4.679 2.246-2.34 1.59-4.866 4.118-2.527 2.527-5.335 6.27v27.702q4.96 6.364 9.452 9.733 4.586 3.275 9.546 3.275 4.586 0 7.768-2.34 3.182-2.339 5.24-6.082 2.153-3.744 3.09-8.517.935-4.773.935-9.546z" style="-inkscape-font-specification:'Calibri Bold'" id="path4244"/></g><g id="g4543" transform="translate(28.365 5.937) scale(.94805)" stroke-linejoin="round" stroke-miterlimit="100000"><circle r="74.596" cy="114.291" cx="546.024" id="path4395" fill="#fff" stroke="#fff" stroke-width="4.8" stroke-linecap="round" stroke-miterlimit="100"/><g transform="matrix(.77077 0 0 .77077 521.871 -66.566)" id="g4391"><g id="patch_2" transform="translate(-116.692 125.948) scale(2.72888)" fill="#fff"><path d="M54 73.26a33.662 33.662 0 0 0 23.801-57.461A33.662 33.662 0 0 0 20.34 39.6 33.662 33.662 0 0 0 54 73.26z" id="path329" opacity=".05"/></g></g><g transform="matrix(2.10335 0 0 2.10335 431.928 30.511)" id="matplotlib.axis_1" stroke="#858585" stroke-width=".204" stroke-linecap="round" stroke-miterlimit="4" stroke-dasharray=".20408517,.40817035"><g id="xtick_1"><g id="line2d_1"><path id="path334" d="M54 39.6h33.66" clip-path="url(#p1a558b8dcd)" opacity=".9" fill="none"/></g></g><g id="xtick_2"><g id="line2d_2"><path id="path338" d="M54 39.6l23.801-23.801" clip-path="url(#p1a558b8dcd)" opacity=".9" fill="none"/></g></g><g id="xtick_3"><g id="line2d_3"><path id="path342" d="M54 39.6V5.94" clip-path="url(#p1a558b8dcd)" opacity=".9" fill="none"/></g></g><g id="xtick_4"><g id="line2d_4"><path id="path346" d="M54 39.6L30.199 15.799" clip-path="url(#p1a558b8dcd)" opacity=".9" fill="none"/></g></g><g id="xtick_5"><g id="line2d_5"><path id="path350" d="M54 39.6H20.34" clip-path="url(#p1a558b8dcd)" opacity=".9" fill="none"/></g></g><g id="xtick_6"><g id="line2d_6"><path id="path354" d="M54 39.6L30.199 63.401" clip-path="url(#p1a558b8dcd)" opacity=".9" fill="none"/></g></g><g id="xtick_7"><g id="line2d_7"><path id="path358" d="M54 39.6v33.66" clip-path="url(#p1a558b8dcd)" opacity=".9" fill="none"/></g></g><g id="xtick_8"><g id="line2d_8"><path id="path362" d="M54 39.6l23.801 23.801" clip-path="url(#p1a558b8dcd)" opacity=".9" fill="none"/></g></g></g><g transform="matrix(2.10335 0 0 2.10335 431.928 30.511)" id="matplotlib.axis_2" fill="none" stroke="#818181" stroke-width=".204" stroke-miterlimit="100" stroke-dasharray=".20408517,.40817035"><g id="ytick_1"><g id="line2d_9"><path id="path367" d="M57.74 39.6l-.111-.905-.327-.85-.523-.748-.688-.598-.812-.413-.888-.206-.912.016-.88.236-.797.442-.667.622-.496.764-.297.862-.08.909.143.9.356.839.549.728.708.574.826.385.895.174.91-.048.872-.266.782-.47.644-.644.47-.782.266-.872.057-.649" clip-path="url(#p1a558b8dcd)" opacity=".9" stroke-linecap="square"/></g></g><g id="ytick_2"><g id="line2d_10"><path id="path371" d="M65.22 39.6l-.11-1.562-.325-1.53-.535-1.472-.735-1.382-.92-1.266-1.087-1.126-1.234-.964-1.355-.782-1.452-.587-1.519-.379-1.556-.163-1.565.054-1.541.272-1.49.484-1.406.686-1.298.876-1.163 1.047-1.006 1.199-.83 1.328-.636 1.43-.432 1.504-.218 1.55v1.566l.218 1.55.432 1.504.636 1.43.83 1.328 1.006 1.2 1.163 1.046 1.298.876 1.407.686 1.489.484 1.541.272 1.565.054 1.556-.163 1.52-.38 1.45-.586 1.356-.782 1.234-.964 1.087-1.126.92-1.266.735-1.382.535-1.471.326-1.531.109-1.562" clip-path="url(#p1a558b8dcd)" opacity=".9" stroke-linecap="square"/></g></g><g id="ytick_3"><g id="line2d_11"><path id="path375" d="M72.7 39.6l-.102-1.955-.307-1.933-.506-1.89-.702-1.828-.888-1.744-1.066-1.642-1.232-1.52-1.384-1.385-1.521-1.232-1.642-1.066-1.744-.888-1.827-.702-1.891-.506-1.933-.307L54 20.9l-1.955.102-1.933.307-1.89.506-1.828.702-1.744.888-1.642 1.066-1.52 1.232-1.385 1.384-1.232 1.521-1.066 1.642-.888 1.744-.702 1.827-.506 1.891-.307 1.933L35.3 39.6l.102 1.955.307 1.933.506 1.89.702 1.828.888 1.744 1.066 1.642 1.232 1.52 1.384 1.385 1.521 1.232 1.642 1.066 1.744.888 1.827.702 1.891.506 1.933.307L54 58.3l1.955-.102 1.933-.307 1.89-.506 1.828-.702 1.744-.888 1.642-1.066 1.52-1.232 1.385-1.384 1.232-1.521 1.066-1.642.888-1.744.702-1.827.506-1.891.307-1.933.102-1.955" clip-path="url(#p1a558b8dcd)" opacity=".9" stroke-linecap="square"/></g></g><g id="ytick_4"><g id="line2d_12"><path id="path379" d="M80.18 39.6l-.143-2.737-.43-2.706-.708-2.647-.982-2.558-1.244-2.442-1.493-2.298-1.724-2.13-1.938-1.938-2.13-1.724-2.298-1.493-2.442-1.244-2.558-.982-2.647-.709-2.706-.429L54 13.42l-2.737.143-2.706.43-2.647.708-2.558.982-2.442 1.244-2.298 1.493-2.13 1.724-1.938 1.938-1.724 2.13-1.493 2.298-1.244 2.442-.982 2.558-.709 2.647-.429 2.706-.143 2.737.143 2.737.43 2.706.708 2.647.982 2.558 1.244 2.442 1.493 2.298 1.724 2.13 1.938 1.938 2.13 1.724 2.298 1.493 2.442 1.244 2.558.982 2.647.709 2.706.429L54 65.78l2.737-.143 2.706-.43 2.647-.708 2.558-.982 2.442-1.244 2.298-1.493 2.13-1.724 1.938-1.938 1.724-2.13 1.493-2.298 1.244-2.442.982-2.558.709-2.647.429-2.706.143-2.737" clip-path="url(#p1a558b8dcd)" opacity=".9" stroke-linecap="square"/></g></g></g><g transform="matrix(2.10335 0 0 2.10335 431.928 30.511)" id="patch_3" opacity=".938" stroke="#000" stroke-width=".456" stroke-miterlimit="100"><path id="path382" d="M54 39.6l.071-.023.071-.023.071-.023.072-.023.07-.024.072-.023.071-.023.071-.023.071-.023.071-.023.072-.023.07-.023.072-.023.071-.024.071-.023.071-.023.071-.023.072-.023.07-.023.072-.023.07-.023.072-.023.071-.024.071-.023.071-.023.072-.023.07-.023.072-.023.071-.023.071-.023.071-.023.071-.024.072-.023.07-.023.072-.023.071-.023.071-.023.071-.023.071-.023.072-.023.07-.024.072-.023.071-.023.071-.023.071-.023.071-.023.072-.023.07-.023.072-.023.071-.024.071-.023.071-.023.071-.023.072-.023.07-.023.072-.023.071-.023.071-.023.071-.024.071-.023.072-.023.07-.023.072-.023.071-.023.071-.023.071-.023.071-.024.072-.023.07-.023.072-.023.07-.023.072-.023.071-.023.071-.023.071-.023.072-.024.07-.023.072-.023.071-.023.071-.023.071-.023.071-.023.072-.023.07-.023.072-.024.071-.023.071-.023.071-.023.071-.023.072-.023.07-.023.072-.023.071-.023.071-.024.071-.023.071-.023.072-.023.07-.023.072-.023.071-.023.007.022.007.023.007.022.007.022.007.023.007.022.007.023.007.022.006.023.007.022.007.023.006.023.006.022.007.023.006.023.006.022.006.023.006.023.006.022.006.023.006.023.006.023.005.022.006.023.005.023.006.023.005.023.006.023.005.023.005.023.005.023.005.022.005.023.005.023.005.023.004.023.005.023.005.024.004.023.005.023.004.023.004.023.004.023.005.023.004.023.004.023.004.024.003.023.004.023.004.023.004.023.003.024.004.023.003.023.003.023.004.024.003.023.003.023.003.023.003.024.003.023.003.023.003.024.002.023.003.023.002.024.003.023.002.024.003.023.002.023.002.024.002.023.002.024.002.023.002.023.002.024.001.023.002.024.002.023.001.024.002.023.001.024.001.023.002.023v.024l.002.023v.024l.002.023v.024l.001.023.001.024v.023l.001.024v.023l.001.024v.07l.001.024v.023H54.075z" clip-path="url(#p1a558b8dcd)" opacity=".6" fill="#004cff"/></g><g transform="matrix(2.10335 0 0 2.10335 431.928 30.511)" id="patch_4" opacity=".938" stroke="#000" stroke-width=".456" stroke-miterlimit="100"><path id="path385" d="M54 39.6l.079-.21.079-.21.079-.21.078-.21.08-.21.078-.21.079-.21.079-.21.079-.21.079-.21.078-.211.08-.21.078-.21.079-.21.079-.21.079-.21.078-.21.08-.21.078-.21.079-.21.079-.21.079-.211.079-.21.078-.21.08-.21.078-.21.079-.21.079-.21.079-.21.079-.21.078-.21.08-.21.078-.211.079-.21.079-.21.079-.21.078-.21.08-.21.078-.21.079-.21.079-.21.079-.21.079-.21.078-.211.08-.21.078-.21.079-.21.079-.21.079-.21.079-.21.078-.21.08-.21.078-.21.079-.21.079-.211.079-.21.078-.21.08-.21.078-.21.079-.21.079-.21.079-.21.079-.21.078-.21.08-.21.078-.211.079-.21.079-.21.079-.21.079-.21.078-.21.08-.21.078-.21.079-.21.079-.21.079-.21.078-.211.08-.21.078-.21.079-.21.079-.21.079-.21.079-.21.078-.21.08-.21.078-.21.079-.21.079-.211.079-.21.079-.21.078-.21.08-.21.078-.21.079-.21.079-.21.079-.21.078-.21.08-.21.078-.211.079-.21.066.025.066.025.066.025.065.026.066.025.066.026.065.026.065.027.066.026.065.027.065.027.065.027.065.027.065.028.065.028.065.028.064.028.065.028.064.029.065.028.064.03.064.029.064.029.064.03.064.03.064.03.064.03.063.03.064.03.063.031.063.031.064.031.063.032.063.031.063.032.063.032.062.032.063.032.063.033.062.033.062.033.063.033.062.033.062.034.062.033.061.034.062.034.062.035.061.034.061.035.062.035.06.035.062.035.06.036.062.035.06.036.061.036.06.036.06.037.061.036.06.037.06.037.06.037.06.038.06.037.06.038.059.038.059.038.059.038.06.039.058.039.059.038.059.04.058.039.059.039.058.04.058.04.058.04.058.04.058.04.058.04.057.041.058.04.057.042.057.041.057.041.057.042.057.042.057.042.056.042.057.042.056.043.056.042.056.043.056.043.056.043.055.044.056.043.055.044.055.044-.14.175-.14.176-.14.175-.14.175-.14.176-.14.175-.14.176-.139.175-.14.176-.14.175-.14.176-.14.175-.14.175-.14.176-.14.175-.14.176-.14.175-.14.176-.14.175-.139.176-.14.175-.14.175-.14.176-.14.175-.14.176-.14.175-.14.176-.14.175-.14.176-.14.175-.139.175-.14.176-.14.175-.14.176-.14.175-.14.176-.14.175-.14.176-.14.175-.14.175-.14.176-.139.175-.14.176-.14.175-.14.176-.14.175-.14.176-.14.175-.14.175-.14.176-.14.175-.14.176-.139.175-.14.176-.14.175-.14.175-.14.176-.14.175-.14.176-.14.175-.14.176-.14.175-.14.176-.14.175-.139.175-.14.176-.14.175-.14.176-.14.175-.14.176-.14.175-.14.176-.14.175-.14.175-.14.176-.139.175-.14.176-.14.175-.14.176-.14.175-.14.176-.14.175-.14.175-.14.176-.14.175-.14.176-.139.175-.14.176-.14.175-.14.176-.14.175-.14.175-.14.176-.14.175-.14.176-.14.175-.14.176-.139.175-.14.176z" clip-path="url(#p1a558b8dcd)" opacity=".6" fill="#ceff29"/></g><g transform="matrix(2.10335 0 0 2.10335 431.928 30.511)" id="patch_5" opacity=".938" stroke="#000" stroke-width=".456" stroke-miterlimit="100"><path id="path388" d="M54 39.6l-.192-.23-.191-.23-.192-.229-.192-.23-.192-.23-.191-.23-.192-.229-.192-.23-.192-.23-.191-.229-.192-.23-.192-.23-.192-.229-.191-.23-.192-.23-.192-.229-.192-.23-.192-.23-.191-.229-.192-.23-.192-.23-.191-.229-.192-.23-.192-.23-.192-.229-.192-.23-.191-.23-.192-.229-.192-.23-.191-.23-.192-.23-.192-.229-.192-.23-.191-.23-.192-.229-.192-.23-.192-.23-.191-.229-.192-.23-.192-.23-.192-.229-.191-.23-.192-.23-.192-.229-.192-.23-.191-.23-.192-.229-.192-.23-.192-.23-.191-.229-.192-.23-.192-.23-.192-.229-.191-.23-.192-.23-.192-.229-.192-.23-.191-.23-.192-.23-.192-.229-.192-.23-.191-.23-.192-.229-.192-.23-.192-.23-.191-.229-.192-.23-.192-.23-.192-.229-.191-.23-.192-.23-.192-.229-.192-.23-.191-.23-.192-.229-.192-.23-.192-.23-.191-.229-.192-.23-.192-.23-.192-.229-.191-.23-.192-.23-.192-.23-.192-.229-.191-.23-.192-.23-.192-.229-.192-.23-.191-.23-.192-.229-.192-.23-.192-.23-.191-.229-.192-.23-.192-.23-.192-.229-.191-.23-.192-.23-.192-.229.108-.09.11-.09.109-.089.11-.088.11-.088.11-.088.11-.087.112-.086.112-.086.112-.086.113-.085.113-.084.113-.084.114-.083.114-.083.115-.082.115-.082.115-.08.116-.081.116-.08.116-.08.117-.079.117-.078.118-.078.118-.078.118-.076.118-.076.12-.076.119-.075.12-.075.12-.073.12-.074.12-.073.122-.072.121-.072.122-.07.122-.071.123-.07.122-.07.123-.068.124-.068.124-.068.124-.067.124-.066.125-.066.125-.066.125-.064.125-.064.126-.064.127-.063.126-.062.127-.062.127-.06.127-.061.128-.06.128-.06.128-.058.128-.058.13-.058.128-.057.13-.056.129-.056.13-.055.13-.054.13-.054.13-.053.132-.053.13-.052.132-.051.132-.05.131-.05.132-.05.133-.05.132-.047.133-.048.133-.047.133-.046.133-.046.134-.045.134-.045.134-.044.134-.043.134-.042.135-.042.135-.042.135-.04.135-.04.135-.04.136-.039.135-.038.136-.037.136-.037.137-.036.136-.036.137-.035.137-.034.136-.034.138-.033.137-.032.137-.032.067.292.066.292.067.291.066.292.067.292.067.291.066.292.067.292.066.291.067.292.067.292.066.292.067.291.066.292.067.292.066.291.067.292.067.292.066.291.067.292.066.292.067.292.067.291.066.292.067.292.066.291.067.292.066.292.067.291.067.292.066.292.067.292.066.291.067.292.066.292.067.291.067.292.066.292.067.291.066.292.067.292.067.292.066.291.067.292.066.292.067.291.066.292.067.292.067.291.066.292.067.292.066.291.067.292.066.292.067.292.067.291.066.292.067.292.066.291.067.292.067.292.066.291.067.292.066.292.067.292.066.291.067.292.067.292.066.291.067.292.066.292.067.291.067.292.066.292.067.292.066.291.067.292.066.292.067.291.067.292.066.292.067.291.066.292.067.292.066.292.067.291.067.292.066.292.067.291.066.292.067.292.067.291.066.292.067.292.066.292.067.291.066.292.067.292.067.291z" clip-path="url(#p1a558b8dcd)" opacity=".6" fill="#ff6800"/></g><g transform="matrix(2.10335 0 0 2.10335 431.928 30.511)" id="patch_6" opacity=".938" stroke="#000" stroke-width=".456" stroke-miterlimit="100"><path id="path391" d="M54 39.6l-.258.047-.257.047-.258.046-.257.047-.258.047-.258.047-.257.046-.258.047-.257.047-.258.047-.258.046-.257.047-.258.047-.257.047-.258.046-.257.047-.258.047-.258.047-.257.046-.258.047-.257.047-.258.047-.258.046-.257.047-.258.047-.257.047-.258.046-.258.047-.257.047-.258.047-.257.046-.258.047-.258.047-.257.047-.258.046-.257.047-.258.047-.258.047-.257.046-.258.047-.257.047-.258.047-.257.046-.258.047-.258.047-.257.047-.258.046-.257.047-.258.047-.258.047-.257.046-.258.047-.257.047-.258.047-.258.046-.257.047-.258.047-.257.047-.258.046-.258.047-.257.047-.258.047-.257.046-.258.047-.258.047-.257.047-.258.046-.257.047-.258.047-.257.047-.258.046-.258.047-.257.047-.258.047-.257.046-.258.047-.258.047-.257.047-.258.046-.257.047-.258.047-.258.047-.257.046-.258.047-.257.047-.258.047-.258.046-.257.047-.258.047-.257.047-.258.046-.258.047-.257.047-.258.047-.257.046-.258.047-.257.047-.258.047-.258.046-.257.047-.03-.162-.027-.162-.027-.162-.026-.163-.024-.162-.024-.163-.023-.163-.022-.163-.02-.163-.02-.164-.019-.163-.017-.164-.017-.163-.015-.164-.015-.164-.013-.164-.013-.164-.011-.164-.01-.164-.01-.164-.008-.165-.008-.164-.006-.164-.005-.165-.004-.164-.004-.165-.002-.164v-.494l.002-.164.003-.165.004-.164.005-.164.006-.165.008-.164.008-.164.01-.165.01-.164.01-.164.013-.164.013-.164.015-.164.015-.164.016-.163.018-.164.018-.163.02-.164.02-.163.022-.163.023-.163.023-.163.025-.162.026-.163.026-.162.028-.162.029-.162.03-.162.03-.161.032-.162.033-.161.034-.161.034-.16.036-.161.037-.16.038-.16.039-.16.04-.16.04-.16.042-.159.043-.158.044-.159.045-.158.045-.158.047-.158.048-.157.049-.157.05-.157.05-.157.052-.156.053-.156.054-.155.054-.155.056-.155.056-.155.058-.154.059-.153.06-.154.06-.153.061-.152.062-.152.064-.152.064-.152.065-.15.067-.151.067-.15.068-.15.069-.15.07-.148.07-.149.237.114.236.113.235.114.236.114.236.113.236.114.236.113.236.114.236.114.236.113.235.114.236.113.236.114.236.114.236.113.236.114.236.113.236.114.235.114.236.113.236.114.236.113.236.114.236.113.236.114.235.114.236.113.236.114.236.113.236.114.236.114.236.113.236.114.235.113.236.114.236.114.236.113.236.114.236.113.236.114.236.114.235.113.236.114.236.113.236.114.236.113.236.114.236.114.236.113.235.114.236.113.236.114.236.114.236.113.236.114.236.113.236.114.235.114.236.113.236.114.236.113.236.114.236.114.236.113.236.114.235.113.236.114.236.113.236.114.236.114.236.113.236.114.236.113.235.114.236.114.236.113.236.114.236.113.236.114.236.114.236.113.235.114.236.113.236.114.236.114.236.113.236.114.236.113.236.114.235.113.236.114.236.114.236.113.236.114.236.113.236.114.236.114.235.113.236.114z" clip-path="url(#p1a558b8dcd)" opacity=".6" fill="#ffc400"/></g><g transform="matrix(2.10335 0 0 2.10335 431.928 30.511)" id="patch_7" stroke="#000" stroke-width=".456" stroke-miterlimit="100"><path id="path394" d="M54 39.6l-.123.085-.123.085-.123.086-.123.085-.123.085-.123.085-.123.085-.123.086-.123.085-.123.085-.123.085-.123.085-.123.085-.123.086-.123.085-.123.085-.123.085-.122.085-.123.086-.123.085-.123.085-.123.085-.123.085-.123.086-.123.085-.123.085-.123.085-.123.085-.123.086-.123.085-.123.085-.123.085-.123.085-.123.086-.123.085-.123.085-.123.085-.123.085-.123.085-.123.086-.123.085-.123.085-.123.085-.123.085-.123.086-.123.085-.123.085-.123.085-.123.085-.123.086-.123.085-.123.085-.122.085-.123.085-.123.086-.123.085-.123.085-.123.085-.123.085-.123.085-.123.086-.123.085-.123.085-.123.085-.123.085-.123.086-.123.085-.123.085-.123.085-.123.085-.123.086-.123.085-.123.085-.123.085-.123.085-.123.086-.123.085-.123.085-.123.085-.123.085-.123.086-.123.085-.123.085-.123.085-.123.085-.123.085-.123.086-.122.085-.123.085-.123.085-.123.085-.123.086-.123.085-.123.085-.123.085-.123.085-.123.086-.123.085-.123.085-.123.085-.014-.02-.013-.019-.013-.019-.013-.02-.014-.019-.013-.02-.013-.019-.013-.02-.013-.019-.013-.02-.014-.019-.013-.02-.013-.019-.013-.02-.012-.019-.013-.02-.013-.02-.013-.019-.013-.02-.013-.02-.012-.02-.013-.019-.013-.02-.013-.02-.012-.02-.013-.02-.012-.019-.013-.02-.012-.02-.013-.02-.012-.02-.013-.02-.012-.02-.012-.02-.013-.02-.012-.02-.012-.02-.012-.02-.013-.02-.012-.02-.012-.02-.012-.02-.012-.02-.012-.02-.012-.02-.012-.02-.012-.021-.012-.02-.012-.02-.012-.021-.011-.02-.012-.02-.012-.021-.012-.02-.011-.02-.012-.021-.012-.02-.011-.021-.012-.02-.011-.021-.012-.02-.011-.021-.012-.02-.011-.021-.011-.02-.012-.021-.011-.02-.011-.021-.012-.021-.01-.02-.012-.021-.011-.021-.011-.02-.011-.022-.011-.02-.011-.021-.011-.02-.011-.022-.011-.02-.011-.021-.01-.021-.012-.021-.01-.02-.011-.022-.01-.02-.011-.022-.011-.02-.01-.022-.011-.02-.01-.022-.011-.02-.01-.022-.011-.02-.01-.022-.011-.02-.01-.022-.01-.021-.011-.021-.01-.021-.01-.021.134-.065.135-.065.135-.065.135-.065.134-.065.135-.065.135-.065.135-.065.135-.065.134-.065.135-.064.135-.065.135-.065.135-.065.134-.065.135-.065.135-.065.135-.065.134-.065.135-.065.135-.065.135-.064.135-.065.134-.065.135-.065.135-.065.135-.065.135-.065.134-.065.135-.065.135-.065.135-.065.134-.065.135-.064.135-.065.135-.065.135-.065.134-.065.135-.065.135-.065.135-.065.134-.065.135-.065.135-.065.135-.064.135-.065.134-.065.135-.065.135-.065.135-.065.135-.065.134-.065.135-.065.135-.065.135-.065.134-.064.135-.065.135-.065.135-.065.135-.065.134-.065.135-.065.135-.065.135-.065.135-.065.134-.065.135-.064.135-.065.135-.065.134-.065.135-.065.135-.065.135-.065.135-.065.134-.065.135-.065.135-.065.135-.064.135-.065.134-.065.135-.065.135-.065.135-.065.134-.065.135-.065.135-.065.135-.065.135-.065.134-.064.135-.065.135-.065.135-.065.135-.065.134-.065.135-.065.135-.065.135-.065.134-.065.135-.065z" clip-path="url(#p1a558b8dcd)" opacity=".6" fill="#29ffce"/></g><g transform="matrix(2.10335 0 0 2.10335 431.928 30.511)" id="patch_8" opacity=".938" stroke="#000" stroke-width=".456" stroke-miterlimit="100"><path id="path397" d="M54 39.6l.031.184.032.185.031.184.031.184.032.185.03.184.032.185.032.184.03.184.032.185.032.184.03.184.032.185.031.184.032.184.031.185.031.184.032.184.031.185.031.184.032.185.031.184.031.184.032.185.031.184.031.184.032.185.031.184.031.184.032.185.03.184.032.184.032.185.03.184.032.185.032.184.03.184.032.185.031.184.032.184.031.185.031.184.032.184.031.185.031.184.032.184.031.185.031.184.032.185.031.184.031.184.032.185.031.184.031.184.032.185.03.184.032.184.032.185.03.184.032.184.032.185.03.184.032.185.031.184.032.184.031.185.031.184.032.184.031.185.031.184.032.184.031.185.031.184.032.184.031.185.031.184.032.185.031.184.031.184.032.185.03.184.032.184.032.185.03.184.032.184.032.185.03.184.032.184.031.185.032.184.031.185.031.184.032.184.031.185.031.184.032.184.031.185.031.184.032.184.031.185-.072.012-.073.012-.072.011-.073.012-.073.01-.072.011-.073.01-.073.011-.072.01-.073.01-.073.009-.073.009-.073.009-.073.008-.073.008-.073.008-.073.008-.073.007-.073.007-.073.007-.073.006-.073.006-.074.006-.073.006-.073.005-.073.005-.074.005-.073.004-.073.004-.074.004-.073.004-.073.003-.074.003-.073.003-.073.002-.074.002-.073.002-.074.001-.073.002h-.074l-.073.001h-.367l-.074-.002h-.073l-.073-.002-.074-.002-.073-.003-.074-.002-.073-.003-.073-.003-.074-.003-.073-.004-.073-.004-.074-.004-.073-.005-.073-.004-.074-.005-.073-.006-.073-.006-.073-.005-.073-.007-.073-.006-.074-.007-.073-.007-.073-.007-.073-.008-.073-.008-.073-.008-.073-.009-.073-.009-.072-.009-.073-.01-.073-.009-.073-.01-.073-.01-.072-.01-.073-.011-.072-.012-.073-.011-.073-.012-.072-.012-.072-.012-.073-.012-.072-.013-.072-.013-.073-.014-.072-.013-.072-.014-.072-.014-.072-.015-.072-.015-.072-.015-.071-.015-.072-.016-.072-.016-.071-.016.041-.182.042-.183.041-.182.042-.182.042-.183.041-.182.042-.182.041-.182.042-.183.042-.182.041-.182.042-.183.041-.182.042-.182.042-.183.041-.182.042-.182.042-.183.041-.182.042-.182.041-.182.042-.183.042-.182.041-.182.042-.183.041-.182.042-.182.042-.183.041-.182.042-.182.041-.183.042-.182.042-.182.041-.183.042-.182.041-.182.042-.182.042-.183.041-.182.042-.182.042-.183.041-.182.042-.182.041-.183.042-.182.042-.182.041-.183.042-.182.041-.182.042-.183.042-.182.041-.182.042-.182.041-.183.042-.182.042-.182.041-.183.042-.182.042-.182.041-.183.042-.182.041-.182.042-.183.042-.182.041-.182.042-.183.041-.182.042-.182.042-.182.041-.183.042-.182.041-.182.042-.183.042-.182.041-.182.042-.183.041-.182.042-.182.042-.183.041-.182.042-.182.042-.182.041-.183.042-.182.041-.182.042-.183.042-.182.041-.182.042-.183.041-.182.042-.182.042-.183.041-.182.042-.182.041-.183.042-.182.042-.182.041-.182.042-.183z" clip-path="url(#p1a558b8dcd)" opacity=".6" fill="#7dff7a"/></g><g transform="matrix(2.10335 0 0 2.10335 431.928 30.511)" id="patch_9" opacity=".938" stroke="#000" stroke-width=".456" stroke-miterlimit="100"><path id="path400" d="M54 39.6l.236.184.236.184.236.184.236.184.236.184.236.183.236.184.236.184.236.184.236.184.236.184.236.184.236.184.236.184.236.184.236.184.236.184.236.183.236.184.236.184.236.184.236.184.236.184.236.184.236.184.236.184.236.184.236.184.236.183.236.184.236.184.236.184.236.184.236.184.236.184.236.184.236.184.236.184.236.184.236.183.236.184.236.184.236.184.236.184.236.184.236.184.236.184.236.184.236.184.236.184.236.184.236.183.236.184.236.184.236.184.236.184.236.184.236.184.236.184.236.184.236.184.236.184.236.183.236.184.236.184.236.184.236.184.236.184.236.184.236.184.236.184.236.184.236.184.236.183.236.184.236.184.236.184.236.184.236.184.236.184.236.184.236.184.236.184.236.184.236.184.236.183.236.184.236.184.236.184.236.184.236.184.236.184.236.184.236.184.236.184.236.184.236.183.236.184.236.184.236.184-.043.056-.044.055-.043.056-.044.055-.044.055-.044.055-.044.055-.045.055-.044.054-.045.055-.044.055-.045.054-.045.054-.045.055-.045.054-.046.054-.045.053-.046.054-.045.054-.046.053-.046.054-.046.053-.047.054-.046.053-.046.053-.047.053-.047.052-.047.053-.047.053-.047.052-.047.052-.047.053-.048.052-.047.052-.048.052-.048.051-.048.052-.048.052-.048.051-.048.052-.049.05-.048.052-.049.05-.049.052-.049.05-.049.051-.049.05-.05.051-.048.05-.05.05-.05.05-.05.05-.05.05-.05.05-.05.05-.05.05-.05.049-.05.049-.05.049-.052.049-.05.049-.051.049-.051.048-.051.049-.052.048-.051.049-.052.048-.051.048-.052.048-.052.047-.052.048-.052.048-.052.047-.052.047-.052.048-.053.047-.052.047-.053.046-.053.047-.053.047-.053.046-.053.046-.053.047-.054.046-.053.046-.054.045-.054.046-.053.046-.054.045-.054.045-.054.046-.055.045-.054.045-.054.044-.055.045-.055.045-.054.044-.055.044-.055.044-.055.044-.187-.234-.186-.233-.187-.234-.186-.234-.187-.234-.186-.234-.187-.234-.187-.234-.186-.234-.187-.234-.186-.234-.187-.234-.186-.234-.187-.234-.186-.233-.187-.234-.187-.234-.186-.234-.187-.234-.186-.234-.187-.234-.186-.234-.187-.234-.186-.234-.187-.234-.186-.234-.187-.234-.187-.233-.186-.234-.187-.234-.186-.234-.187-.234-.186-.234-.187-.234-.186-.234-.187-.234-.186-.234-.187-.234-.187-.234-.186-.234-.187-.233-.186-.234-.187-.234-.186-.234-.187-.234-.186-.234-.187-.234-.186-.234-.187-.234-.187-.234-.186-.234-.187-.234-.186-.234-.187-.233-.186-.234-.187-.234-.186-.234-.187-.234-.187-.234-.186-.234-.187-.234-.186-.234-.187-.234-.186-.234-.187-.234-.186-.234-.187-.234-.186-.233-.187-.234-.187-.234-.186-.234-.187-.234-.186-.234-.187-.234-.186-.234-.187-.234-.186-.234-.187-.234-.186-.234-.187-.234-.187-.233-.186-.234-.187-.234-.186-.234-.187-.234-.186-.234-.187-.234-.186-.234-.187-.234-.187-.234-.186-.234-.187-.234-.186-.234-.187-.233-.186-.234-.187-.234-.186-.234-.187-.234-.186-.234z" clip-path="url(#p1a558b8dcd)" opacity=".6" fill="#ff6800"/></g><g transform="matrix(2.10335 0 0 2.10335 431.928 30.511)" id="patch_10" stroke="#11557c"><path id="path403" d="M54 73.26a33.662 33.662 0 0 0 23.801-57.461A33.662 33.662 0 0 0 20.34 39.6 33.662 33.662 0 0 0 54 73.26z" fill="none" stroke-linecap="square" stroke-linejoin="miter"/></g><g transform="matrix(2.10335 0 0 2.10335 431.928 30.511)" id="patch_3-1" fill="none" stroke="#000" stroke-width=".456" stroke-miterlimit="100"><path id="path382-9" d="M54 39.6l.071-.023.071-.023.071-.023.072-.023.07-.024.072-.023.071-.023.071-.023.071-.023.071-.023.072-.023.07-.023.072-.023.071-.024.071-.023.071-.023.071-.023.072-.023.07-.023.072-.023.07-.023.072-.023.071-.024.071-.023.071-.023.072-.023.07-.023.072-.023.071-.023.071-.023.071-.023.071-.024.072-.023.07-.023.072-.023.071-.023.071-.023.071-.023.071-.023.072-.023.07-.024.072-.023.071-.023.071-.023.071-.023.071-.023.072-.023.07-.023.072-.023.071-.024.071-.023.071-.023.071-.023.072-.023.07-.023.072-.023.071-.023.071-.023.071-.024.071-.023.072-.023.07-.023.072-.023.071-.023.071-.023.071-.023.071-.024.072-.023.07-.023.072-.023.07-.023.072-.023.071-.023.071-.023.071-.023.072-.024.07-.023.072-.023.071-.023.071-.023.071-.023.071-.023.072-.023.07-.023.072-.024.071-.023.071-.023.071-.023.071-.023.072-.023.07-.023.072-.023.071-.023.071-.024.071-.023.071-.023.072-.023.07-.023.072-.023.071-.023.007.022.007.023.007.022.007.022.007.023.007.022.007.023.007.022.006.023.007.022.007.023.006.023.006.022.007.023.006.023.006.022.006.023.006.023.006.022.006.023.006.023.006.023.005.022.006.023.005.023.006.023.005.023.006.023.005.023.005.023.005.023.005.022.005.023.005.023.005.023.004.023.005.023.005.024.004.023.005.023.004.023.004.023.004.023.005.023.004.023.004.023.004.024.003.023.004.023.004.023.004.023.003.024.004.023.003.023.003.023.004.024.003.023.003.023.003.023.003.024.003.023.003.023.003.024.002.023.003.023.002.024.003.023.002.024.003.023.002.023.002.024.002.023.002.024.002.023.002.023.002.024.001.023.002.024.002.023.001.024.002.023.001.024.001.023.002.023v.024l.002.023v.024l.002.023v.024l.001.023.001.024v.023l.001.024v.023l.001.024v.07l.001.024v.023H54.075z" clip-path="url(#p1a558b8dcd-1)" opacity=".6"/></g><g transform="matrix(2.10335 0 0 2.10335 431.928 30.511)" id="patch_4-2" fill="none" stroke="#000" stroke-width=".456" stroke-miterlimit="100"><path id="path385-8" d="M54 39.6l.079-.21.079-.21.079-.21.078-.21.08-.21.078-.21.079-.21.079-.21.079-.21.079-.21.078-.211.08-.21.078-.21.079-.21.079-.21.079-.21.078-.21.08-.21.078-.21.079-.21.079-.21.079-.211.079-.21.078-.21.08-.21.078-.21.079-.21.079-.21.079-.21.079-.21.078-.21.08-.21.078-.211.079-.21.079-.21.079-.21.078-.21.08-.21.078-.21.079-.21.079-.21.079-.21.079-.21.078-.211.08-.21.078-.21.079-.21.079-.21.079-.21.079-.21.078-.21.08-.21.078-.21.079-.21.079-.211.079-.21.078-.21.08-.21.078-.21.079-.21.079-.21.079-.21.079-.21.078-.21.08-.21.078-.211.079-.21.079-.21.079-.21.079-.21.078-.21.08-.21.078-.21.079-.21.079-.21.079-.21.078-.211.08-.21.078-.21.079-.21.079-.21.079-.21.079-.21.078-.21.08-.21.078-.21.079-.21.079-.211.079-.21.079-.21.078-.21.08-.21.078-.21.079-.21.079-.21.079-.21.078-.21.08-.21.078-.211.079-.21.066.025.066.025.066.025.065.026.066.025.066.026.065.026.065.027.066.026.065.027.065.027.065.027.065.027.065.028.065.028.065.028.064.028.065.028.064.029.065.028.064.03.064.029.064.029.064.03.064.03.064.03.064.03.063.03.064.03.063.031.063.031.064.031.063.032.063.031.063.032.063.032.062.032.063.032.063.033.062.033.062.033.063.033.062.033.062.034.062.033.061.034.062.034.062.035.061.034.061.035.062.035.06.035.062.035.06.036.062.035.06.036.061.036.06.036.06.037.061.036.06.037.06.037.06.037.06.038.06.037.06.038.059.038.059.038.059.038.06.039.058.039.059.038.059.04.058.039.059.039.058.04.058.04.058.04.058.04.058.04.058.04.057.041.058.04.057.042.057.041.057.041.057.042.057.042.057.042.056.042.057.042.056.043.056.042.056.043.056.043.056.043.055.044.056.043.055.044.055.044-.14.175-.14.176-.14.175-.14.175-.14.176-.14.175-.14.176-.139.175-.14.176-.14.175-.14.176-.14.175-.14.175-.14.176-.14.175-.14.176-.14.175-.14.176-.14.175-.139.176-.14.175-.14.175-.14.176-.14.175-.14.176-.14.175-.14.176-.14.175-.14.176-.14.175-.139.175-.14.176-.14.175-.14.176-.14.175-.14.176-.14.175-.14.176-.14.175-.14.175-.14.176-.139.175-.14.176-.14.175-.14.176-.14.175-.14.176-.14.175-.14.175-.14.176-.14.175-.14.176-.139.175-.14.176-.14.175-.14.175-.14.176-.14.175-.14.176-.14.175-.14.176-.14.175-.14.176-.14.175-.139.175-.14.176-.14.175-.14.176-.14.175-.14.176-.14.175-.14.176-.14.175-.14.175-.14.176-.139.175-.14.176-.14.175-.14.176-.14.175-.14.176-.14.175-.14.175-.14.176-.14.175-.14.176-.139.175-.14.176-.14.175-.14.176-.14.175-.14.175-.14.176-.14.175-.14.176-.14.175-.14.176-.139.175-.14.176z" clip-path="url(#p1a558b8dcd-1)" opacity=".6"/></g><g transform="matrix(2.10335 0 0 2.10335 431.928 30.511)" id="patch_5-0" fill="none" stroke="#000" stroke-width=".456" stroke-miterlimit="100"><path id="path388-3" d="M54 39.6l-.192-.23-.191-.23-.192-.229-.192-.23-.192-.23-.191-.23-.192-.229-.192-.23-.192-.23-.191-.229-.192-.23-.192-.23-.192-.229-.191-.23-.192-.23-.192-.229-.192-.23-.192-.23-.191-.229-.192-.23-.192-.23-.191-.229-.192-.23-.192-.23-.192-.229-.192-.23-.191-.23-.192-.229-.192-.23-.191-.23-.192-.23-.192-.229-.192-.23-.191-.23-.192-.229-.192-.23-.192-.23-.191-.229-.192-.23-.192-.23-.192-.229-.191-.23-.192-.23-.192-.229-.192-.23-.191-.23-.192-.229-.192-.23-.192-.23-.191-.229-.192-.23-.192-.23-.192-.229-.191-.23-.192-.23-.192-.229-.192-.23-.191-.23-.192-.23-.192-.229-.192-.23-.191-.23-.192-.229-.192-.23-.192-.23-.191-.229-.192-.23-.192-.23-.192-.229-.191-.23-.192-.23-.192-.229-.192-.23-.191-.23-.192-.229-.192-.23-.192-.23-.191-.229-.192-.23-.192-.23-.192-.229-.191-.23-.192-.23-.192-.23-.192-.229-.191-.23-.192-.23-.192-.229-.192-.23-.191-.23-.192-.229-.192-.23-.192-.23-.191-.229-.192-.23-.192-.23-.192-.229-.191-.23-.192-.23-.192-.229.108-.09.11-.09.109-.089.11-.088.11-.088.11-.088.11-.087.112-.086.112-.086.112-.086.113-.085.113-.084.113-.084.114-.083.114-.083.115-.082.115-.082.115-.08.116-.081.116-.08.116-.08.117-.079.117-.078.118-.078.118-.078.118-.076.118-.076.12-.076.119-.075.12-.075.12-.073.12-.074.12-.073.122-.072.121-.072.122-.07.122-.071.123-.07.122-.07.123-.068.124-.068.124-.068.124-.067.124-.066.125-.066.125-.066.125-.064.125-.064.126-.064.127-.063.126-.062.127-.062.127-.06.127-.061.128-.06.128-.06.128-.058.128-.058.13-.058.128-.057.13-.056.129-.056.13-.055.13-.054.13-.054.13-.053.132-.053.13-.052.132-.051.132-.05.131-.05.132-.05.133-.05.132-.047.133-.048.133-.047.133-.046.133-.046.134-.045.134-.045.134-.044.134-.043.134-.042.135-.042.135-.042.135-.04.135-.04.135-.04.136-.039.135-.038.136-.037.136-.037.137-.036.136-.036.137-.035.137-.034.136-.034.138-.033.137-.032.137-.032.067.292.066.292.067.291.066.292.067.292.067.291.066.292.067.292.066.291.067.292.067.292.066.292.067.291.066.292.067.292.066.291.067.292.067.292.066.291.067.292.066.292.067.292.067.291.066.292.067.292.066.291.067.292.066.292.067.291.067.292.066.292.067.292.066.291.067.292.066.292.067.291.067.292.066.292.067.291.066.292.067.292.067.292.066.291.067.292.066.292.067.291.066.292.067.292.067.291.066.292.067.292.066.291.067.292.066.292.067.292.067.291.066.292.067.292.066.291.067.292.067.292.066.291.067.292.066.292.067.292.066.291.067.292.067.292.066.291.067.292.066.292.067.291.067.292.066.292.067.292.066.291.067.292.066.292.067.291.067.292.066.292.067.291.066.292.067.292.066.292.067.291.067.292.066.292.067.291.066.292.067.292.067.291.066.292.067.292.066.292.067.291.066.292.067.292.067.291z" clip-path="url(#p1a558b8dcd-1)" opacity=".6"/></g><g transform="matrix(2.10335 0 0 2.10335 431.928 30.511)" id="patch_6-4" fill="none" stroke="#000" stroke-width=".456" stroke-miterlimit="100"><path id="path391-5" d="M54 39.6l-.258.047-.257.047-.258.046-.257.047-.258.047-.258.047-.257.046-.258.047-.257.047-.258.047-.258.046-.257.047-.258.047-.257.047-.258.046-.257.047-.258.047-.258.047-.257.046-.258.047-.257.047-.258.047-.258.046-.257.047-.258.047-.257.047-.258.046-.258.047-.257.047-.258.047-.257.046-.258.047-.258.047-.257.047-.258.046-.257.047-.258.047-.258.047-.257.046-.258.047-.257.047-.258.047-.257.046-.258.047-.258.047-.257.047-.258.046-.257.047-.258.047-.258.047-.257.046-.258.047-.257.047-.258.047-.258.046-.257.047-.258.047-.257.047-.258.046-.258.047-.257.047-.258.047-.257.046-.258.047-.258.047-.257.047-.258.046-.257.047-.258.047-.257.047-.258.046-.258.047-.257.047-.258.047-.257.046-.258.047-.258.047-.257.047-.258.046-.257.047-.258.047-.258.047-.257.046-.258.047-.257.047-.258.047-.258.046-.257.047-.258.047-.257.047-.258.046-.258.047-.257.047-.258.047-.257.046-.258.047-.257.047-.258.047-.258.046-.257.047-.03-.162-.027-.162-.027-.162-.026-.163-.024-.162-.024-.163-.023-.163-.022-.163-.02-.163-.02-.164-.019-.163-.017-.164-.017-.163-.015-.164-.015-.164-.013-.164-.013-.164-.011-.164-.01-.164-.01-.164-.008-.165-.008-.164-.006-.164-.005-.165-.004-.164-.004-.165-.002-.164v-.494l.002-.164.003-.165.004-.164.005-.164.006-.165.008-.164.008-.164.01-.165.01-.164.01-.164.013-.164.013-.164.015-.164.015-.164.016-.163.018-.164.018-.163.02-.164.02-.163.022-.163.023-.163.023-.163.025-.162.026-.163.026-.162.028-.162.029-.162.03-.162.03-.161.032-.162.033-.161.034-.161.034-.16.036-.161.037-.16.038-.16.039-.16.04-.16.04-.16.042-.159.043-.158.044-.159.045-.158.045-.158.047-.158.048-.157.049-.157.05-.157.05-.157.052-.156.053-.156.054-.155.054-.155.056-.155.056-.155.058-.154.059-.153.06-.154.06-.153.061-.152.062-.152.064-.152.064-.152.065-.15.067-.151.067-.15.068-.15.069-.15.07-.148.07-.149.237.114.236.113.235.114.236.114.236.113.236.114.236.113.236.114.236.114.236.113.235.114.236.113.236.114.236.114.236.113.236.114.236.113.236.114.235.114.236.113.236.114.236.113.236.114.236.113.236.114.235.114.236.113.236.114.236.113.236.114.236.114.236.113.236.114.235.113.236.114.236.114.236.113.236.114.236.113.236.114.236.114.235.113.236.114.236.113.236.114.236.113.236.114.236.114.236.113.235.114.236.113.236.114.236.114.236.113.236.114.236.113.236.114.235.114.236.113.236.114.236.113.236.114.236.114.236.113.236.114.235.113.236.114.236.113.236.114.236.114.236.113.236.114.236.113.235.114.236.114.236.113.236.114.236.113.236.114.236.114.236.113.235.114.236.113.236.114.236.114.236.113.236.114.236.113.236.114.235.113.236.114.236.114.236.113.236.114.236.113.236.114.236.114.235.113.236.114z" clip-path="url(#p1a558b8dcd-1)" opacity=".6"/></g><g transform="matrix(2.10335 0 0 2.10335 431.928 30.511)" id="patch_7-2" opacity=".938" fill="none" stroke="#000" stroke-width=".456" stroke-miterlimit="100"><path id="path394-8" d="M54 39.6l-.123.085-.123.085-.123.086-.123.085-.123.085-.123.085-.123.085-.123.086-.123.085-.123.085-.123.085-.123.085-.123.085-.123.086-.123.085-.123.085-.123.085-.122.085-.123.086-.123.085-.123.085-.123.085-.123.085-.123.086-.123.085-.123.085-.123.085-.123.085-.123.086-.123.085-.123.085-.123.085-.123.085-.123.086-.123.085-.123.085-.123.085-.123.085-.123.085-.123.086-.123.085-.123.085-.123.085-.123.085-.123.086-.123.085-.123.085-.123.085-.123.085-.123.086-.123.085-.123.085-.122.085-.123.085-.123.086-.123.085-.123.085-.123.085-.123.085-.123.085-.123.086-.123.085-.123.085-.123.085-.123.085-.123.086-.123.085-.123.085-.123.085-.123.085-.123.086-.123.085-.123.085-.123.085-.123.085-.123.086-.123.085-.123.085-.123.085-.123.085-.123.086-.123.085-.123.085-.123.085-.123.085-.123.085-.123.086-.122.085-.123.085-.123.085-.123.085-.123.086-.123.085-.123.085-.123.085-.123.085-.123.086-.123.085-.123.085-.123.085-.014-.02-.013-.019-.013-.019-.013-.02-.014-.019-.013-.02-.013-.019-.013-.02-.013-.019-.013-.02-.014-.019-.013-.02-.013-.019-.013-.02-.012-.019-.013-.02-.013-.02-.013-.019-.013-.02-.013-.02-.012-.02-.013-.019-.013-.02-.013-.02-.012-.02-.013-.02-.012-.019-.013-.02-.012-.02-.013-.02-.012-.02-.013-.02-.012-.02-.012-.02-.013-.02-.012-.02-.012-.02-.012-.02-.013-.02-.012-.02-.012-.02-.012-.02-.012-.02-.012-.02-.012-.02-.012-.02-.012-.021-.012-.02-.012-.02-.012-.021-.011-.02-.012-.02-.012-.021-.012-.02-.011-.02-.012-.021-.012-.02-.011-.021-.012-.02-.011-.021-.012-.02-.011-.021-.012-.02-.011-.021-.011-.02-.012-.021-.011-.02-.011-.021-.012-.021-.01-.02-.012-.021-.011-.021-.011-.02-.011-.022-.011-.02-.011-.021-.011-.02-.011-.022-.011-.02-.011-.021-.01-.021-.012-.021-.01-.02-.011-.022-.01-.02-.011-.022-.011-.02-.01-.022-.011-.02-.01-.022-.011-.02-.01-.022-.011-.02-.01-.022-.011-.02-.01-.022-.01-.021-.011-.021-.01-.021-.01-.021.134-.065.135-.065.135-.065.135-.065.134-.065.135-.065.135-.065.135-.065.135-.065.134-.065.135-.064.135-.065.135-.065.135-.065.134-.065.135-.065.135-.065.135-.065.134-.065.135-.065.135-.065.135-.064.135-.065.134-.065.135-.065.135-.065.135-.065.135-.065.134-.065.135-.065.135-.065.135-.065.134-.065.135-.064.135-.065.135-.065.135-.065.134-.065.135-.065.135-.065.135-.065.134-.065.135-.065.135-.065.135-.064.135-.065.134-.065.135-.065.135-.065.135-.065.135-.065.134-.065.135-.065.135-.065.135-.065.134-.064.135-.065.135-.065.135-.065.135-.065.134-.065.135-.065.135-.065.135-.065.135-.065.134-.065.135-.064.135-.065.135-.065.134-.065.135-.065.135-.065.135-.065.135-.065.134-.065.135-.065.135-.065.135-.064.135-.065.134-.065.135-.065.135-.065.135-.065.134-.065.135-.065.135-.065.135-.065.135-.065.134-.064.135-.065.135-.065.135-.065.135-.065.134-.065.135-.065.135-.065.135-.065.134-.065.135-.065z" clip-path="url(#p1a558b8dcd-1)" opacity=".6"/></g><g transform="matrix(2.10335 0 0 2.10335 431.928 30.511)" id="patch_8-8" fill="none" stroke="#000" stroke-width=".456" stroke-miterlimit="100"><path id="path397-2" d="M54 39.6l.031.184.032.185.031.184.031.184.032.185.03.184.032.185.032.184.03.184.032.185.032.184.03.184.032.185.031.184.032.184.031.185.031.184.032.184.031.185.031.184.032.185.031.184.031.184.032.185.031.184.031.184.032.185.031.184.031.184.032.185.03.184.032.184.032.185.03.184.032.185.032.184.03.184.032.185.031.184.032.184.031.185.031.184.032.184.031.185.031.184.032.184.031.185.031.184.032.185.031.184.031.184.032.185.031.184.031.184.032.185.03.184.032.184.032.185.03.184.032.184.032.185.03.184.032.185.031.184.032.184.031.185.031.184.032.184.031.185.031.184.032.184.031.185.031.184.032.184.031.185.031.184.032.185.031.184.031.184.032.185.03.184.032.184.032.185.03.184.032.184.032.185.03.184.032.184.031.185.032.184.031.185.031.184.032.184.031.185.031.184.032.184.031.185.031.184.032.184.031.185-.072.012-.073.012-.072.011-.073.012-.073.01-.072.011-.073.01-.073.011-.072.01-.073.01-.073.009-.073.009-.073.009-.073.008-.073.008-.073.008-.073.008-.073.007-.073.007-.073.007-.073.006-.073.006-.074.006-.073.006-.073.005-.073.005-.074.005-.073.004-.073.004-.074.004-.073.004-.073.003-.074.003-.073.003-.073.002-.074.002-.073.002-.074.001-.073.002h-.074l-.073.001h-.367l-.074-.002h-.073l-.073-.002-.074-.002-.073-.003-.074-.002-.073-.003-.073-.003-.074-.003-.073-.004-.073-.004-.074-.004-.073-.005-.073-.004-.074-.005-.073-.006-.073-.006-.073-.005-.073-.007-.073-.006-.074-.007-.073-.007-.073-.007-.073-.008-.073-.008-.073-.008-.073-.009-.073-.009-.072-.009-.073-.01-.073-.009-.073-.01-.073-.01-.072-.01-.073-.011-.072-.012-.073-.011-.073-.012-.072-.012-.072-.012-.073-.012-.072-.013-.072-.013-.073-.014-.072-.013-.072-.014-.072-.014-.072-.015-.072-.015-.072-.015-.071-.015-.072-.016-.072-.016-.071-.016.041-.182.042-.183.041-.182.042-.182.042-.183.041-.182.042-.182.041-.182.042-.183.042-.182.041-.182.042-.183.041-.182.042-.182.042-.183.041-.182.042-.182.042-.183.041-.182.042-.182.041-.182.042-.183.042-.182.041-.182.042-.183.041-.182.042-.182.042-.183.041-.182.042-.182.041-.183.042-.182.042-.182.041-.183.042-.182.041-.182.042-.182.042-.183.041-.182.042-.182.042-.183.041-.182.042-.182.041-.183.042-.182.042-.182.041-.183.042-.182.041-.182.042-.183.042-.182.041-.182.042-.182.041-.183.042-.182.042-.182.041-.183.042-.182.042-.182.041-.183.042-.182.041-.182.042-.183.042-.182.041-.182.042-.183.041-.182.042-.182.042-.182.041-.183.042-.182.041-.182.042-.183.042-.182.041-.182.042-.183.041-.182.042-.182.042-.183.041-.182.042-.182.042-.182.041-.183.042-.182.041-.182.042-.183.042-.182.041-.182.042-.183.041-.182.042-.182.042-.183.041-.182.042-.182.041-.183.042-.182.042-.182.041-.182.042-.183z" clip-path="url(#p1a558b8dcd-1)" opacity=".6"/></g><g transform="matrix(2.10335 0 0 2.10335 431.928 30.511)" id="patch_9-9" fill="none" stroke="#000" stroke-width=".456" stroke-miterlimit="100"><path id="path400-2" d="M54 39.6l.236.184.236.184.236.184.236.184.236.184.236.183.236.184.236.184.236.184.236.184.236.184.236.184.236.184.236.184.236.184.236.184.236.184.236.183.236.184.236.184.236.184.236.184.236.184.236.184.236.184.236.184.236.184.236.184.236.183.236.184.236.184.236.184.236.184.236.184.236.184.236.184.236.184.236.184.236.184.236.183.236.184.236.184.236.184.236.184.236.184.236.184.236.184.236.184.236.184.236.184.236.184.236.183.236.184.236.184.236.184.236.184.236.184.236.184.236.184.236.184.236.184.236.184.236.183.236.184.236.184.236.184.236.184.236.184.236.184.236.184.236.184.236.184.236.184.236.183.236.184.236.184.236.184.236.184.236.184.236.184.236.184.236.184.236.184.236.184.236.184.236.183.236.184.236.184.236.184.236.184.236.184.236.184.236.184.236.184.236.184.236.184.236.183.236.184.236.184.236.184-.043.056-.044.055-.043.056-.044.055-.044.055-.044.055-.044.055-.045.055-.044.054-.045.055-.044.055-.045.054-.045.054-.045.055-.045.054-.046.054-.045.053-.046.054-.045.054-.046.053-.046.054-.046.053-.047.054-.046.053-.046.053-.047.053-.047.052-.047.053-.047.053-.047.052-.047.052-.047.053-.048.052-.047.052-.048.052-.048.051-.048.052-.048.052-.048.051-.048.052-.049.05-.048.052-.049.05-.049.052-.049.05-.049.051-.049.05-.05.051-.048.05-.05.05-.05.05-.05.05-.05.05-.05.05-.05.05-.05.05-.05.049-.05.049-.05.049-.052.049-.05.049-.051.049-.051.048-.051.049-.052.048-.051.049-.052.048-.051.048-.052.048-.052.047-.052.048-.052.048-.052.047-.052.047-.052.048-.053.047-.052.047-.053.046-.053.047-.053.047-.053.046-.053.046-.053.047-.054.046-.053.046-.054.045-.054.046-.053.046-.054.045-.054.045-.054.046-.055.045-.054.045-.054.044-.055.045-.055.045-.054.044-.055.044-.055.044-.055.044-.187-.234-.186-.233-.187-.234-.186-.234-.187-.234-.186-.234-.187-.234-.187-.234-.186-.234-.187-.234-.186-.234-.187-.234-.186-.234-.187-.234-.186-.233-.187-.234-.187-.234-.186-.234-.187-.234-.186-.234-.187-.234-.186-.234-.187-.234-.186-.234-.187-.234-.186-.234-.187-.234-.187-.233-.186-.234-.187-.234-.186-.234-.187-.234-.186-.234-.187-.234-.186-.234-.187-.234-.186-.234-.187-.234-.187-.234-.186-.234-.187-.233-.186-.234-.187-.234-.186-.234-.187-.234-.186-.234-.187-.234-.186-.234-.187-.234-.187-.234-.186-.234-.187-.234-.186-.234-.187-.233-.186-.234-.187-.234-.186-.234-.187-.234-.187-.234-.186-.234-.187-.234-.186-.234-.187-.234-.186-.234-.187-.234-.186-.234-.187-.234-.186-.233-.187-.234-.187-.234-.186-.234-.187-.234-.186-.234-.187-.234-.186-.234-.187-.234-.186-.234-.187-.234-.186-.234-.187-.234-.187-.233-.186-.234-.187-.234-.186-.234-.187-.234-.186-.234-.187-.234-.186-.234-.187-.234-.187-.234-.186-.234-.187-.234-.186-.234-.187-.233-.186-.234-.187-.234-.186-.234-.187-.234-.186-.234z" clip-path="url(#p1a558b8dcd-1)" opacity=".6"/></g></g></svg>