<?xml version="1.0" encoding="utf-8"?>
<!-- Generator: Adobe Illustrator 19.2.1, SVG Export Plug-In . SVG Version: 6.00 Build 0)  -->
<svg version="1.1" id="Layer_1" xmlns="http://www.w3.org/2000/svg" xmlns:xlink="http://www.w3.org/1999/xlink" x="0px" y="0px"
	 viewBox="0 0 64 64" style="enable-background:new 0 0 64 64;" xml:space="preserve">
<style type="text/css">
	.st0{fill:#337AB7;}
	.st1{fill:#FFFFFF;}
	.st2{fill:#D3D5DD;}
	.st3{fill:#3A3E7C;}
	.st4{fill:#BD6AE5;}
</style>
<g>
	<g>
		<path class="st0" d="M32,0c17.7,0,32,14.3,32,32S49.7,64,32,64S0,49.7,0,32S14.3,0,32,0z"/>
	</g>
</g>
<g>
	<g>
		<path class="st1" d="M41.8,10l8.2,7.8v34.8c0,0.8-0.7,1.4-1.5,1.4h-33c-0.8,0-1.5-0.6-1.5-1.4V11.4c0-0.8,0.7-1.4,1.5-1.4H41.8z"
			/>
	</g>
</g>
<g>
	<g>
		<polygon class="st2" points="50,17.8 41.8,17.8 41.8,10 		"/>
	</g>
</g>
<g>
	<g>
		<polygon points="46,46.5 46,48 40.8,48 40.8,40 42.5,40 42.5,46.5 		"/>
	</g>
</g>
<g>
	<g>
		<polygon class="st3" points="40.5,21 45,26 40.5,31 39,29.6 42.3,26 39,22.4 		"/>
	</g>
</g>
<g>
	<g>
		<polygon points="39.6,40 39.6,48 38,48 38,42.5 36.5,48 35.1,48 33.5,42.6 33.5,48 32,48 32,41.5 32,40 34.3,40 35.8,45.1 
			37.2,40 		"/>
	</g>
</g>
<g>
	<g>
		<polygon class="st4" points="38,20.6 33.7,31.8 32.1,31.2 36.5,20 		"/>
	</g>
</g>
<g>
	<g>
		<polygon points="31.1,40 31.1,41.5 29,41.5 29,48 27.3,48 27.3,41.5 25.2,41.5 25.2,40 		"/>
	</g>
</g>
<g>
	<g>
		<polygon class="st3" points="25,22.4 21.7,26 25,29.6 23.5,31 19,26 23.5,21 		"/>
	</g>
</g>
<g>
	<g>
		<polygon points="24.3,40 24.3,48 22.5,48 22.5,44.7 19.8,44.7 19.8,48 18,48 18,40 19.8,40 19.8,43.1 22.5,43.1 22.5,40 		"/>
	</g>
</g>
</svg>
