<svg xmlns="http://www.w3.org/2000/svg" viewBox="0 0 64 64"><path fill="#FF6A4D" d="M32,0c17.7,0,32,14.3,32,32S49.7,64,32,64S0,49.7,0,32S14.3,0,32,0z"/><path fill="#FFFFFF" d="M41.8,10l8.2,7.8v34.8c0,0.8-0.7,1.4-1.5,1.4h-33c-0.8,0-1.5-0.6-1.5-1.4V11.4c0-0.8,0.7-1.4,1.5-1.4 H41.8z"/><path fill="#D3D5DD" d="M50 17.8L41.8 17.8 41.8 10zM45 21c.5 0 1 .5 1 1s-.5 1-1 1H19c-.6 0-1-.5-1-1s.4-1 1-1H45zM45 26c.5 0 1 .5 1 1s-.5 1-1 1H19c-.6 0-1-.5-1-1s.4-1 1-1H45z"/><path fill="#F94646" d="M41 35L34 42 41 49 39 51 32 44 25 51 23 49 30 42 23 35 25 33 32 40 39 33z"/><path fill="#D3D5DD" d="M36.8,16c0.5,0,1,0.5,1,1s-0.5,1-1,1H19c-0.6,0-1-0.5-1-1s0.4-1,1-1H36.8z"/></svg>