<svg xmlns="http://www.w3.org/2000/svg" viewBox="0 0 64 64"><path fill="#FF6A4D" d="M32,0c17.7,0,32,14.3,32,32S49.7,64,32,64S0,49.7,0,32S14.3,0,32,0z"/><path fill="#FFFFFF" d="M41.8,10l8.2,7.8v34.8c0,0.8-0.7,1.4-1.5,1.4h-33c-0.8,0-1.5-0.6-1.5-1.4V11.4c0-0.8,0.7-1.4,1.5-1.4 H41.8z"/><path fill="#D3D5DD" d="M50 17.8L41.8 17.8 41.8 10z"/><path d="M46 46.5L46 48 40.8 48 40.8 40 42.5 40 42.5 46.5z"/><path fill="#3A3E7C" d="M37.5 21L42 26 37.5 31 36 29.6 39.3 26 36 22.4z"/><path d="M39.6 40L39.6 48 38 48 38 42.5 36.5 48 35.1 48 33.5 42.6 33.5 48 32 48 32 41.5 32 40 34.3 40 35.8 45.1 37.2 40z"/><path fill="#BD6AE5" d="M36 18.8L30.1 34 28 33.2 33.9 18z"/><path d="M31.1 40L31.1 41.5 29 41.5 29 48 27.3 48 27.3 41.5 25.2 41.5 25.2 40z"/><path fill="#3A3E7C" d="M28 22.4L24.7 26 28 29.6 26.5 31 22 26 26.5 21z"/><path d="M24.3 40L24.3 48 22.5 48 22.5 44.7 19.8 44.7 19.8 48 18 48 18 40 19.8 40 19.8 43.1 22.5 43.1 22.5 40z"/></svg>