<?xml version="1.0" encoding="UTF-8" standalone="no"?>
<!-- Created with Inkscape (http://www.inkscape.org/) -->
<svg
    xmlns:dc="http://purl.org/dc/elements/1.1/"
    xmlns:cc="http://web.resource.org/cc/"
    xmlns:rdf="http://www.w3.org/1999/02/22-rdf-syntax-ns#"
    xmlns:svg="http://www.w3.org/2000/svg"
    xmlns="http://www.w3.org/2000/svg"
    xmlns:sodipodi="http://sodipodi.sourceforge.net/DTD/sodipodi-0.dtd"
    xmlns:inkscape="http://www.inkscape.org/namespaces/inkscape"
    version="1.0"
    width="500"
    height="220"
    id="svg2"
    sodipodi:version="0.32"
    inkscape:version="0.45"
    sodipodi:docname="pytables.svg"
    sodipodi:docbase="/home/ivan/svn/pytables/doc/xml"
    inkscape:output_extension="org.inkscape.output.svg.inkscape"
    sodipodi:modified="true">
  <metadata
      id="metadata2190">
    <rdf:RDF>
      <cc:Work
          rdf:about="">
        <dc:format>image/svg+xml</dc:format>
        <dc:type
            rdf:resource="http://purl.org/dc/dcmitype/StillImage" />
      </cc:Work>
    </rdf:RDF>
  </metadata>
  <sodipodi:namedview
      inkscape:cy="417.84948"
      inkscape:cx="305.25953"
      inkscape:zoom="0.43415836"
      inkscape:window-height="734"
      inkscape:window-width="1022"
      inkscape:pageshadow="2"
      inkscape:pageopacity="0.0"
      guidetolerance="10.0"
      gridtolerance="10.0"
      objecttolerance="10.0"
      borderopacity="1.0"
      bordercolor="#666666"
      pagecolor="#ffffff"
      id="base"
      inkscape:window-x="0"
      inkscape:window-y="0"
      inkscape:current-layer="svg2" />
  <defs
      id="defs4">
    <filter
        id="filter4423">
      <feGaussianBlur
          id="feGaussianBlur4425"
          stdDeviation="3.3607048"
          inkscape:collect="always" />
    </filter>
    <filter
        id="filter12589">
      <feGaussianBlur
          id="feGaussianBlur12591"
          stdDeviation="4.2009766"
          inkscape:collect="always" />
    </filter>
  </defs>
  <g
      id="g2363">
    <path
        id="path7633"
        style="fill:#666666;fill-opacity:1;fill-rule:evenodd;stroke:none;stroke-width:0.25pt;stroke-linecap:butt;stroke-linejoin:miter;stroke-opacity:1;filter:url(#filter12589)"
        d="M 146.43782,17.91832 L 133.00032,35.19957 L 120.09407,51.82457 L 110.96907,31.23082 L 78.06282,45.79332 L 92.65657,78.69957 L 100.81282,75.07457 L 107.12532,82.66832 L 101.31282,91.57457 L 85.34407,75.44957 L 83.43782,75.85582 C 75.06598,71.94143 64.78779,73.81674 58.40657,81.10582 L 19.28157,89.29332 L 34.87532,98.23082 L 9.00032,101.57457 L 33.12532,146.88707 L 44.28157,138.51207 L 48.96907,158.73082 L 71.96907,191.79332 L 134.90657,175.69957 L 139.93782,150.88707 L 140.06282,150.82457 L 142.65657,137.76207 L 158.81282,129.48082 L 148.93782,106.51207 L 170.18782,88.19957 L 162.25032,87.01207 L 178.43782,65.66832 L 179.59407,66.60582 C 188.58179,72.95351 200.75557,71.47722 207.96907,63.16832 C 215.67316,54.29432 214.71807,40.84116 205.84407,33.13707 C 196.97007,25.43298 183.51691,26.38807 175.81282,35.26207 C 170.59231,41.27535 169.34431,49.38168 171.84407,56.38707 L 157.71907,45.66832 L 154.68782,38.19957 L 146.43782,17.91832 z M 120.40657,52.57457 L 141.03157,55.41832 L 135.93782,62.10582 L 125.43782,63.91832 L 120.40657,52.57457 z M 134.56282,73.26207 L 150.31282,85.19957 L 131.25032,82.32457 L 131.31282,82.13707 L 134.56282,73.26207 z M 178.21907,75.82457 L 178.21907,190.57457 L 195.03157,190.57457 L 195.03157,135.26207 L 199.43782,135.26207 C 214.40436,135.26212 221.90653,126.10497 221.90657,107.76207 L 221.90657,103.32457 C 221.90653,84.98183 214.38117,75.82469 199.31282,75.82457 L 178.21907,75.82457 z M 264.68782,75.82457 L 264.68782,91.01207 L 276.90657,91.01207 L 276.90657,190.57457 L 293.71907,190.57457 L 293.71907,91.01207 L 305.93782,91.01207 L 305.93782,75.82457 L 264.68782,75.82457 z M 343.31282,75.82457 L 343.31282,190.57457 L 350.65657,190.57457 L 353.09407,185.88707 C 355.63938,189.02102 359.1455,190.57456 363.62532,190.57457 C 374.3157,190.57457 379.68777,183.39141 379.68782,169.01207 L 379.68782,125.85582 C 379.68778,111.47658 374.7512,104.2934 364.87532,104.29332 C 362.43177,104.29341 360.27045,104.61693 358.43782,105.26207 L 358.43782,75.82457 L 343.31282,75.82457 z M 388.18782,75.82457 L 388.18782,190.57457 L 403.31282,190.57457 L 403.31282,75.82457 L 388.18782,75.82457 z M 195.03157,91.01207 L 199.31282,91.01207 C 203.1817,91.01217 205.09404,92.82359 205.09407,96.41832 L 205.09407,114.66832 C 205.09404,118.26322 203.20489,120.07465 199.43782,120.07457 L 195.03157,120.07457 L 195.03157,91.01207 z M 225.84407,104.29332 L 238.53157,188.51207 C 237.61523,193.213 234.05467,195.73711 227.84407,196.10582 L 227.84407,210.07457 C 235.17462,210.07455 241.02857,208.32721 245.40657,204.82457 C 249.88634,201.41409 252.69284,196.04389 253.81282,188.76207 L 266.18782,104.29332 L 250.59407,104.29332 L 247.37532,126.98082 L 245.87532,147.57457 L 244.34407,126.69957 L 241.28157,104.29332 L 225.84407,104.29332 z M 318.62532,104.29332 C 307.01858,104.29341 301.21906,111.47658 301.21907,125.85582 L 301.21907,139.29332 L 316.34407,139.29332 L 316.34407,121.85582 C 316.34405,119.55151 317.09809,118.38715 318.62532,118.38707 C 320.35612,118.38714 321.21904,119.55151 321.21907,121.85582 L 321.21907,138.73082 C 319.28459,139.92915 317.10007,141.25607 314.65657,142.73082 C 312.21302,144.11349 309.91964,145.7311 307.78157,147.57457 C 305.64348,149.41811 303.80877,151.58587 302.28157,154.07457 C 300.85617,156.56333 300.15655,159.47504 300.15657,162.79332 L 300.15657,169.01207 C 300.15656,183.3914 304.58006,190.57456 313.43782,190.57457 C 316.59402,190.57457 319.18277,189.37738 321.21907,186.98082 L 321.21907,190.57457 L 336.34407,190.57457 L 336.34407,125.85582 C 336.34403,111.47658 330.43564,104.2934 318.62532,104.29332 z M 429.96907,104.29332 C 417.95507,104.29341 411.93783,111.47658 411.93782,125.85582 L 411.93782,169.01207 C 411.93782,183.3914 417.95507,190.57456 429.96907,190.57457 C 442.18664,190.57457 448.28153,183.39141 448.28157,169.01207 L 448.28157,155.16832 L 433.15657,155.16832 L 433.15657,173.01207 C 433.15654,175.40864 432.10712,176.60583 429.96907,176.60582 C 428.0346,176.60583 427.06279,175.40865 427.06282,173.01207 L 427.06282,151.29332 L 448.28157,151.29332 L 448.28157,125.85582 C 448.28153,111.47658 442.18664,104.2934 429.96907,104.29332 z M 471.28157,104.29332 C 459.98026,104.29341 454.34408,111.96109 454.34407,127.26207 C 454.34407,136.47963 457.79575,144.34268 464.71907,150.88707 C 470.82786,156.69413 473.8753,161.67671 473.87532,165.82457 L 473.87532,173.41832 C 473.8753,175.81489 472.95794,177.01207 471.12532,177.01207 C 469.29266,177.01208 468.3753,175.8149 468.37532,173.41832 L 468.37532,161.82457 L 454.34407,161.82457 L 454.34407,167.48082 C 454.34407,182.87407 460.08914,190.57456 471.59407,190.57457 C 483.20077,190.57457 489.00025,183.00378 489.00032,167.88707 C 489.00028,160.60526 485.54861,153.00167 478.62532,145.07457 C 472.41468,138.34583 469.3128,133.0069 469.31282,129.04332 L 469.31282,121.44957 C 469.3128,119.05308 470.06685,117.85589 471.59407,117.85582 C 473.32488,117.8559 474.18779,119.05309 474.18782,121.44957 L 474.18782,133.60582 L 488.40657,133.60582 L 488.40657,127.26207 C 488.40653,111.96108 482.68465,104.2934 471.28157,104.29332 z M 361.50032,118.38707 C 363.53657,118.38714 364.56281,119.55151 364.56282,121.85582 L 364.56282,173.01207 C 364.5628,175.40864 363.53657,176.60583 361.50032,176.60582 C 359.46403,176.60583 358.43781,175.40865 358.43782,173.01207 L 358.43782,121.85582 C 358.4378,119.55151 359.46403,118.38715 361.50032,118.38707 z M 429.96907,118.38707 C 432.10713,118.38714 433.15654,119.55151 433.15657,121.85582 L 433.15657,137.48082 L 427.06282,137.48082 L 427.06282,121.85582 C 427.0628,119.55151 428.03459,118.38715 429.96907,118.38707 z M 321.21907,155.16832 L 321.21907,173.01207 C 321.21905,175.40864 320.1152,176.60583 317.87532,176.60582 C 316.14448,176.60583 315.28157,175.40865 315.28157,173.01207 L 315.28157,163.88707 C 315.28156,160.86703 315.98832,158.80528 317.40657,157.66832 C 317.91561,157.20748 318.48317,156.78704 319.09407,156.41832 C 319.80673,155.95748 320.50634,155.53706 321.21907,155.16832 z " />
    <g
        id="g2343">
      <g
          id="g5145"
          transform="translate(-139.23835,-210.35986)">
        <g
            id="g4578"
            transform="matrix(0.6250903,0,0,0.6250903,44.866939,-21.690729)">
          <path
              id="path5094"
              style="fill:#ffc500;fill-opacity:1;fill-rule:evenodd;stroke:none;stroke-width:0.25pt;stroke-linecap:butt;stroke-linejoin:miter;stroke-opacity:1"
              d="M 269.29134,665.25588 L 370,639.50504 L 392.42126,528.83856 L 316.24016,504.92124 L 209.94094,515.55116" />
          <path
              id="path5096"
              style="fill:#ff8000;fill-opacity:1;fill-rule:evenodd;stroke:none;stroke-width:0.25pt;stroke-linecap:butt;stroke-linejoin:miter;stroke-opacity:1"
              d="M 210,515.21932 L 254.28571,558.07647 L 269.29134,665.25588 L 232.5,612.36218" />
          <path
              id="path5098"
              style="fill:#000000;fill-opacity:1;fill-rule:evenodd;stroke:none;stroke-width:0.31200001;stroke-linecap:butt;stroke-linejoin:miter;stroke-miterlimit:4;stroke-dasharray:none;stroke-opacity:1"
              d="M 209.94094,515.55116 L 316.24016,504.92124 L 392.42126,528.83856 L 254.23228,558.07084" />
          <path
              id="path5100"
              style="fill:#ff8000;fill-opacity:1;fill-rule:evenodd;stroke:none;stroke-width:0.25pt;stroke-linecap:butt;stroke-linejoin:miter;stroke-opacity:1"
              d="M 293.57143,634.1479 L 378.24803,599.7047 L 392.14286,529.50504 L 254.23228,558.07084" />
          <path
              id="path5102"
              style="fill:#ffff00;fill-opacity:1;fill-rule:evenodd;stroke:none;stroke-width:0.25pt;stroke-linecap:butt;stroke-linejoin:miter;stroke-opacity:1"
              d="M 298.21429,622.00504 L 408.21429,565.57647 L 392.42126,528.83856 L 254.23228,558.07084" />
          <path
              id="path5104"
              style="fill:#ffb000;fill-opacity:1;fill-rule:evenodd;stroke:none;stroke-width:0.25pt;stroke-linecap:butt;stroke-linejoin:miter;stroke-opacity:1"
              d="M 254.23228,558.07084 L 207.14286,593.43361 L 168.57143,520.93361 L 209.94094,515.55116" />
          <path
              id="path5106"
              style="fill:#fedc00;fill-opacity:1;fill-rule:evenodd;stroke:none;stroke-width:0.25pt;stroke-linecap:butt;stroke-linejoin:miter;stroke-opacity:1"
              d="M 316.24016,504.92124 L 290.71429,479.1479 L 185,501.29075 L 209.94094,515.55116" />
          <path
              id="path5108"
              style="fill:#fedc00;fill-opacity:1;fill-rule:evenodd;stroke:none;stroke-width:0.25pt;stroke-linecap:butt;stroke-linejoin:miter;stroke-opacity:1"
              d="M 392.42126,528.83856 L 426.42857,499.50504 L 329.28571,484.86218 L 316.24016,504.92124" />
        </g>
        <g
            id="g20830"
            transform="matrix(0.6250922,0,0,0.6250922,44.866374,-21.691816)">
          <rect
              id="rect11882"
              style="opacity:1;color:#000000;fill:#5ac4fe;fill-opacity:1;fill-rule:evenodd;stroke:none;stroke-width:0.31200001;stroke-linecap:butt;stroke-linejoin:miter;marker:none;marker-start:none;marker-mid:none;marker-end:none;stroke-miterlimit:4;stroke-dasharray:none;stroke-dashoffset:0;stroke-opacity:1;visibility:visible;display:inline;overflow:visible"
              transform="matrix(0.914235,-0.405185,0.405185,0.914235,0,0)"
              y="507.73257"
              x="80.187126"
              height="57.57877"
              width="57.57877" />
          <path
              id="path10124"
              style="opacity:1;color:#000000;fill:#fe0000;fill-opacity:1;fill-rule:evenodd;stroke:none;stroke-width:0.31200001;stroke-linecap:butt;stroke-linejoin:miter;marker:none;marker-start:none;marker-mid:none;marker-end:none;stroke-miterlimit:4;stroke-dasharray:none;stroke-dashoffset:0;stroke-opacity:1;visibility:visible;display:inline;overflow:visible"
              transform="translate(0.391719,-1.379946)"
              d="M 250.50726,537.72582 C 236.55414,525.61222 234.80555,504.58217 246.56647,490.33052 C 258.32739,476.07888 279.30714,473.80498 293.84841,485.20587 C 308.38968,496.60675 311.18745,517.52309 300.15373,532.34488 C 289.12001,547.16668 268.28016,550.48658 253.18711,539.82692" />
          <path
              id="path11890"
              style="opacity:1;color:#000000;fill:#5afe00;fill-opacity:1;fill-rule:evenodd;stroke:none;stroke-width:0.31200001;stroke-linecap:butt;stroke-linejoin:miter;marker:none;marker-start:none;marker-mid:none;marker-end:none;stroke-miterlimit:4;stroke-dasharray:none;stroke-dashoffset:0;stroke-opacity:1;visibility:visible;display:inline;overflow:visible"
              transform="matrix(0.73867,0.674068,-0.674068,0.73867,349.1653,-90.46148)"
              d="M 415.45275,450.88584 L 380.79534,446.09214 L 346.13793,441.29843 L 367.61811,413.68109 L 389.09828,386.06374 L 402.27552,418.47479 L 415.45275,450.88584 z " />
          <rect
              id="rect11884"
              style="opacity:1;color:#000000;fill:#5ac4fe;fill-opacity:1;fill-rule:evenodd;stroke:none;stroke-width:0.31200001;stroke-linecap:butt;stroke-linejoin:miter;marker:none;marker-start:none;marker-mid:none;marker-end:none;stroke-miterlimit:4;stroke-dasharray:none;stroke-dashoffset:0;stroke-opacity:1;visibility:visible;display:inline;overflow:visible"
              transform="matrix(0.604469,-0.796629,0.796629,0.604469,0,0)"
              y="572.77979"
              x="-155.59625"
              height="57.578861"
              width="57.578861" />
          <path
              id="path11872"
              style="opacity:1;color:#000000;fill:#5afe00;fill-opacity:1;fill-rule:evenodd;stroke:none;stroke-width:0.31200001;stroke-linecap:butt;stroke-linejoin:miter;marker:none;marker-start:none;marker-mid:none;marker-end:none;stroke-miterlimit:4;stroke-dasharray:none;stroke-dashoffset:0;stroke-opacity:1;visibility:visible;display:inline;overflow:visible"
              transform="translate(188.2894,-74.85915)"
              d="M 250.50726,537.72582 C 236.55414,525.61222 234.80555,504.58217 246.56647,490.33052 C 258.32739,476.07888 279.30714,473.80498 293.84841,485.20587 C 308.38968,496.60675 311.18745,517.52309 300.15373,532.34488 C 289.12001,547.16668 268.28016,550.48658 253.18711,539.82692" />
          <path
              id="path11886"
              style="opacity:1;color:#000000;fill:#fe0000;fill-opacity:1;fill-rule:evenodd;stroke:none;stroke-width:0.31200001;stroke-linecap:butt;stroke-linejoin:miter;marker:none;marker-start:none;marker-mid:none;marker-end:none;stroke-miterlimit:4;stroke-dasharray:none;stroke-dashoffset:0;stroke-opacity:1;visibility:visible;display:inline;overflow:visible"
              transform="translate(-0.66549,1.042535)"
              d="M 415.45275,450.88584 L 380.79534,446.09214 L 346.13793,441.29843 L 367.61811,413.68109 L 389.09828,386.06374 L 402.27552,418.47479 L 415.45275,450.88584 z " />
        </g>
      </g>
      <path
          style="font-size:145.31170654px;font-style:normal;font-variant:normal;font-weight:bold;font-stretch:normal;text-align:start;line-height:125%;writing-mode:lr-tb;text-anchor:start;fill:#ff8000;fill-opacity:1;stroke:none;stroke-width:1pt;stroke-linecap:butt;stroke-linejoin:miter;stroke-opacity:1;font-family:Steelfish"
          d="M 187.45786,87.256083 L 187.45786,117.77154 L 191.67189,117.77154 C 195.25622,117.77161 197.0484,115.88256 197.04843,112.10438 L 197.04843,92.92324 C 197.0484,89.145236 195.20778,87.256186 191.52658,87.256083 L 187.45786,87.256083 M 187.45786,133.75583 L 187.45786,191.88051 L 171.47357,191.88051 L 171.47357,71.271795 L 191.52658,71.271795 C 205.86397,71.271914 213.03267,80.910914 213.03272,100.18882 L 213.03272,104.8388 C 213.03267,124.11688 205.9124,133.75589 191.67189,133.75583 L 187.45786,133.75583 M 218.68398,197.69298 C 224.59331,197.30547 227.98392,194.64143 228.8558,189.70084 L 216.79493,101.20601 L 231.47141,101.20601 L 234.37764,124.7465 L 235.83076,146.68857 L 237.28388,125.03713 L 240.33542,101.20601 L 255.15722,101.20601 L 243.38697,189.99146 C 242.32132,197.64453 239.65728,203.26325 235.39483,206.84762 C 231.22921,210.52883 225.65893,212.36944 218.68398,212.36946 L 218.68398,197.69298 M 253.75221,71.271795 L 292.98637,71.271795 L 292.98637,87.256083 L 281.36144,87.256083 L 281.36144,191.88051 L 265.37715,191.88051 L 265.37715,87.256083 L 253.75221,87.256083 L 253.75221,71.271795 M 307.53968,154.68071 C 306.86154,155.06825 306.18342,155.50418 305.50532,155.98852 C 304.92405,156.37605 304.39124,156.81199 303.90689,157.29633 L 304.0522,157.15101 C 302.59907,158.31354 301.87251,160.54165 301.87253,163.83535 L 301.87253,173.42593 C 301.87251,175.94468 302.69594,177.20404 304.34283,177.20403 C 306.47404,177.20404 307.53966,175.94468 307.53968,173.42593 L 307.53968,154.68071 M 287.48667,162.67286 C 287.48666,159.18541 288.16478,156.13387 289.52103,153.51822 C 290.97414,150.90265 292.71788,148.6261 294.75225,146.68857 C 296.7866,144.75113 298.96628,143.05583 301.29128,141.60266 C 303.61625,140.05272 305.69905,138.64804 307.53968,137.38862 L 307.53968,119.66059 C 307.53966,117.2388 306.71623,116.02787 305.06938,116.0278 C 303.61625,116.02787 302.88969,117.2388 302.88971,119.66059 L 302.88971,137.96987 L 288.50385,137.96987 L 288.50385,123.87463 C 288.50384,108.7623 294.02568,101.2061 305.06938,101.20601 C 316.30679,101.2061 321.9255,108.7623 321.92554,123.87463 L 321.92554,191.88051 L 307.53968,191.88051 L 307.53968,188.10241 C 305.60217,190.62114 303.13187,191.88051 300.12879,191.88051 C 291.7007,191.88051 287.48666,184.32431 287.48667,169.21189 L 287.48667,162.67286 M 348.76777,119.66059 C 348.76774,117.2388 347.799,116.02787 345.86153,116.0278 C 343.92402,116.02787 342.95528,117.2388 342.9553,119.66059 L 342.9553,173.42593 C 342.95528,175.94468 343.92402,177.20404 345.86153,177.20403 C 347.799,177.20404 348.76774,175.94468 348.76777,173.42593 L 348.76777,119.66059 M 328.56944,71.271795 L 342.9553,71.271795 L 342.9553,102.22319 C 344.69902,101.54516 346.73338,101.2061 349.05839,101.20601 C 358.45518,101.2061 363.15359,108.7623 363.15362,123.87463 L 363.15362,169.21189 C 363.15359,184.32431 358.06768,191.88051 347.8959,191.88051 C 343.6334,191.88051 340.29123,190.23365 337.86939,186.93991 L 335.5444,191.88051 L 328.56944,191.88051 L 328.56944,71.271795 M 371.25248,71.271795 L 385.63834,71.271795 L 385.63834,191.88051 L 371.25248,191.88051 L 371.25248,71.271795 M 408.23203,136.08082 L 414.0445,136.08082 L 414.0445,119.66059 C 414.04447,117.2388 413.02729,116.02787 410.99295,116.0278 C 409.15232,116.02787 408.23201,117.2388 408.23203,119.66059 L 408.23203,136.08082 M 408.23203,150.61199 L 408.23203,173.42593 C 408.23201,175.94468 409.15232,177.20404 410.99295,177.20403 C 413.02729,177.20404 414.04447,175.94468 414.0445,173.42593 L 414.0445,154.68071 L 428.43036,154.68071 L 428.43036,169.21189 C 428.43032,184.32431 422.61786,191.88051 410.99295,191.88051 C 399.56176,191.88051 393.84617,184.32431 393.84617,169.21189 L 393.84617,123.87463 C 393.84617,108.7623 399.56176,101.2061 410.99295,101.20601 C 422.61786,101.2061 428.43032,108.7623 428.43036,123.87463 L 428.43036,150.61199 L 408.23203,150.61199 M 453.0861,119.22466 C 453.08608,116.706 452.26265,115.44663 450.61581,115.44655 C 449.16267,115.44663 448.43611,116.706 448.43613,119.22466 L 448.43613,127.2168 C 448.43611,131.38246 451.39078,137.00118 457.30014,144.07296 C 463.88757,152.4042 467.1813,160.39634 467.18134,168.04939 C 467.1813,183.93681 461.65946,191.88051 450.61581,191.88051 C 439.66898,191.88051 434.19558,183.7915 434.19558,167.61346 L 434.19558,161.65568 L 447.56426,161.65568 L 447.56426,173.86186 C 447.56424,176.38061 448.43611,177.63998 450.17987,177.63996 C 451.92359,177.63998 452.79546,176.38061 452.79548,173.86186 L 452.79548,165.86972 C 452.79546,161.51039 449.88923,156.27918 444.07678,150.17605 C 437.48931,143.29801 434.19558,135.01525 434.19558,125.32775 C 434.19558,109.24667 439.57211,101.2061 450.32518,101.20601 C 461.17509,101.2061 466.60006,109.24667 466.60009,125.32775 L 466.60009,132.01209 L 453.0861,132.01209 L 453.0861,119.22466"
          id="text18207"
          transform="scale(1.0509831,0.9514901)" />
    </g>
  </g>
</svg>