<?xml version="1.0" encoding="utf-8"?>
<!-- Generator: Adobe Illustrator 18.0.0, SVG Export Plug-In . SVG Version: 6.00 Build 0)  -->
<!DOCTYPE svg PUBLIC "-//W3C//DTD SVG 1.1//EN" "http://www.w3.org/Graphics/SVG/1.1/DTD/svg11.dtd">
<svg version="1.1" id="Layer_1" xmlns="http://www.w3.org/2000/svg" xmlns:xlink="http://www.w3.org/1999/xlink" x="0px" y="0px"
	 viewBox="0 0 64 64" enable-background="new 0 0 64 64" xml:space="preserve">
<g>
	<g>
		<g>
			<path fill="#EAEAEA" d="M32,0c17.7,0,32,14.3,32,32S49.7,64,32,64S0,49.7,0,32S14.3,0,32,0z"/>
		</g>
	</g>
	<g>
		<g>
			<path fill="#D65330" d="M43,45.1l4.4,3.6C48,49.3,49,48.8,49,48c0-1.4,0-2.9,0-2.9h1c2.2,0,4-1.8,4-4v-13c0-2.2-1.8-4-4-4H30
				c-2.2,0-4,1.8-4,4v13c0,2.2,1.8,4,4,4H43z"/>
		</g>
	</g>
	<g>
		<g>
			<path fill="#F97850" d="M22,38l-4.4,3.6C17,42.2,16,41.7,16,40.9c0-1.4,0-2.9,0-2.9h-1c-2.2,0-4-1.8-4-4V21c0-2.2,1.8-4,4-4h20
				c2.2,0,4,1.8,4,4v13c0,2.2-1.8,4-4,4H22z"/>
		</g>
	</g>
	<g>
		<g>
			<circle fill="#FFFFFF" cx="18" cy="27" r="2"/>
		</g>
	</g>
	<g>
		<g>
			<circle fill="#FFFFFF" cx="25" cy="27" r="2"/>
		</g>
	</g>
	<g>
		<g>
			<circle fill="#FFFFFF" cx="32" cy="27" r="2"/>
		</g>
	</g>
</g>
</svg>
