<?xml version="1.0" encoding="utf-8"?>
<!-- Generator: Adobe Illustrator 18.0.0, SVG Export Plug-In . SVG Version: 6.00 Build 0)  -->
<!DOCTYPE svg PUBLIC "-//W3C//DTD SVG 1.1//EN" "http://www.w3.org/Graphics/SVG/1.1/DTD/svg11.dtd">
<svg version="1.1" id="Layer_1" xmlns="http://www.w3.org/2000/svg" xmlns:xlink="http://www.w3.org/1999/xlink" x="0px" y="0px"
	 viewBox="0 0 64 64" enable-background="new 0 0 64 64" xml:space="preserve">
<g>
	<g>
		<g>
			<g>
				<path fill="#475F8E" d="M32,0c17.7,0,32,14.3,32,32S49.7,64,32,64S0,49.7,0,32S14.3,0,32,0z"/>
			</g>
		</g>
	</g>
	<g id="XMLID_14_">
		<g>
			<g>
				<g>
					<g>
						<path fill="#FFFFFF" d="M45.3,26.8c4.2,0,7.7,3.4,7.7,7.6c0,4.2-3.5,7.6-7.7,7.6H18.7c-4.2,0-7.7-3.4-7.7-7.6
							c0-3.7,2.7-6.8,6.3-7.5c0-0.2,0-0.3,0-0.5c0-3.2,2.7-5.9,5.9-5.9c0.7,0,1.4,0.1,2,0.3c1.6-3.5,5.1-5.9,9.2-5.9
							c5.6,0,10.1,4.5,10.1,10c0,0.6-0.1,1.2-0.2,1.7H45.3z"/>
					</g>
				</g>
			</g>
		</g>
	</g>
	<g>
		<g>
			<g>
				<polygon fill="#46E09A" points="32,55 24,46.3 28,46.3 28,35.7 36,35.7 36,46.3 40,46.3 				"/>
			</g>
		</g>
	</g>
</g>
</svg>
