<svg xmlns:xlink="http://www.w3.org/1999/xlink" xmlns="http://www.w3.org/2000/svg" xmlns:svg="http://www.w3.org/2000/svg" xmlns:rdf="http://www.w3.org/1999/02/22-rdf-syntax-ns#" xmlns:cc="http://web.resource.org/cc/" xmlns:dc="http://purl.org/dc/elements/1.1/" id="svg2" height="105.02pt" width="93pt" version="1.0">
  <metadata id="metadata2193">
    <rdf:RDF xmlns:rdf="http://www.w3.org/1999/02/22-rdf-syntax-ns#">
      <cc:Work xmlns:cc="http://web.resource.org/cc/" rdf:about="">
        <dc:format xmlns:dc="http://purl.org/dc/elements/1.1/">image/svg+xml</dc:format>
        <dc:type xmlns:dc="http://purl.org/dc/elements/1.1/" rdf:resource="http://purl.org/dc/dcmitype/StillImage"/>
      </cc:Work>
    </rdf:RDF>
  </metadata>
  <defs id="defs4">
    <linearGradient id="linearGradient2795">
      <stop style="stop-color:#b8b8b8;stop-opacity:0.49803922" offset="0" id="stop2797"/>
      <stop style="stop-color:#7f7f7f;stop-opacity:0" offset="1" id="stop2799"/>
    </linearGradient>
    <linearGradient id="linearGradient2787">
      <stop style="stop-color:#7f7f7f;stop-opacity:0.5" offset="0" id="stop2789"/>
      <stop style="stop-color:#7f7f7f;stop-opacity:0" offset="1" id="stop2791"/>
    </linearGradient>
    <linearGradient id="linearGradient3676">
      <stop style="stop-color:#b2b2b2;stop-opacity:0.5" offset="0" id="stop3678"/>
      <stop style="stop-color:#b3b3b3;stop-opacity:0" offset="1" id="stop3680"/>
    </linearGradient>
    <linearGradient id="linearGradient3236">
      <stop style="stop-color:#f4f4f4;stop-opacity:1" offset="0" id="stop3244"/>
      <stop style="stop-color:#ffffff;stop-opacity:1" offset="1" id="stop3240"/>
    </linearGradient>
    <linearGradient id="linearGradient4671">
      <stop style="stop-color:#ffd43b;stop-opacity:1" offset="0" id="stop4673"/>
      <stop style="stop-color:#ffe873;stop-opacity:1" offset="1" id="stop4675"/>
    </linearGradient>
    <linearGradient id="linearGradient4689">
      <stop style="stop-color:#5a9fd4;stop-opacity:1" offset="0" id="stop4691"/>
      <stop style="stop-color:#306998;stop-opacity:1" offset="1" id="stop4693"/>
    </linearGradient>
    <linearGradient xmlns:xlink="http://www.w3.org/1999/xlink" x1="224.23996" y1="144.75717" x2="-65.308502" y2="144.75717" id="linearGradient2987" xlink:href="#linearGradient4671" gradientUnits="userSpaceOnUse" gradientTransform="translate(100.2702,99.61116)"/>
    <linearGradient xmlns:xlink="http://www.w3.org/1999/xlink" x1="172.94208" y1="77.475983" x2="26.670298" y2="76.313133" id="linearGradient2990" xlink:href="#linearGradient4689" gradientUnits="userSpaceOnUse" gradientTransform="translate(100.2702,99.61116)"/>
    <linearGradient xmlns:xlink="http://www.w3.org/1999/xlink" x1="172.94208" y1="77.475983" x2="26.670298" y2="76.313133" id="linearGradient2587" xlink:href="#linearGradient4689" gradientUnits="userSpaceOnUse" gradientTransform="translate(100.2702,99.61116)"/>
    <linearGradient xmlns:xlink="http://www.w3.org/1999/xlink" x1="224.23996" y1="144.75717" x2="-65.308502" y2="144.75717" id="linearGradient2589" xlink:href="#linearGradient4671" gradientUnits="userSpaceOnUse" gradientTransform="translate(100.2702,99.61116)"/>
    <linearGradient xmlns:xlink="http://www.w3.org/1999/xlink" x1="172.94208" y1="77.475983" x2="26.670298" y2="76.313133" id="linearGradient2248" xlink:href="#linearGradient4689" gradientUnits="userSpaceOnUse" gradientTransform="translate(100.2702,99.61116)"/>
    <linearGradient xmlns:xlink="http://www.w3.org/1999/xlink" x1="224.23996" y1="144.75717" x2="-65.308502" y2="144.75717" id="linearGradient2250" xlink:href="#linearGradient4671" gradientUnits="userSpaceOnUse" gradientTransform="translate(100.2702,99.61116)"/>
    <linearGradient xmlns:xlink="http://www.w3.org/1999/xlink" x1="224.23996" y1="144.75717" x2="-65.308502" y2="144.75717" id="linearGradient2255" xlink:href="#linearGradient4671" gradientUnits="userSpaceOnUse" gradientTransform="matrix(0.562541,0,0,0.567972,-11.5974,-7.60954)"/>
    <linearGradient xmlns:xlink="http://www.w3.org/1999/xlink" x1="172.94208" y1="76.176224" x2="26.670298" y2="76.313133" id="linearGradient2258" xlink:href="#linearGradient4689" gradientUnits="userSpaceOnUse" gradientTransform="matrix(0.562541,0,0,0.567972,-11.5974,-7.60954)"/>
    <radialGradient xmlns:xlink="http://www.w3.org/1999/xlink" cx="61.518883" cy="132.28575" r="29.036913" fx="61.518883" fy="132.28575" id="radialGradient2801" xlink:href="#linearGradient2795" gradientUnits="userSpaceOnUse" gradientTransform="matrix(1,0,0,0.177966,0,108.7434)"/>
    <linearGradient xmlns:xlink="http://www.w3.org/1999/xlink" x1="150.96111" y1="192.35176" x2="112.03144" y2="137.27299" id="linearGradient1475" xlink:href="#linearGradient4671" gradientUnits="userSpaceOnUse" gradientTransform="matrix(0.562541,0,0,0.567972,-9.399749,-5.305317)"/>
    <linearGradient xmlns:xlink="http://www.w3.org/1999/xlink" x1="26.648937" y1="20.603781" x2="135.66525" y2="114.39767" id="linearGradient1478" xlink:href="#linearGradient4689" gradientUnits="userSpaceOnUse" gradientTransform="matrix(0.562541,0,0,0.567972,-9.399749,-5.305317)"/>
    <radialGradient xmlns:xlink="http://www.w3.org/1999/xlink" cx="61.518883" cy="132.28575" r="29.036913" fx="61.518883" fy="132.28575" id="radialGradient1480" xlink:href="#linearGradient2795" gradientUnits="userSpaceOnUse" gradientTransform="matrix(2.382716e-8,-0.296405,1.43676,4.683673e-7,-128.544,150.5202)"/>
  </defs>
  <g xmlns="http://www.w3.org/2000/svg" id="g2303">
    <path id="path1948" style="fill:url(#linearGradient1478);fill-opacity:1" d="M 60.510156,6.3979729 C 55.926503,6.4192712 51.549217,6.8101906 47.697656,7.4917229 C 36.35144,9.4962267 34.291407,13.691825 34.291406,21.429223 L 34.291406,31.647973 L 61.103906,31.647973 L 61.103906,35.054223 L 34.291406,35.054223 L 24.228906,35.054223 C 16.436447,35.054223 9.6131468,39.73794 7.4789058,48.647973 C 5.0170858,58.860939 4.9078907,65.233996 7.4789058,75.897973 C 9.3848341,83.835825 13.936449,89.491721 21.728906,89.491723 L 30.947656,89.491723 L 30.947656,77.241723 C 30.947656,68.391821 38.6048,60.585475 47.697656,60.585473 L 74.478906,60.585473 C 81.933857,60.585473 87.885159,54.447309 87.885156,46.960473 L 87.885156,21.429223 C 87.885156,14.162884 81.755176,8.7044455 74.478906,7.4917229 C 69.872919,6.7249976 65.093809,6.3766746 60.510156,6.3979729 z M 46.010156,14.616723 C 48.779703,14.616723 51.041406,16.915369 51.041406,19.741723 C 51.041404,22.558059 48.779703,24.835473 46.010156,24.835473 C 43.23068,24.835472 40.978906,22.558058 40.978906,19.741723 C 40.978905,16.91537 43.23068,14.616723 46.010156,14.616723 z "/>
    <path id="path1950" style="fill:url(#linearGradient1475);fill-opacity:1" d="M 91.228906,35.054223 L 91.228906,46.960473 C 91.228906,56.191228 83.403011,63.960472 74.478906,63.960473 L 47.697656,63.960473 C 40.361823,63.960473 34.291407,70.238956 34.291406,77.585473 L 34.291406,103.11672 C 34.291406,110.38306 40.609994,114.65704 47.697656,116.74172 C 56.184987,119.23733 64.323893,119.68835 74.478906,116.74172 C 81.229061,114.78733 87.885159,110.85411 87.885156,103.11672 L 87.885156,92.897973 L 61.103906,92.897973 L 61.103906,89.491723 L 87.885156,89.491723 L 101.29141,89.491723 C 109.08387,89.491723 111.98766,84.056315 114.69765,75.897973 C 117.49698,67.499087 117.37787,59.422197 114.69765,48.647973 C 112.77187,40.890532 109.09378,35.054223 101.29141,35.054223 L 91.228906,35.054223 z M 76.166406,99.710473 C 78.945884,99.710476 81.197656,101.98789 81.197656,104.80422 C 81.197654,107.63057 78.945881,109.92922 76.166406,109.92922 C 73.396856,109.92922 71.135156,107.63057 71.135156,104.80422 C 71.135158,101.98789 73.396853,99.710473 76.166406,99.710473 z "/>
    <path id="path1894" style="opacity:0.44382019;fill:url(#radialGradient1480);fill-opacity:1;fill-rule:nonzero;stroke:none;stroke-width:20;stroke-miterlimit:4;stroke-dasharray:none;stroke-opacity:1" transform="matrix(0.73406,0,0,0.809524,16.24958,27.00935)" d="M 110.46717 132.28575 A 48.948284 8.6066771 0 1 1  12.570599,132.28575 A 48.948284 8.6066771 0 1 1  110.46717 132.28575 z"/>
  </g>
</svg>
