<?xml version="1.0" encoding="UTF-8" standalone="no"?>
<svg width="2506px" height="688px" viewBox="0 0 2506 688" version="1.1" xmlns="http://www.w3.org/2000/svg" xmlns:xlink="http://www.w3.org/1999/xlink">
    <!-- Generator: Sketch 39.1 (31720) - http://www.bohemiancoding.com/sketch -->
    <title>logo-rodeo-grey-text</title>
    <desc>Created with Sketch.</desc>
    <defs>
        <path d="M689.348773,134.04378 L876.216434,134.04378 C896.156982,134.04378 914.567161,136.659704 931.447526,141.89163 C948.32789,147.123556 962.937577,154.823255 975.277025,164.99096 C987.616472,175.158665 997.241097,187.843427 1004.15119,203.045627 C1011.06128,218.247826 1014.51627,235.720222 1014.51627,255.463338 C1014.51627,266.716915 1012.49263,277.822251 1008.44529,288.779681 C1004.39796,299.73711 998.771252,309.904662 991.565014,319.282643 C984.358777,328.660623 975.820007,337.001964 965.948449,344.306917 C956.076891,351.611871 945.317054,357.238574 933.668615,361.187198 C938.604394,363.35894 943.589456,366.468434 948.623951,370.515773 C953.658446,374.563112 958.396723,379.498817 962.838924,385.323036 C967.281125,391.147256 971.328403,397.761101 974.98088,405.164769 C978.633356,412.568438 981.545422,420.514923 983.717165,429.004463 L1008.59337,526.7324 L1047.3884,526.7324 L1047.98069,583 L960.617834,583 L927.153419,446.477033 C921.033053,421.995569 911.704571,403.980246 899.167692,392.430523 C886.630813,380.8808 869.503917,375.106025 847.786489,375.106025 L790.038162,375.106025 L790.038162,532.063015 L835.052242,532.063015 L835.052242,583 L689.348773,583 L689.348773,532.063015 L731.993691,532.063015 L731.993691,185.276911 L689.348773,185.276911 L689.348773,134.04378 Z M790.038162,185.276911 L790.038162,326.538202 L876.216434,326.538202 C887.47001,326.538202 897.785634,325.05749 907.163614,322.096023 C916.541594,319.134555 924.636151,314.692421 931.447526,308.769486 C938.258901,302.846551 943.589462,295.49235 947.43937,286.706664 C951.289278,277.920977 953.214203,267.704068 953.214203,256.055629 C953.214203,233.745907 946.501644,216.372226 933.076325,203.934062 C919.651006,191.495899 898.32876,185.276911 869.108948,185.276911 L790.038162,185.276911 Z M1104.24829,429.596753 C1104.44572,405.31272 1108.34493,383.200762 1115.94603,363.260214 C1123.54712,343.319667 1134.15889,326.19277 1147.78164,311.879011 C1161.40439,297.565252 1177.5935,286.55863 1196.34946,278.858814 C1215.10542,271.158999 1235.73667,267.309149 1258.24382,267.309149 C1280.94841,267.309149 1301.72773,271.158999 1320.5824,278.858814 C1339.43708,286.55863 1355.57683,297.466538 1369.00215,311.582866 C1382.42747,325.699194 1392.89117,342.727376 1400.39355,362.667924 C1407.89593,382.608471 1411.64707,404.72043 1411.64707,429.004463 C1411.64707,452.893634 1407.89593,474.857521 1400.39355,494.896784 C1392.89117,514.936047 1382.42747,532.161658 1369.00215,546.574133 C1355.57683,560.986607 1339.43708,572.190658 1320.5824,580.18662 C1301.72773,588.182582 1280.94841,592.180503 1258.24382,592.180503 C1235.14438,592.180503 1214.21699,588.231939 1195.46103,580.334693 C1176.70507,572.437446 1160.61467,561.33211 1147.18935,547.01835 C1133.76403,532.704591 1123.30034,515.577695 1115.79795,495.637147 C1108.29557,475.6966 1104.44572,453.683355 1104.24829,429.596753 L1104.24829,429.596753 Z M1162.5889,429.596753 C1162.5889,447.168127 1165.10611,463.061097 1170.14061,477.276141 C1175.1751,491.491185 1182.08509,503.583662 1190.87078,513.553936 C1199.65646,523.524209 1209.82402,531.223909 1221.37374,536.653266 C1232.92346,542.082623 1245.21337,544.797261 1258.24382,544.797261 C1271.86657,544.797261 1284.55134,542.13198 1296.29849,536.801339 C1308.04564,531.470697 1318.26255,523.820355 1326.94953,513.850081 C1335.6365,503.879807 1342.44777,491.78733 1347.38355,477.572286 C1352.31933,463.357242 1354.78718,447.365558 1354.78718,429.596753 C1354.78718,411.038224 1352.31933,394.552969 1347.38355,380.140494 C1342.44777,365.728019 1335.68585,353.684899 1327.0976,344.010772 C1318.50934,334.336645 1308.29243,327.031802 1296.44656,322.096023 C1284.60069,317.160244 1271.86657,314.692391 1258.24382,314.692391 C1245.21337,314.692391 1232.92346,317.160244 1221.37374,322.096023 C1209.82402,327.031802 1199.65646,334.336645 1190.87078,344.010772 C1182.08509,353.684899 1175.1751,365.728019 1170.14061,380.140494 C1165.10611,394.552969 1162.5889,411.038224 1162.5889,429.596753 L1162.5889,429.596753 Z M1652.11702,122.19797 L1748.95653,122.19797 L1748.95653,532.063015 L1793.97061,532.063015 L1793.97061,583 L1693.87351,583 L1693.87351,557.827653 C1684.00195,567.896642 1672.55111,575.744413 1659.52066,581.371201 C1646.4902,586.997989 1631.68308,589.811341 1615.09887,589.811341 C1594.36859,589.811341 1575.06999,586.208276 1557.20247,579.002039 C1539.33495,571.795801 1523.83683,561.233393 1510.70766,547.314496 C1497.57849,533.395599 1487.31222,516.318059 1479.90855,496.081365 C1472.50489,475.844671 1468.80311,452.696214 1468.80311,426.635301 C1468.80311,402.943561 1472.35681,381.37453 1479.46434,361.927561 C1486.57186,342.480591 1496.6407,325.896622 1509.67115,312.175156 C1522.70161,298.453691 1538.39715,287.792568 1556.75825,280.191468 C1575.11935,272.590368 1595.55317,268.789875 1618.06032,268.789875 C1632.86766,268.789875 1646.39149,270.418658 1658.63222,273.676272 C1670.87295,276.933886 1682.61993,282.609947 1693.87351,290.704625 L1693.87351,173.134955 L1652.11702,173.134955 L1652.11702,122.19797 Z M1622.20635,541.835808 C1638.59314,541.835808 1652.3144,539.417313 1663.37054,534.580249 C1674.42669,529.743186 1684.59424,522.487699 1693.87351,512.813573 L1693.87351,341.04932 C1684.00195,332.757211 1672.64983,326.735651 1659.8168,322.984458 C1646.98378,319.233266 1633.8548,317.357698 1620.42948,317.357698 C1607.39902,317.357698 1595.15848,319.776194 1583.70747,324.613257 C1572.25646,329.450321 1562.23698,336.508379 1553.64872,345.787644 C1545.06047,355.066908 1538.29855,366.41903 1533.36277,379.844349 C1528.427,393.269668 1525.95914,408.669068 1525.95914,426.04301 C1525.95914,444.996402 1528.32828,461.679085 1533.06663,476.09156 C1537.80498,490.504035 1544.41882,502.596512 1552.90836,512.369355 C1561.3979,522.142197 1571.56545,529.496398 1583.41132,534.432177 C1595.25719,539.367956 1608.18874,541.835808 1622.20635,541.835808 L1622.20635,541.835808 Z M1898.80603,436.70424 C1898.80603,445.391211 1899.44767,453.337696 1900.73097,460.543933 C1902.01428,467.750171 1903.84049,474.610801 1906.20966,481.126029 C1913.51461,500.869146 1925.21224,515.725618 1941.30287,525.695891 C1957.39351,535.666165 1975.60627,540.651227 1995.94168,540.651227 C2011.9336,540.651227 2027.48107,538.43016 2042.58456,533.987959 C2057.68804,529.545758 2073.53165,522.586414 2090.11587,513.109718 L2112.32676,550.720166 C2092.18879,564.540348 2071.9524,574.806614 2051.61699,581.519274 C2031.28158,588.231933 2010.15676,591.588213 1988.2419,591.588213 C1967.51163,591.588213 1948.31173,588.133219 1930.64165,581.223128 C1912.97156,574.313038 1897.76958,564.046771 1885.03527,550.424021 C1872.30096,536.801271 1862.33084,519.822445 1855.1246,499.487036 C1847.91837,479.151626 1844.3153,455.460242 1844.3153,428.412172 C1844.3153,406.497313 1847.37544,385.816709 1853.4958,366.36974 C1859.61617,346.92277 1868.74722,329.943945 1880.88924,315.432754 C1893.03126,300.921564 1908.08516,289.421371 1926.05139,280.931831 C1944.01763,272.442291 1964.94502,268.197585 1988.83419,268.197585 C2011.93364,268.197585 2031.23224,271.701935 2046.73059,278.710742 C2062.22894,285.719548 2074.86434,294.998673 2084.63718,306.548396 C2094.41003,318.098119 2101.81358,331.276452 2106.84808,346.083789 C2111.88257,360.891126 2115.38692,375.994384 2117.36123,391.394014 C2118.34839,398.896399 2118.99003,406.497384 2119.28618,414.1972 C2119.58233,421.897015 2119.7304,429.399287 2119.7304,436.70424 L1898.80603,436.70424 Z M1984.9843,314.396246 C1972.15128,314.396246 1960.94723,316.222457 1951.37181,319.874933 C1941.7964,323.52741 1933.65249,328.759257 1926.93983,335.570632 C1920.22717,342.382007 1914.84725,350.723349 1910.79991,360.594907 C1906.75257,370.466465 1903.74179,381.522444 1901.76748,393.763177 L2060.79749,393.763177 C2060.00776,382.312169 2058.18155,371.74976 2055.3188,362.075633 C2052.45605,352.401506 2048.06327,344.010808 2042.14034,336.903286 C2036.2174,329.795764 2028.61642,324.267774 2019.33715,320.319151 C2010.05789,316.370528 1998.60705,314.396246 1984.9843,314.396246 L1984.9843,314.396246 Z M2190.50911,429.596753 C2190.70655,405.31272 2194.60575,383.200762 2202.20685,363.260214 C2209.80795,343.319667 2220.41972,326.19277 2234.04247,311.879011 C2247.66522,297.565252 2263.85433,286.55863 2282.61029,278.858814 C2301.36625,271.158999 2321.9975,267.309149 2344.50465,267.309149 C2367.20924,267.309149 2387.98855,271.158999 2406.84323,278.858814 C2425.69791,286.55863 2441.83766,297.466538 2455.26298,311.582866 C2468.6883,325.699194 2479.15199,342.727376 2486.65438,362.667924 C2494.15676,382.608471 2497.9079,404.72043 2497.9079,429.004463 C2497.9079,452.893634 2494.15676,474.857521 2486.65438,494.896784 C2479.15199,514.936047 2468.6883,532.161658 2455.26298,546.574133 C2441.83766,560.986607 2425.69791,572.190658 2406.84323,580.18662 C2387.98855,588.182582 2367.20924,592.180503 2344.50465,592.180503 C2321.40521,592.180503 2300.47782,588.231939 2281.72186,580.334693 C2262.96589,572.437446 2246.8755,561.33211 2233.45018,547.01835 C2220.02486,532.704591 2209.56116,515.577695 2202.05878,495.637147 C2194.5564,475.6966 2190.70655,453.683355 2190.50911,429.596753 L2190.50911,429.596753 Z M2248.84973,429.596753 C2248.84973,447.168127 2251.36694,463.061097 2256.40144,477.276141 C2261.43593,491.491185 2268.34592,503.583662 2277.1316,513.553936 C2285.91729,523.524209 2296.08484,531.223909 2307.63457,536.653266 C2319.18429,542.082623 2331.47419,544.797261 2344.50465,544.797261 C2358.1274,544.797261 2370.81216,542.13198 2382.55932,536.801339 C2394.30647,531.470697 2404.52338,523.820355 2413.21035,513.850081 C2421.89732,503.879807 2428.7086,491.78733 2433.64438,477.572286 C2438.58015,463.357242 2441.04801,447.365558 2441.04801,429.596753 C2441.04801,411.038224 2438.58015,394.552969 2433.64438,380.140494 C2428.7086,365.728019 2421.94668,353.684899 2413.35843,344.010772 C2404.77017,334.336645 2394.55326,327.031802 2382.70739,322.096023 C2370.86152,317.160244 2358.1274,314.692391 2344.50465,314.692391 C2331.47419,314.692391 2319.18429,317.160244 2307.63457,322.096023 C2296.08484,327.031802 2285.91729,334.336645 2277.1316,344.010772 C2268.34592,353.684899 2261.43593,365.728019 2256.40144,380.140494 C2251.36694,394.552969 2248.84973,411.038224 2248.84973,429.596753 L2248.84973,429.596753 Z" id="path-1"></path>
        <filter x="-50%" y="-50%" width="200%" height="200%" filterUnits="objectBoundingBox" id="filter-2">
            <feOffset dx="4" dy="10" in="SourceAlpha" result="shadowOffsetOuter1"></feOffset>
            <feGaussianBlur stdDeviation="2" in="shadowOffsetOuter1" result="shadowBlurOuter1"></feGaussianBlur>
            <feColorMatrix values="0 0 0 0 0   0 0 0 0 0   0 0 0 0 0  0 0 0 0.5 0" type="matrix" in="shadowBlurOuter1"></feColorMatrix>
        </filter>
    </defs>
    <g id="Page-1" stroke="none" stroke-width="1" fill="none" fill-rule="evenodd">
        <g id="logo-rodeo-grey-text">
            <g id="Group" fill="#EC5725">
                <path d="M158.797622,179.4298 C161.796588,182.536289 195.484972,190.352617 236.67077,197.667899 C271.258844,203.780668 282.75488,204.381924 291.052019,200.774388 C408.611483,156.281443 476.188182,168.607191 490.483253,164.398399 C492.082702,160.790863 489.683529,100.164215 487.184391,81.2246505 C481.986183,42.7442656 470.989975,29.2160053 436.002039,17.9925597 C397.915172,5.76702074 336.036508,4.66471804 281.255397,23.4038638 C252.665255,33.2243787 236.970667,36.4310775 230.87277,34.3266814 C227.174045,33.0239601 227.673873,29.6168426 230.173011,27.7128653 C241.569081,18.4936064 280.655604,9.97581284 296.650089,7.47057944 C299.848986,6.96953277 299.549089,5.86723007 297.249882,4.66471804 C293.451192,2.66053133 255.46429,-9.36458896 217.677319,15.4873263 C184.188867,40.9404976 173.292624,97.4585629 164.795554,136.339785 C158.197829,167.905726 156.898277,177.425613 158.797622,179.4298 L158.797622,179.4298 Z" id="Top_of_Hat"></path>
                <path d="M206.932391,298.797642 L297.111583,555.030865 C294.812114,561.033986 293.212483,565.536327 292.112736,568.63794 C284.214559,590.749436 278.615851,604.556615 275.116658,610.159528 C270.317765,617.563378 264.31915,623.366395 256.82088,627.56858 C249.422587,631.670713 239.424894,633.771805 227.127731,633.771805 C218.02983,633.771805 207.432276,632.070921 195.23509,628.769204 L201.43366,681.196463 C214.630615,685.698804 226.627846,688 237.325378,688 C255.121272,688 270.417742,683.697763 283.21479,675.093289 C296.011837,666.488816 307.409207,652.981793 317.306923,634.672273 C324.705216,621.065199 335.202794,596.152246 348.599703,559.933414 L456.774742,270.48292 C493.866184,272.48396 532.357302,278.88729 566.149505,288.892492 C597.442285,298.997746 657.928328,308.502688 643.931558,265.280215 C609.439516,165.428299 424.982078,131.910872 182.737974,271.183284 C155.844179,286.691347 124.351446,302.399514 105.155875,308.202532 C84.2606963,314.505809 37.0715847,311.304144 31.4728765,288.892492 C30.0731995,283.089475 34.8720922,283.189527 38.4712617,285.490723 C101.056821,324.310907 193.735436,248.471476 198.334375,244.569447 C209.031907,235.564765 190.836105,236.865441 184.637535,236.065025 C141.947386,231.462632 125.951077,222.858158 139.647916,182.237038 C143.74697,170.731056 154.444502,149.62008 139.747893,142.516386 C114.75366,134.212069 55.567317,183.837871 29.6732918,227.160395 C23.9746067,238.066066 20.9752988,236.165077 19.2756909,232.463152 C16.3763599,225.059303 46.4694162,138.214149 146.646301,124.507023 C153.244779,123.606555 156.943925,120.604994 156.943925,116.102653 C156.943925,113.501301 156.344064,111 152.944848,111 C33.9722998,121.505462 -35.5116674,228.060864 18.6758293,299.498006 C69.4641104,364.131611 174.439888,305.301023 206.932391,298.797642 L206.932391,298.797642 Z M347.584715,416.829932 C338.665465,441.285261 331.049027,466.34195 324.635184,492 C317.620043,465.339683 309.60274,439.781859 300.68349,415.627211 L262,287.938322 C268.714492,286.735601 275.5292,285.432653 282.243691,284.330159 C321.628695,277.915646 361.314348,273.906576 401,271 L347.584715,416.829932 L347.584715,416.829932 Z" id="Brim__x26__Y"></path>
            </g>
            <g id="Rodeo">
                <use fill="black" fill-opacity="1" filter="url(#filter-2)" xlink:href="#path-1"></use>
                <use fill="#58585A" fill-rule="evenodd" xlink:href="#path-1"></use>
            </g>
        </g>
    </g>
</svg>