<?xml version="1.0" encoding="UTF-8" standalone="no"?>
<svg width="2541px" height="688px" viewBox="0 0 2541 688" version="1.1" xmlns="http://www.w3.org/2000/svg" xmlns:xlink="http://www.w3.org/1999/xlink">
    <!-- Generator: Sketch 39.1 (31720) - http://www.bohemiancoding.com/sketch -->
    <title>logo-rodeo-grey-text</title>
    <desc>Created with Sketch.</desc>
    <defs></defs>
    <g id="Page-1" stroke="none" stroke-width="1" fill="none" fill-rule="evenodd">
        <g id="logo-rodeo-grey-text" transform="translate(0.000000, -60.000000)">
            <g id="Group" transform="translate(0.000000, 60.000000)" fill="#EC5725">
                <path d="M158.797622,179.4298 C161.796588,182.536289 195.484972,190.352617 236.67077,197.667899 C271.258844,203.780668 282.75488,204.381924 291.052019,200.774388 C408.611483,156.281443 476.188182,168.607191 490.483253,164.398399 C492.082702,160.790863 489.683529,100.164215 487.184391,81.2246505 C481.986183,42.7442656 470.989975,29.2160053 436.002039,17.9925597 C397.915172,5.76702074 336.036508,4.66471804 281.255397,23.4038638 C252.665255,33.2243787 236.970667,36.4310775 230.87277,34.3266814 C227.174045,33.0239601 227.673873,29.6168426 230.173011,27.7128653 C241.569081,18.4936064 280.655604,9.97581284 296.650089,7.47057944 C299.848986,6.96953277 299.549089,5.86723007 297.249882,4.66471804 C293.451192,2.66053133 255.46429,-9.36458896 217.677319,15.4873263 C184.188867,40.9404976 173.292624,97.4585629 164.795554,136.339785 C158.197829,167.905726 156.898277,177.425613 158.797622,179.4298 L158.797622,179.4298 Z" id="Top_of_Hat"></path>
                <path d="M206.932391,298.797642 L297.111583,555.030865 C294.812114,561.033986 293.212483,565.536327 292.112736,568.63794 C284.214559,590.749436 278.615851,604.556615 275.116658,610.159528 C270.317765,617.563378 264.31915,623.366395 256.82088,627.56858 C249.422587,631.670713 239.424894,633.771805 227.127731,633.771805 C218.02983,633.771805 207.432276,632.070921 195.23509,628.769204 L201.43366,681.196463 C214.630615,685.698804 226.627846,688 237.325378,688 C255.121272,688 270.417742,683.697763 283.21479,675.093289 C296.011837,666.488816 307.409207,652.981793 317.306923,634.672273 C324.705216,621.065199 335.202794,596.152246 348.599703,559.933414 L456.774742,270.48292 C493.866184,272.48396 532.357302,278.88729 566.149505,288.892492 C597.442285,298.997746 657.928328,308.502688 643.931558,265.280215 C609.439516,165.428299 424.982078,131.910872 182.737974,271.183284 C155.844179,286.691347 124.351446,302.399514 105.155875,308.202532 C84.2606963,314.505809 37.0715847,311.304144 31.4728765,288.892492 C30.0731995,283.089475 34.8720922,283.189527 38.4712617,285.490723 C101.056821,324.310907 193.735436,248.471476 198.334375,244.569447 C209.031907,235.564765 190.836105,236.865441 184.637535,236.065025 C141.947386,231.462632 125.951077,222.858158 139.647916,182.237038 C143.74697,170.731056 154.444502,149.62008 139.747893,142.516386 C114.75366,134.212069 55.567317,183.837871 29.6732918,227.160395 C23.9746067,238.066066 20.9752988,236.165077 19.2756909,232.463152 C16.3763599,225.059303 46.4694162,138.214149 146.646301,124.507023 C153.244779,123.606555 156.943925,120.604994 156.943925,116.102653 C156.943925,113.501301 156.344064,111 152.944848,111 C33.9722998,121.505462 -35.5116674,228.060864 18.6758293,299.498006 C69.4641104,364.131611 174.439888,305.301023 206.932391,298.797642 L206.932391,298.797642 Z M347.584715,416.829932 C338.665465,441.285261 331.049027,466.34195 324.635184,492 C317.620043,465.339683 309.60274,439.781859 300.68349,415.627211 L262,287.938322 C268.714492,286.735601 275.5292,285.432653 282.243691,284.330159 C321.628695,277.915646 361.314348,273.906576 401,271 L347.584715,416.829932 L347.584715,416.829932 Z" id="Brim__x26__Y"></path>
            </g>
            <text id="Rodeo" fill="#58595B" font-family="Helvetica" font-size="606.5055" font-weight="normal">
                <tspan x="778" y="588">Rodeo</tspan>
            </text>
        </g>
    </g>
</svg>